<svg preserveApectRatio="xMidYMid meet" viewBox="0 0 35 34" fill="none" xmlns="http://www.w3.org/2000/svg">
<path d="M33.6119 19.3212L34.3984 19.5624C34.4436 19.5762 34.4893 19.5828 34.5342 19.5828C34.7339 19.5828 34.9186 19.4525 34.9797 19.2502C35.0546 19.0023 34.9158 18.7401 34.6697 18.6648L33.261 18.2329C33.2256 18.1114 33.1891 17.9746 33.1493 17.8234C32.6707 16.0066 31.6841 12.2667 25.3702 11.1912V10.2084C25.3702 4.57952 21.8396 0 17.5 0C13.1603 0 9.62967 4.57952 9.62967 10.2084V11.1914C3.31595 12.2669 2.32918 16.0066 1.85065 17.8234C1.81078 17.9746 1.77435 18.1114 1.73894 18.2329L0.330292 18.6648C0.0841347 18.7402 -0.0545967 19.0024 0.0203126 19.2502C0.0814327 19.4525 0.266097 19.5828 0.465762 19.5828C0.510671 19.5828 0.556418 19.5763 0.601606 19.5624L1.38806 19.3213C0.859968 21.0679 0.140037 23.9423 0.0182629 24.6053C1.37586e-06 24.6661 0.00111943 24.77 0.00326235 24.7884C0.00326235 24.7884 0.837887 31.88 0.839471 31.8891C1.13631 33.5597 2.49791 34 3.17983 34H31.8186C32.502 34 33.8636 33.5596 34.1604 31.8891C34.162 31.88 34.9967 24.7884 34.9967 24.7884C34.9988 24.77 34.9927 24.6447 34.9817 24.6054C34.8601 23.9426 34.1399 21.0679 33.6119 19.3212ZM26.6142 12.4222C31.0842 13.645 31.8283 16.4681 32.2487 18.0639C32.3202 18.3358 32.3822 18.5706 32.4536 18.7698C32.9266 20.0864 33.6985 23.1705 33.9734 24.346C33.3676 24.4928 32.364 24.9035 31.4208 26.0532C30.3106 27.4066 29.6741 27.7691 26.6141 27.7825V12.4222H26.6142ZM12.2173 10.922V10.2084C12.2173 6.00512 14.587 2.58557 17.4999 2.58557C20.4127 2.58557 22.7824 6.00512 22.7824 10.2084V10.9219C22.3533 10.922 12.6662 10.922 12.2173 10.922ZM21.5385 11.8306V27.7832H13.4613V11.8306C13.4857 11.8306 21.5141 11.8306 21.5385 11.8306ZM9.31737 17.3784L10.6645 18.2856C10.7441 18.3392 10.834 18.3649 10.9231 18.3649C11.0615 18.3649 11.1825 18.2856 11.1825 18.2856L12.5296 17.3783V27.7832H9.31737V17.3784ZM12.5296 14.4978H12.2173V11.8617C12.3207 11.8569 12.4245 11.8522 12.5296 11.8485V14.4978ZM25.6825 16.2496L24.0764 17.3311L22.4703 16.2496V15.4362H25.6825V16.2496H25.6825ZM22.4702 14.4978V11.8485C22.5753 11.8522 22.6792 11.8568 22.7825 11.8617V14.4978H22.4702ZM22.4702 17.3784L23.8177 18.2855C23.8948 18.3374 23.9613 18.3649 24.0767 18.3649C24.1658 18.3649 24.2557 18.3393 24.3353 18.2856L25.6825 17.3783V27.7832H22.4702V17.3784ZM25.3701 12.1439C25.4759 12.1626 25.5805 12.1819 25.6825 12.2024V14.4979H25.3701V12.1439ZM10.5614 10.2085C10.5614 5.09691 13.674 0.938424 17.5 0.938424C21.3259 0.938424 24.4385 5.09691 24.4385 10.2085V14.4979H23.7143V10.2085C23.7143 5.48782 20.9266 1.64733 17.5001 1.64733C14.0736 1.64733 11.2858 5.48791 11.2858 10.2085V14.4979H10.5616V10.2085H10.5614ZM9.31737 12.2023C9.4193 12.1819 9.52383 12.1625 9.62967 12.1438V14.4978H9.31737V12.2023ZM12.5296 15.4362V16.2496L10.9235 17.3311L9.31746 16.2496V15.4362H12.5296ZM2.54617 18.7698C2.61764 18.5707 2.67959 18.3358 2.75115 18.0639C3.17154 16.468 3.91569 13.6449 8.38566 12.4222V27.7825C5.32574 27.7691 4.6892 27.4065 3.57897 26.0532C2.6358 24.9035 1.63217 24.4928 1.02656 24.346C1.3015 23.1705 2.07333 20.0867 2.54617 18.7698ZM33.2409 31.7368C33.0076 33.0095 31.9348 33.0601 31.815 33.0617H3.1871C3.06514 33.0601 1.99227 33.0094 1.75897 31.7368L1.00327 25.3135C1.47061 25.4642 2.17806 25.8186 2.86081 26.6508C4.25772 28.3537 5.27086 28.7214 8.56604 28.7214H26.4339C29.7291 28.7214 30.7422 28.3537 32.1391 26.6508C32.8294 25.8094 33.5327 25.4568 33.9971 25.309L33.2409 31.7368Z" fill="url(#paint0_linear)"/>
<defs>
<linearGradient id="paint0_linear" x1="35" y1="-1.8999e-05" x2="-1.33839" y2="1.49627" gradientUnits="userSpaceOnUse">
<stop stop-color="#FAA6A6"/>
<stop offset="1" stop-color="#F8CEBC"/>
</linearGradient>
</defs>
</svg>
