<svg viewBox="0 0 36 30" fill="none" xmlns="http://www.w3.org/2000/svg">
    <path d="M3.31459 17.463V23.5442C3.29383 23.707 3.32842 23.8722 3.41278 24.0129C3.49714 24.1535 3.6263 24.2614 3.77933 24.3191L21.5422 29.964C21.6116 29.9863 21.6838 29.9985 21.7566 30C21.9465 29.9937 22.1278 29.9189 22.2674 29.7895L32.16 20.7628C32.241 20.6848 32.3047 20.5906 32.3469 20.4862C32.3891 20.3819 32.409 20.2698 32.4052 20.1572V13.4859L34.877 14.3377C34.9701 14.3726 35.0688 14.3899 35.1681 14.389C35.3093 14.3897 35.4484 14.3542 35.572 14.2857C35.6957 14.2172 35.7998 14.1182 35.8746 13.9978C35.9493 13.8775 35.9922 13.7399 35.999 13.5982C36.0059 13.4564 35.9766 13.3153 35.9138 13.1882L32.4256 5.67005C32.4277 5.56103 32.3975 5.45391 32.3388 5.36222C32.2797 5.19735 32.1661 5.05784 32.017 4.96706L31.9506 4.94137C31.7414 4.78735 31.513 4.66143 31.2713 4.56676L16.8129 0.0404769C16.7029 0.00556745 16.5871 -0.00693126 16.4722 0.00364217C16.3573 0.0142156 16.2457 0.0477093 16.1439 0.102119L4.71906 6.11657C4.17313 6.33843 3.68929 6.69073 3.30947 7.14294C3.23612 7.22963 3.18213 7.33117 3.15115 7.44062C3.08924 7.52467 3.03779 7.61602 2.99794 7.71262L0.102174 14.8971C0.0298511 15.08 -0.00474497 15.2757 0.000522673 15.4725C0.00579032 15.6692 0.0508105 15.8628 0.132816 16.0415C0.343024 16.4078 0.687714 16.6768 1.09297 16.7907L3.31459 17.463ZM4.33602 17.7863L17.7015 22.056C17.8226 22.1004 17.9506 22.123 18.0795 22.1226C18.3831 22.1206 18.6779 22.0194 18.9193 21.8342C19.1607 21.6491 19.3356 21.3901 19.4176 21.0963L20.8169 16.1595L21.2255 28.7734L4.33602 23.3902V17.7863ZM31.4041 20.0648L22.1193 28.5322L21.7056 12.2029L31.4093 6.04478L31.4041 20.0648ZM32.4256 12.3979V7.99477L34.8464 13.2395L32.4256 12.3979ZM16.5933 1.02587L30.5717 5.40331L21.1131 11.3715C20.4901 11.2227 18.3502 10.6633 15.6178 9.94488L5.17872 7.01464L16.5933 1.02587ZM1.07763 15.282L3.96832 7.98963C3.96832 7.95884 4.00406 8.29245 4.02449 7.77927H4.33602V7.96407C9.44322 9.4215 13.4319 10.417 15.9702 11.0841L20.4594 12.3568C20.5063 12.3719 20.5495 12.3967 20.5864 12.4293C20.6233 12.462 20.6531 12.502 20.6739 12.5467C20.6942 12.5955 20.7046 12.6479 20.7046 12.7007C20.7046 12.7536 20.6942 12.8058 20.6739 12.8546L18.3961 20.8089C18.3804 20.8604 18.3547 20.9085 18.3205 20.9501C18.2863 20.9916 18.2443 21.026 18.1969 21.0513C18.1494 21.0766 18.0975 21.0922 18.0441 21.0973C17.9906 21.1024 17.9367 21.0967 17.8854 21.0809L1.27682 15.8156C1.22483 15.7985 1.17678 15.7711 1.13555 15.7349C1.09432 15.6988 1.06072 15.6547 1.03677 15.6053C1.0151 15.5537 1.00525 15.4978 1.0079 15.4419C1.01055 15.3859 1.02566 15.3313 1.0521 15.282H1.07763Z" fill="url(#paint0_linear)"/>
    <defs>
    <linearGradient id="paint0_linear" x1="36" y1="-1.67638e-05" x2="-1.35394" y2="1.79297" gradientUnits="userSpaceOnUse">
    <stop stop-color="#FAA6A6"/>
    <stop offset="1" stop-color="#F8CEBC"/>
    </linearGradient>
    </defs>
    </svg>
