<svg width="14" height="21" viewBox="0 0 14 21" fill="none" xmlns="http://www.w3.org/2000/svg">
<path d="M7 1C6.23895 1 5.50906 1.33744 4.97092 1.93804C4.43277 2.53864 4.13044 3.3532 4.13044 4.20257V6.31628H2.3461C2.17351 6.31007 2.00152 6.34219 1.84014 6.41074C1.67875 6.4793 1.53116 6.58296 1.40594 6.71567C1.28072 6.84838 1.18036 7.00747 1.11067 7.1838C1.04099 7.36014 1.00338 7.55016 1.00002 7.74285V18.422C0.998308 18.8282 1.1375 19.2193 1.38842 19.5135C1.63935 19.8076 1.98255 19.982 2.3461 20H11.6539C12.0175 19.982 12.3606 19.8076 12.6116 19.5135C12.8625 19.2193 13.0017 18.8282 13 18.422V7.74285C12.9966 7.55016 12.959 7.36014 12.8893 7.1838C12.8196 7.00747 12.7193 6.84838 12.5941 6.71567C12.4688 6.58296 12.3213 6.4793 12.1599 6.41074C11.9985 6.34219 11.8265 6.31007 11.6539 6.31628H9.86956V4.20257C9.86956 3.3532 9.56723 2.53864 9.02908 1.93804C8.49094 1.33744 7.76105 1 7 1ZM4.65218 4.20257C4.65218 3.50763 4.89954 2.84113 5.33984 2.34974C5.78014 1.85834 6.37732 1.58229 7 1.58229C7.62268 1.58229 8.21986 1.85834 8.66016 2.34974C9.10046 2.84113 9.34782 3.50763 9.34782 4.20257V6.31628H4.65218V4.20257ZM11.6539 6.89856C11.758 6.8923 11.8621 6.90927 11.9602 6.94853C12.0583 6.98779 12.1484 7.04858 12.2252 7.12723C12.302 7.20587 12.3639 7.30085 12.4074 7.40657C12.4508 7.51229 12.4749 7.62659 12.4782 7.74285V18.422C12.4801 18.6739 12.3959 18.9171 12.2428 19.102C12.0896 19.287 11.879 19.3999 11.6539 19.4177H2.3461C2.12098 19.3999 1.91039 19.287 1.75723 19.102C1.60407 18.9171 1.51986 18.6739 1.52175 18.422V7.74285C1.52508 7.62659 1.54917 7.51229 1.59263 7.40657C1.63608 7.30085 1.69802 7.20587 1.7748 7.12723C1.85159 7.04858 1.94168 6.98779 2.03978 6.94853C2.13789 6.90927 2.24203 6.8923 2.3461 6.89856H4.13044V7.98743C4.13044 8.06465 4.15793 8.13868 4.20685 8.19328C4.25577 8.24788 4.32212 8.27858 4.39131 8.27858C4.4605 8.27858 4.52685 8.24788 4.57577 8.19328C4.6247 8.13868 4.65218 8.06465 4.65218 7.98743V6.89856H9.34782V7.98743C9.34782 8.06465 9.37531 8.13868 9.42423 8.19328C9.47315 8.24788 9.5395 8.27858 9.60869 8.27858C9.67788 8.27858 9.74423 8.24788 9.79315 8.19328C9.84207 8.13868 9.86956 8.06465 9.86956 7.98743V6.89856H11.6539Z" fill="url(#paint0_linear)" stroke="url(#paint1_linear)" stroke-width="0.3"/>
<defs>
<linearGradient id="paint0_linear" x1="13" y1="0.999989" x2="0.527959" y2="1.31507" gradientUnits="userSpaceOnUse">
<stop stop-color="#FAA6A6"/>
<stop offset="1" stop-color="#F8CEBC"/>
</linearGradient>
<linearGradient id="paint1_linear" x1="13" y1="0.999989" x2="0.527959" y2="1.31507" gradientUnits="userSpaceOnUse">
<stop stop-color="#FAA6A6"/>
<stop offset="1" stop-color="#F8CEBC"/>
</linearGradient>
</defs>
</svg>
