<svg viewBox="0 0 16 23" fill="none" xmlns="http://www.w3.org/2000/svg">
<path d="M8 1C7.1121 1 6.26057 1.37296 5.63274 2.03678C5.0049 2.7006 4.65218 3.6009 4.65218 4.53969V6.87588H2.57045C2.36909 6.86903 2.16845 6.90452 1.98016 6.98029C1.79187 7.05606 1.61969 7.17064 1.4736 7.31732C1.32751 7.464 1.21042 7.63983 1.12912 7.83473C1.04783 8.02963 1.00394 8.23965 1.00002 8.45262V20.2559C0.998026 20.7048 1.16041 21.1371 1.45316 21.4622C1.74591 21.7874 2.1463 21.9801 2.57045 22H13.4296C13.8537 21.9801 14.2541 21.7874 14.5468 21.4622C14.8396 21.1371 15.002 20.7048 15 20.2559V8.45262C14.9961 8.23965 14.9522 8.02963 14.8709 7.83473C14.7896 7.63983 14.6725 7.464 14.5264 7.31732C14.3803 7.17064 14.2081 7.05606 14.0198 6.98029C13.8316 6.90452 13.6309 6.86903 13.4296 6.87588H11.3478V4.53969C11.3478 3.6009 10.9951 2.7006 10.3673 2.03678C9.73943 1.37296 8.8879 1 8 1ZM5.26088 4.53969C5.26088 3.77159 5.54946 3.03494 6.06315 2.49181C6.57683 1.94869 7.27354 1.64358 8 1.64358C8.72646 1.64358 9.42317 1.94869 9.93685 2.49181C10.4505 3.03494 10.7391 3.77159 10.7391 4.53969V6.87588H5.26088V4.53969ZM13.4296 7.51946C13.551 7.51254 13.6725 7.53129 13.7869 7.57469C13.9014 7.61809 14.0065 7.68527 14.0961 7.7722C14.1856 7.85912 14.2579 7.96409 14.3086 8.08095C14.3593 8.1978 14.3874 8.32413 14.3913 8.45262V20.2559C14.3935 20.5343 14.2952 20.8031 14.1166 21.0075C13.9379 21.212 13.6922 21.3368 13.4296 21.3564H2.57045C2.30781 21.3368 2.06212 21.212 1.88344 21.0075C1.70475 20.8031 1.60651 20.5343 1.60871 20.2559V8.45262C1.61259 8.32413 1.6407 8.1978 1.6914 8.08095C1.74209 7.96409 1.81435 7.85912 1.90394 7.7722C1.99352 7.68527 2.09863 7.61809 2.21308 7.57469C2.32753 7.53129 2.44904 7.51254 2.57045 7.51946H4.65218V8.72295C4.65218 8.8083 4.68425 8.89012 4.74132 8.95047C4.7984 9.01082 4.87581 9.04474 4.95653 9.04474C5.03725 9.04474 5.11466 9.01082 5.17174 8.95047C5.22881 8.89012 5.26088 8.8083 5.26088 8.72295V7.51946H10.7391V8.72295C10.7391 8.8083 10.7712 8.89012 10.8283 8.95047C10.8853 9.01082 10.9628 9.04474 11.0435 9.04474C11.1242 9.04474 11.2016 9.01082 11.2587 8.95047C11.3158 8.89012 11.3478 8.8083 11.3478 8.72295V7.51946H13.4296Z" fill="#222222" stroke="#222222" stroke-width="0.3"/>
</svg>
