<svg viewBox="0 0 34 20" fill="none" xmlns="http://www.w3.org/2000/svg">
<path d="M28.1101 7.09029C28.1101 6.59051 27.9116 6.11116 27.5582 5.75776C27.2048 5.40436 26.7255 5.20581 26.2257 5.20581H1.88442C1.38464 5.20581 0.905346 5.40436 0.551949 5.75776C0.198552 6.11116 0 6.59051 0 7.09029V17.897C0 18.3967 0.198552 18.8761 0.551949 19.2295C0.905346 19.5829 1.38464 19.7814 1.88442 19.7814H26.2257C26.7255 19.7814 27.2048 19.5829 27.5582 19.2295C27.9116 18.8761 28.1101 18.3967 28.1101 17.897V7.09029ZM27.069 17.897C27.0697 18.0079 27.0484 18.1179 27.0062 18.2205C26.9641 18.3231 26.902 18.4165 26.8235 18.4949C26.7451 18.5734 26.6518 18.6354 26.5492 18.6775C26.4466 18.7197 26.3366 18.741 26.2257 18.7403H1.88442C1.77348 18.741 1.66351 18.7197 1.56088 18.6775C1.45825 18.6354 1.365 18.5734 1.28656 18.4949C1.20811 18.4165 1.14603 18.3231 1.1039 18.2205C1.06176 18.1179 1.04042 18.0079 1.04112 17.897V7.09029C1.04042 6.97935 1.06176 6.86935 1.1039 6.76672C1.14603 6.6641 1.20811 6.57078 1.28656 6.49234C1.365 6.41389 1.45825 6.35184 1.56088 6.30971C1.66351 6.26757 1.77348 6.24624 1.88442 6.24693H26.2257C26.3366 6.24624 26.4466 6.26757 26.5492 6.30971C26.6518 6.35184 26.7451 6.41389 26.8235 6.49234C26.902 6.57078 26.9641 6.6641 27.0062 6.76672C27.0484 6.86935 27.0697 6.97935 27.069 7.09029V17.897Z" fill="url(#paint0_linear)"/>
<path d="M31.8524 0H6.66785C6.27104 0.0251769 5.89879 0.200729 5.62699 0.490872C5.35518 0.781014 5.20428 1.1639 5.20508 1.56144V4.68431H6.2462V1.56144C6.2462 1.32722 6.4388 1.04096 6.66785 1.04096H31.8524C32.0815 1.04096 32.2741 1.32722 32.2741 1.56144V13.2046C32.2741 13.4388 32.0815 13.5325 31.8524 13.5325H28.6302V14.5734H31.8524C32.0394 14.584 32.2266 14.5566 32.4027 14.4927C32.5788 14.4289 32.7401 14.33 32.8768 14.202C33.0136 14.074 33.1229 13.9197 33.1982 13.7482C33.2736 13.5768 33.3134 13.3919 33.3152 13.2046V1.56144C33.316 1.1639 33.1651 0.781014 32.8933 0.490872C32.6215 0.200729 32.2492 0.0251769 31.8524 0Z" fill="url(#paint1_linear)"/>
<path d="M4.68482 17.2724V17.6992H23.9455V17.2724C23.9181 17.0565 23.9388 16.8373 24.0062 16.6304C24.0736 16.4235 24.186 16.2341 24.3353 16.0758C24.4846 15.9175 24.6672 15.7943 24.8698 15.715C25.0724 15.6357 25.2901 15.6022 25.5071 15.617H26.0277V9.37032H25.5071C24.794 9.37032 23.9455 9.19329 23.9455 7.90231V7.28809H4.68482V7.90231C4.68482 8.71438 4.43495 9.37032 2.60259 9.37032H2.08203V15.617H2.60259C4.43495 15.617 4.68482 16.4603 4.68482 17.2724ZM3.12315 10.5051C4.92948 10.3541 5.54374 9.39116 5.68949 8.35004H22.9408C23.1282 9.91172 24.0235 10.3333 24.9866 10.4843V14.7321C24.4876 14.8089 24.0241 15.0367 23.6584 15.3847C23.2927 15.7327 23.0422 16.1844 22.9408 16.679H5.68949C5.54374 15.6379 4.92948 14.8622 3.12315 14.7112V10.5051Z" fill="url(#paint2_linear)"/>
<path d="M13.5345 15.6171C14.1522 15.6171 14.7561 15.4338 15.2697 15.0906C15.7834 14.7474 16.1837 14.2597 16.4201 13.689C16.6565 13.1182 16.7183 12.4903 16.5978 11.8844C16.4773 11.2785 16.1798 10.7219 15.743 10.2851C15.3062 9.84827 14.7497 9.55091 14.1438 9.43039C13.5379 9.30988 12.91 9.37167 12.3392 9.60807C11.7685 9.84447 11.2807 10.2449 10.9375 10.7585C10.5943 11.2721 10.4111 11.8759 10.4111 12.4937C10.4111 13.322 10.7402 14.1165 11.326 14.7023C11.9117 15.288 12.7061 15.6171 13.5345 15.6171ZM13.5345 10.4114C13.9463 10.4114 14.3489 10.5335 14.6913 10.7623C15.0337 10.9911 15.3006 11.3163 15.4582 11.6968C15.6158 12.0773 15.6571 12.4961 15.5767 12.9C15.4964 13.3039 15.298 13.6749 15.0068 13.9661C14.7156 14.2574 14.3446 14.4555 13.9407 14.5359C13.5368 14.6162 13.1181 14.575 12.7376 14.4174C12.3572 14.2598 12.032 13.993 11.8032 13.6506C11.5744 13.3082 11.4522 12.9055 11.4522 12.4937C11.4522 11.9414 11.6716 11.4118 12.0621 11.0213C12.4526 10.6308 12.9822 10.4114 13.5345 10.4114Z" fill="url(#paint3_linear)"/>
<defs>
<linearGradient id="paint0_linear" x1="28.1101" y1="5.2058" x2="-0.951461" y2="7.4477" gradientUnits="userSpaceOnUse">
<stop stop-color="#FAA6A6"/>
<stop offset="1" stop-color="#F8CEBC"/>
</linearGradient>
<linearGradient id="paint1_linear" x1="33.3152" y1="-8.14476e-06" x2="4.25362" y2="2.24189" gradientUnits="userSpaceOnUse">
<stop stop-color="#FAA6A6"/>
<stop offset="1" stop-color="#F8CEBC"/>
</linearGradient>
<linearGradient id="paint2_linear" x1="26.0277" y1="7.28808" x2="1.33322" y2="9.55997" gradientUnits="userSpaceOnUse">
<stop stop-color="#FAA6A6"/>
<stop offset="1" stop-color="#F8CEBC"/>
</linearGradient>
<linearGradient id="paint3_linear" x1="16.6578" y1="9.37036" x2="10.1716" y2="9.62981" gradientUnits="userSpaceOnUse">
<stop stop-color="#FAA6A6"/>
<stop offset="1" stop-color="#F8CEBC"/>
</linearGradient>
</defs>
</svg>
