<svg viewBox="0 0 44 44" fill="none" xmlns="http://www.w3.org/2000/svg">
<path d="M15.3293 23.2271C15.1997 23.1105 15.1216 22.9471 15.1124 22.773C15.1032 22.5988 15.1635 22.4282 15.2801 22.2985C15.3967 22.1688 15.5601 22.0908 15.7342 22.0816C15.9084 22.0723 16.079 22.1327 16.2087 22.2493L20.2906 25.9111L27.7259 16.7237C27.8355 16.5879 27.9946 16.5013 28.1681 16.4829C28.3417 16.4644 28.5154 16.5156 28.6512 16.6252C28.7869 16.7349 28.8736 16.894 28.892 17.0675C28.9105 17.241 28.8593 17.4148 28.7496 17.5506L20.8747 27.3024C20.8501 27.3272 20.8212 27.3473 20.7893 27.3615C20.6758 27.465 20.5294 27.5254 20.3759 27.5321C20.2256 27.5328 20.0797 27.4817 19.9625 27.3877C19.9392 27.3643 19.9193 27.3378 19.9034 27.309L15.3293 23.2271ZM7.15247 36.8508C3.71667 33.4158 1.57819 28.8958 1.1014 24.0608C0.624613 19.2258 1.83902 14.3751 4.53769 10.3352C7.23637 6.29523 11.2523 3.31599 15.9014 1.90505C20.5504 0.494121 25.5448 0.738819 30.0337 2.59743C34.5225 4.45604 38.228 7.81357 40.5189 12.098C42.8098 16.3824 43.5442 21.3285 42.5971 26.0937C41.65 30.8589 39.0799 35.1483 35.3247 38.231C31.5696 41.3137 26.8618 42.9991 22.0034 42.9999C19.2459 43.0094 16.5138 42.4726 13.9649 41.4206C11.4159 40.3686 9.10057 38.8222 7.15247 36.8705V36.8508ZM2.31593 21.9999C2.30888 26.5575 3.88327 30.9763 6.77056 34.5026C9.65785 38.0289 13.6792 40.4444 18.1485 41.3367C22.6179 42.2291 27.2584 41.5432 31.2785 39.396C35.2986 37.2489 38.4492 33.7735 40.1929 29.5627C41.9366 25.3519 42.1654 20.6666 40.8402 16.3059C39.515 11.9453 36.718 8.17943 32.9262 5.65084C29.1344 3.12226 24.5827 1.98753 20.0477 2.44026C15.5127 2.89299 11.2752 4.90513 8.0581 8.1334C6.23207 9.95464 4.78458 12.1193 3.79905 14.5026C2.81353 16.8859 2.30946 19.4406 2.31593 22.0196V21.9999Z" fill="url(#paint0_linear)" stroke="url(#paint1_linear)" stroke-width="0.3"/>
<defs>
<linearGradient id="paint0_linear" x1="43" y1="0.999977" x2="-0.610226" y2="2.74439" gradientUnits="userSpaceOnUse">
<stop stop-color="#FAA6A6"/>
<stop offset="1" stop-color="#F8CEBC"/>
</linearGradient>
<linearGradient id="paint1_linear" x1="43" y1="0.999977" x2="-0.610226" y2="2.74439" gradientUnits="userSpaceOnUse">
<stop stop-color="#FAA6A6"/>
<stop offset="1" stop-color="#F8CEBC"/>
</linearGradient>
</defs>
</svg>
