<svg viewBox="0 0 30 30" fill="none" xmlns="http://www.w3.org/2000/svg">
    <path d="M19.0048 19.5515L14.7438 15.1922V5.62502C14.7438 5.5007 14.7932 5.3815 14.8811 5.29359C14.969 5.20569 15.0883 5.15627 15.2126 5.15627C15.3369 5.15627 15.4561 5.20569 15.544 5.29359C15.6319 5.3815 15.6813 5.5007 15.6813 5.62502V14.8079L19.6657 18.886C19.7142 18.9641 19.7413 19.0535 19.7444 19.1454C19.7474 19.2373 19.7263 19.3284 19.6831 19.4095C19.6399 19.4907 19.5762 19.5591 19.4983 19.6079C19.4204 19.6566 19.331 19.6841 19.2392 19.6875C19.1173 19.6875 19.0938 19.6406 19.0048 19.5515ZM1.89542 14.5313C1.7711 14.5313 1.65185 14.5807 1.56395 14.6686C1.47604 14.7565 1.42667 14.8757 1.42667 15C1.42667 15.1243 1.47604 15.2435 1.56395 15.3314C1.65185 15.4193 1.7711 15.4688 1.89542 15.4688H3.77042C3.89474 15.4688 4.01396 15.4193 4.10187 15.3314C4.18978 15.2435 4.23917 15.1243 4.23917 15C4.23917 14.8757 4.18978 14.7565 4.10187 14.6686C4.01396 14.5807 3.89474 14.5313 3.77042 14.5313H1.89542ZM28.1454 15.4688C28.2697 15.4688 28.3889 15.4193 28.4768 15.3314C28.5648 15.2435 28.6141 15.1243 28.6141 15C28.6141 14.8757 28.5648 14.7565 28.4768 14.6686C28.3889 14.5807 28.2697 14.5313 28.1454 14.5313H26.2704C26.1461 14.5313 26.0268 14.5807 25.9389 14.6686C25.851 14.7565 25.8016 14.8757 25.8016 15C25.8016 15.1243 25.851 15.2435 25.9389 15.3314C26.0268 15.4193 26.1461 15.4688 26.2704 15.4688H28.1454ZM14.7438 26.25V28.125C14.7438 28.2493 14.7932 28.3685 14.8811 28.4564C14.969 28.5443 15.0883 28.5937 15.2126 28.5937C15.3369 28.5937 15.4561 28.5443 15.544 28.4564C15.6319 28.3685 15.6813 28.2493 15.6813 28.125V26.25C15.6813 26.1257 15.6319 26.0065 15.544 25.9186C15.4561 25.8307 15.3369 25.7812 15.2126 25.7812C15.0883 25.7812 14.969 25.8307 14.8811 25.9186C14.7932 26.0065 14.7438 26.1257 14.7438 26.25ZM15.2126 4.21877C15.3369 4.21877 15.4561 4.16935 15.544 4.08144C15.6319 3.99353 15.6813 3.87434 15.6813 3.75002V1.87502C15.6813 1.7507 15.6319 1.63151 15.544 1.5436C15.4561 1.45569 15.3369 1.40627 15.2126 1.40627C15.0883 1.40627 14.969 1.45569 14.8811 1.5436C14.7932 1.63151 14.7438 1.7507 14.7438 1.87502V3.75002C14.7438 3.87434 14.7932 3.99353 14.8811 4.08144C14.969 4.16935 15.0883 4.21877 15.2126 4.21877ZM25.1688 4.21877H29.0829C29.2072 4.21877 29.3264 4.16935 29.4143 4.08144C29.5023 3.99353 29.5516 3.87434 29.5516 3.75002C29.5516 3.6257 29.5023 3.5065 29.4143 3.4186C29.3264 3.33069 29.2072 3.28127 29.0829 3.28127H23.9267L23.6501 3.75002V8.90626C23.6501 9.03058 23.6995 9.14978 23.7874 9.23768C23.8753 9.32559 23.9945 9.37501 24.1188 9.37501C24.2431 9.37501 24.3624 9.32559 24.4503 9.23768C24.5382 9.14978 24.5876 9.03058 24.5876 8.90626V4.76717L26.5891 6.86716C28.2649 9.24609 29.1533 12.0902 29.1298 15C29.1297 17.7795 28.306 20.4967 26.7627 22.8083C25.2193 25.1199 23.0256 26.9224 20.4585 27.988C17.8913 29.0536 15.066 29.3345 12.3393 28.7953C9.61259 28.2561 7.10685 26.921 5.1385 24.9585C3.17016 22.9961 1.82752 20.4943 1.28016 17.7692C0.732802 15.0442 1.00528 12.218 2.06316 9.64772C3.12106 7.07742 4.91689 4.87823 7.2239 3.32796C9.53091 1.77769 12.2456 0.945859 15.0251 0.93752C15.1494 0.93752 15.2686 0.888099 15.3566 0.800191C15.4445 0.712284 15.4938 0.593091 15.4938 0.468771C15.4938 0.34445 15.4445 0.225258 15.3566 0.13735C15.2686 0.0494424 15.1494 2.09851e-05 15.0251 2.09851e-05C11.6604 -0.00560515 8.39155 1.1202 5.74387 3.19647C3.09619 5.27274 1.22345 8.1789 0.426662 11.4479C-0.370124 14.7169 -0.0446832 18.1588 1.35066 21.2206C2.746 24.2823 5.13022 26.7859 8.12012 28.3292C11.11 29.8724 14.5319 30.3656 17.8359 29.7295C21.1399 29.0933 24.1341 27.3647 26.3373 24.8217C28.5404 22.2786 29.8245 19.0686 29.9833 15.7077C30.142 12.3468 29.1662 9.03004 27.2126 6.2906L25.1688 4.21877Z" fill="url(#paint0_linear)"/>
    <defs>
    <linearGradient id="paint0_linear" x1="30" y1="-1.67638e-05" x2="-1.15016" y2="1.24599" gradientUnits="userSpaceOnUse">
    <stop stop-color="#FAA6A6"/>
    <stop offset="1" stop-color="#F8CEBC"/>
    </linearGradient>
    </defs>
    </svg>
