<svg viewBox="0 0 16 16" fill="none" xmlns="http://www.w3.org/2000/svg">
<path d="M8.00407 1H7.94407C6.57101 1.01184 5.23172 1.42698 4.09269 2.19382C2.95366 2.96066 2.06514 4.04537 1.53759 5.3131C1.01005 6.58082 0.866741 7.97563 1.1255 9.32414C1.38425 10.6726 2.03365 11.9154 2.99296 12.8978C3.62714 13.5557 4.38616 14.0804 5.22562 14.4414C6.06508 14.8024 6.96811 14.9923 7.88185 15H7.93963C9.77719 14.9849 11.5354 14.249 12.8358 12.9507C14.1363 11.6523 14.875 9.89532 14.893 8.05778C14.9241 4.22667 11.833 1.22222 8.00407 1ZM7.9463 14.5556H7.89296C7.03874 14.5506 6.19396 14.3764 5.40745 14.0431C4.62095 13.7097 3.90831 13.2238 3.31074 12.6133C2.41216 11.6916 1.80379 10.5264 1.56104 9.26218C1.31829 7.99798 1.45182 6.69034 1.94509 5.5013C2.43835 4.31226 3.26967 3.2941 4.33601 2.57297C5.40236 1.85184 6.65687 1.45946 7.94407 1.44444H8.00407C11.5885 1.66667 14.4819 4.46889 14.4485 8.05333C14.4317 9.77262 13.7413 11.4168 12.5255 12.6325C11.3097 13.8483 9.66559 14.5388 7.9463 14.5556Z" fill="url(#paint0_linear)" stroke="url(#paint1_linear)" stroke-width="0.3"/>
<path d="M8.16859 7.96224L8.21081 3.01557C8.21148 2.95496 8.18876 2.89642 8.14737 2.85214C8.10598 2.80785 8.04911 2.78124 7.98859 2.77781C7.92965 2.77781 7.87313 2.80121 7.83146 2.84289C7.78978 2.88456 7.76637 2.94109 7.76637 3.00003L7.72415 8.03337C7.72368 8.06299 7.72914 8.0924 7.74021 8.11988C7.75128 8.14735 7.76773 8.17234 7.78859 8.19336L10.5286 11C10.5492 11.021 10.5737 11.0377 10.6008 11.0492C10.6279 11.0606 10.657 11.0666 10.6864 11.0667C10.7301 11.0665 10.7727 11.0535 10.809 11.0292C10.8453 11.0049 10.8737 10.9704 10.8905 10.9301C10.9073 10.8898 10.9119 10.8454 10.9037 10.8025C10.8954 10.7596 10.8747 10.7201 10.8441 10.6889L8.16859 7.96224Z" fill="url(#paint2_linear)" stroke="url(#paint3_linear)" stroke-width="0.3"/>
<defs>
<linearGradient id="paint0_linear" x1="14.8932" y1="0.999992" x2="0.467003" y2="1.57264" gradientUnits="userSpaceOnUse">
<stop stop-color="#FAA6A6"/>
<stop offset="1" stop-color="#F8CEBC"/>
</linearGradient>
<linearGradient id="paint1_linear" x1="14.8932" y1="0.999992" x2="0.467003" y2="1.57264" gradientUnits="userSpaceOnUse">
<stop stop-color="#FAA6A6"/>
<stop offset="1" stop-color="#F8CEBC"/>
</linearGradient>
<linearGradient id="paint2_linear" x1="10.9077" y1="2.7778" x2="7.59756" y2="2.82866" gradientUnits="userSpaceOnUse">
<stop stop-color="#FAA6A6"/>
<stop offset="1" stop-color="#F8CEBC"/>
</linearGradient>
<linearGradient id="paint3_linear" x1="10.9077" y1="2.7778" x2="7.59756" y2="2.82866" gradientUnits="userSpaceOnUse">
<stop stop-color="#FAA6A6"/>
<stop offset="1" stop-color="#F8CEBC"/>
</linearGradient>
</defs>
</svg>
