<svg preserveApectRatio="xMidYMid meet" viewBox="0 0 26 38" fill="none" xmlns="http://www.w3.org/2000/svg">
<path d="M25.7467 19.9536C25.6173 18.032 25.4834 16.0452 25.4834 14.3431C25.4834 5.91988 23.5463 4.74228 23.3256 4.63578L18.5463 2.72333C17.6376 1.3296 16.1127 0.245925 15.8702 0.0786959C15.7927 0.0253492 15.7054 0.000189173 15.6191 0.000283759V0H15.6161C15.6156 0 15.6152 0 15.6147 0H10.3806C10.2913 0 10.2039 0.0273355 10.1295 0.0786959C9.88694 0.245925 8.36216 1.3296 7.45336 2.72343L2.67439 4.63578C2.45349 4.74228 0.516442 5.91988 0.516442 14.3431C0.516442 16.0452 0.382536 18.032 0.253176 19.9536C0.122997 21.8864 0 23.7119 0 25.2903C0 28.4353 0.255994 37.4462 0.258539 37.5369C0.262175 37.6641 0.314901 37.7843 0.404808 37.8706C0.488988 37.9513 0.598985 37.9957 0.712891 37.9957C0.720709 37.9957 4.69616 37.7817 4.69616 37.7817C4.9377 37.7686 5.12715 37.5611 5.12715 37.3094V36.8494C6.4543 37.2614 8.3088 37.7791 9.73849 37.9514C9.90021 37.9709 10.0538 37.98 10.1998 37.98C11.7894 37.98 12.4781 36.8981 12.6226 36.2741C12.6249 36.2642 13 34.0278 13 34.0278L13.3711 36.2427C13.4783 36.8958 14.0963 38 15.6675 38C15.857 38 16.0605 37.9839 16.2785 37.9491C17.6959 37.7224 19.5482 37.2128 20.873 36.8185V37.3094C20.873 37.5611 21.0625 37.7686 21.304 37.7817C21.304 37.7817 25.2795 37.9957 25.2873 37.9957C25.4012 37.9957 25.5112 37.9512 25.5954 37.8706C25.6853 37.7843 25.738 37.664 25.7416 37.5369C25.7442 37.4462 26 28.4353 26 25.2903C25.9999 23.7119 25.877 21.8864 25.7467 19.9536ZM16.0644 7.43279C16.6068 4.67427 16.7295 2.98316 16.6402 1.91717C17.3907 2.63338 18.1517 3.55929 18.2938 4.41255L17.0109 4.69291C16.8341 4.7315 16.696 4.87546 16.6593 5.05952C16.6226 5.24359 16.6941 5.43276 16.8416 5.54163L18.2598 6.58728C17.9167 8.15203 16.2346 15.3977 13.6957 19.5164C14.0064 17.9397 15.6672 9.45363 16.0644 7.43279ZM10.5712 0.945864H15.4288C15.5689 1.10345 15.7478 1.50411 15.7569 2.51855H10.2434C10.2527 1.50515 10.4311 1.10345 10.5712 0.945864ZM8.12926 3.38071C8.12998 3.37957 8.13053 3.37853 8.13116 3.3774C8.45325 2.85651 8.90814 2.34991 9.3595 1.91859C9.27041 2.98467 9.39322 4.67531 9.9353 7.43279C10.3363 9.47245 11.9966 17.9553 12.3048 19.5191C9.76712 15.4036 8.08362 8.15278 7.74008 6.58719L9.15832 5.54153C9.30577 5.43276 9.37732 5.24359 9.34059 5.05943C9.30386 4.87527 9.16578 4.7314 8.98896 4.69281L7.70617 4.41246C7.76281 4.07441 7.91699 3.72453 8.12926 3.38071ZM4.21799 36.8603L1.15361 37.0255C1.10043 35.1058 0.908978 28.0006 0.908978 25.2903C0.908978 23.745 1.03088 21.9354 1.15997 20.0197C1.2906 18.082 1.42551 16.0782 1.42551 14.343C1.42551 9.18557 2.15576 6.9697 2.64603 6.06327C2.64603 6.06327 5.09288 15.4998 5.37805 17.8003C3.88772 21.1721 4.47216 27.3172 4.56271 28.1728C3.63482 31.815 3.14029 35.7411 3.13483 35.7843C3.10711 36.0074 3.2341 36.2198 3.43855 36.2925C3.47982 36.3072 3.76945 36.4097 4.21808 36.5581V36.8603H4.21799ZM5.66986 19.939C5.95049 22.6755 5.68704 24.1763 5.30623 25.5514C5.25469 23.9032 5.29196 21.7499 5.66986 19.939ZM12.34 32.4596L11.736 36.0636C11.7025 36.1899 11.3845 37.198 9.84294 37.0119C7.91944 36.7801 5.07769 35.8556 4.08772 35.52C4.24817 34.3566 4.78043 30.7726 5.64359 27.6524L9.2015 27.3598C9.45168 27.3392 9.63858 27.1114 9.61876 26.8511C9.59904 26.5907 9.37995 26.3961 9.12978 26.4169L5.9264 26.6804C5.92804 26.6752 8.10835 22.9756 5.19542 12.4929L3.40783 5.35463L6.8722 3.96913C6.79747 4.24863 6.76174 4.53287 6.77683 4.81804C6.78811 5.03171 6.93592 5.21077 7.13728 5.25475L7.78354 5.39606L6.96783 5.99735C6.81974 6.1065 6.7482 6.297 6.78602 6.48163C6.87856 6.93432 9.07523 17.5206 12.6987 21.6211C12.752 21.9829 12.7951 22.3514 12.8295 22.7233C12.6041 22.5412 12.3222 22.4316 12.0154 22.4316C11.2815 22.4316 10.6843 23.053 10.6843 23.8169C10.6843 24.5806 11.2814 25.2021 12.0154 25.2021C12.3738 25.2021 12.6991 25.0533 12.9385 24.8128C13.0011 28.7203 12.3497 32.4056 12.34 32.4596ZM12.4378 23.8169C12.4378 24.0591 12.2483 24.2562 12.0155 24.2562C11.7827 24.2562 11.5934 24.0591 11.5934 23.8169C11.5934 23.5746 11.7827 23.3775 12.0155 23.3775C12.2483 23.3775 12.4378 23.5746 12.4378 23.8169ZM13 18.3361C12.7257 16.9402 11.227 9.28309 10.8259 7.24324C10.502 5.59611 10.3391 4.37292 10.2753 3.46442H15.7243C15.6607 4.37292 15.4975 5.59611 15.1737 7.24324C14.7765 9.26427 13.2772 16.9253 13 18.3361ZM16.1402 37.0141C14.5376 37.2707 14.2893 36.2011 14.2669 36.082L13.6588 32.4537C13.6579 32.4486 13.5686 31.9486 13.4599 31.1362C13.7448 28.9783 14.1319 24.8656 13.571 21.3015C17.034 16.9973 19.1254 6.91455 19.2139 6.48172C19.2516 6.29709 19.1802 6.10659 19.0321 5.99744L18.2164 5.39616L18.8626 5.25484C19.064 5.21086 19.2118 5.03171 19.2231 4.81804C19.2382 4.53287 19.2023 4.24873 19.1276 3.96922L22.5921 5.35473L20.8036 12.4964C17.9275 22.7448 20.0719 26.6752 20.0734 26.6804L16.87 26.4169C16.6214 26.396 16.401 26.5907 16.3811 26.8512C16.3613 27.1115 16.5482 27.3393 16.7985 27.3599L20.3563 27.6525C21.2176 30.7655 21.7494 34.3404 21.911 35.5122C20.9075 35.8308 18.06 36.7071 16.1402 37.0141ZM20.33 19.9387C20.7073 21.7487 20.7448 23.902 20.6935 25.5502C20.3128 24.1752 20.0494 22.6744 20.33 19.9387ZM24.8464 37.0255L21.782 36.8603V36.5416C22.2249 36.4034 22.5109 36.3094 22.5519 36.2958C22.7615 36.2267 22.8935 36.0112 22.8653 35.7843C22.8599 35.7411 22.3653 31.8149 21.4374 28.1727C21.5281 27.3166 22.1124 21.1717 20.6219 17.8001C21.6978 12.104 23.3541 6.06337 23.3541 6.06337C23.8442 6.96998 24.5744 9.18595 24.5744 14.343C24.5744 16.0782 24.7094 18.0819 24.8399 20.0197C24.969 21.9354 25.0909 23.745 25.0909 25.2903C25.0908 28.0005 24.8996 35.1058 24.8464 37.0255Z" fill="url(#paint0_linear)"/>
<defs>
<linearGradient id="paint0_linear" x1="26" y1="-2.12342e-05" x2="-1.01976" y2="0.739467" gradientUnits="userSpaceOnUse">
<stop stop-color="#FAA6A6"/>
<stop offset="1" stop-color="#F8CEBC"/>
</linearGradient>
</defs>
</svg>
