<svg viewBox="0 0 17 16" fill="none" xmlns="http://www.w3.org/2000/svg">
<path d="M14.805 1H2.19501C1.87807 1 1.57411 1.12332 1.35001 1.34284C1.1259 1.56236 1 1.8601 1 2.17054V10.6043C1 10.9148 1.1259 11.2125 1.35001 11.432C1.57411 11.6516 1.87807 11.7749 2.19501 11.7749H4.55499C4.73912 11.7755 4.91552 11.8475 5.04572 11.975C5.17591 12.1025 5.24934 12.2753 5.25 12.4557V15L8.89751 11.939C9.02338 11.8329 9.18397 11.7747 9.35001 11.7749H14.805C15.1219 11.7749 15.4259 11.6516 15.65 11.432C15.8741 11.2125 16 10.9148 16 10.6043V2.17054C16 1.8601 15.8741 1.56236 15.65 1.34284C15.4259 1.12332 15.1219 1 14.805 1ZM15.5 10.6043C15.4993 10.7847 15.4259 10.9575 15.2957 11.085C15.1655 11.2125 14.9891 11.2845 14.805 11.2851H9.35001C9.06484 11.2851 8.78906 11.385 8.57249 11.5667L5.75 13.9372V12.4557C5.75 12.1452 5.6241 11.8475 5.39999 11.628C5.17589 11.4084 4.87193 11.2851 4.55499 11.2851H2.19501C2.01088 11.2845 1.83448 11.2125 1.70428 11.085C1.57409 10.9575 1.50066 10.7847 1.5 10.6043V2.17054C1.50066 1.99019 1.57409 1.81741 1.70428 1.68988C1.83448 1.56235 2.01088 1.49041 2.19501 1.48977H14.805C14.9891 1.49041 15.1655 1.56235 15.2957 1.68988C15.4259 1.81741 15.4993 1.99019 15.5 2.17054V10.6043Z" fill="url(#paint0_linear)" stroke="url(#paint1_linear)" stroke-width="0.3"/>
<path d="M4.5 5C4.20333 5 3.91331 5.08797 3.66664 5.25279C3.41997 5.41761 3.22771 5.65188 3.11418 5.92597C3.00065 6.20006 2.97095 6.50166 3.02882 6.79263C3.0867 7.08361 3.22957 7.35088 3.43935 7.56066C3.64912 7.77044 3.91639 7.9133 4.20737 7.97118C4.49834 8.02906 4.79993 7.99935 5.07402 7.88582C5.34811 7.77229 5.58239 7.58003 5.74721 7.33336C5.91203 7.08669 6 6.79667 6 6.5C6 6.10218 5.84196 5.72064 5.56065 5.43934C5.27935 5.15803 4.89782 5 4.5 5ZM4.5 7.5C4.30222 7.5 4.10888 7.44135 3.94443 7.33147C3.77998 7.22159 3.65181 7.06541 3.57613 6.88268C3.50044 6.69996 3.48062 6.49889 3.51921 6.30491C3.5578 6.11093 3.65304 5.93275 3.79289 5.79289C3.93274 5.65304 4.11093 5.5578 4.30492 5.51922C4.4989 5.48063 4.69996 5.50043 4.88269 5.57612C5.06542 5.65181 5.22159 5.77998 5.33147 5.94443C5.44135 6.10888 5.5 6.30222 5.5 6.5C5.5 6.76522 5.39464 7.01957 5.20711 7.20711C5.01957 7.39464 4.76522 7.5 4.5 7.5Z" fill="url(#paint2_linear)" stroke="url(#paint3_linear)" stroke-width="0.3"/>
<path d="M8.5 5C8.20333 5 7.91331 5.08797 7.66664 5.25279C7.41997 5.41761 7.22771 5.65188 7.11418 5.92597C7.00065 6.20006 6.97095 6.50166 7.02882 6.79263C7.0867 7.08361 7.22957 7.35088 7.43935 7.56066C7.64912 7.77044 7.91639 7.9133 8.20737 7.97118C8.49834 8.02906 8.79993 7.99935 9.07402 7.88582C9.34811 7.77229 9.58239 7.58003 9.74721 7.33336C9.91203 7.08669 10 6.79667 10 6.5C10 6.10218 9.84197 5.72064 9.56067 5.43934C9.27936 5.15803 8.89782 5 8.5 5ZM8.5 7.5C8.30222 7.5 8.10888 7.44135 7.94443 7.33147C7.77998 7.22159 7.65181 7.06541 7.57613 6.88268C7.50044 6.69996 7.48062 6.49889 7.51921 6.30491C7.5578 6.11093 7.65304 5.93275 7.79289 5.79289C7.93274 5.65304 8.11093 5.5578 8.30492 5.51922C8.4989 5.48063 8.69996 5.50043 8.88269 5.57612C9.06542 5.65181 9.22159 5.77998 9.33147 5.94443C9.44135 6.10888 9.5 6.30222 9.5 6.5C9.5 6.76522 9.39464 7.01957 9.20711 7.20711C9.01957 7.39464 8.76522 7.5 8.5 7.5Z" fill="url(#paint4_linear)" stroke="url(#paint5_linear)" stroke-width="0.3"/>
<path d="M12.5 5C12.2033 5 11.9133 5.08797 11.6667 5.25279C11.42 5.41761 11.2277 5.65188 11.1142 5.92597C11.0006 6.20006 10.9709 6.50166 11.0288 6.79263C11.0867 7.08361 11.2296 7.35088 11.4393 7.56066C11.6491 7.77044 11.9164 7.9133 12.2074 7.97118C12.4983 8.02906 12.7999 7.99935 13.074 7.88582C13.3481 7.77229 13.5824 7.58003 13.7472 7.33336C13.912 7.08669 14 6.79667 14 6.5C14 6.10218 13.842 5.72064 13.5607 5.43934C13.2794 5.15803 12.8978 5 12.5 5ZM12.5 7.5C12.3022 7.5 12.1089 7.44135 11.9444 7.33147C11.78 7.22159 11.6518 7.06541 11.5761 6.88268C11.5004 6.69996 11.4806 6.49889 11.5192 6.30491C11.5578 6.11093 11.6531 5.93275 11.7929 5.79289C11.9328 5.65304 12.1109 5.5578 12.3049 5.51922C12.4989 5.48063 12.7 5.50043 12.8827 5.57612C13.0654 5.65181 13.2216 5.77998 13.3315 5.94443C13.4414 6.10888 13.5 6.30222 13.5 6.5C13.5 6.76522 13.3946 7.01957 13.2071 7.20711C13.0196 7.39464 12.7652 7.5 12.5 7.5Z" fill="url(#paint6_linear)" stroke="url(#paint7_linear)" stroke-width="0.3"/>
<defs>
<linearGradient id="paint0_linear" x1="16" y1="0.999992" x2="0.4286" y2="1.66734" gradientUnits="userSpaceOnUse">
<stop stop-color="#FAA6A6"/>
<stop offset="1" stop-color="#F8CEBC"/>
</linearGradient>
<linearGradient id="paint1_linear" x1="16" y1="0.999992" x2="0.4286" y2="1.66734" gradientUnits="userSpaceOnUse">
<stop stop-color="#FAA6A6"/>
<stop offset="1" stop-color="#F8CEBC"/>
</linearGradient>
<linearGradient id="paint2_linear" x1="6" y1="5" x2="2.88498" y2="5.1246" gradientUnits="userSpaceOnUse">
<stop stop-color="#FAA6A6"/>
<stop offset="1" stop-color="#F8CEBC"/>
</linearGradient>
<linearGradient id="paint3_linear" x1="6" y1="5" x2="2.88498" y2="5.1246" gradientUnits="userSpaceOnUse">
<stop stop-color="#FAA6A6"/>
<stop offset="1" stop-color="#F8CEBC"/>
</linearGradient>
<linearGradient id="paint4_linear" x1="10" y1="5" x2="6.88498" y2="5.1246" gradientUnits="userSpaceOnUse">
<stop stop-color="#FAA6A6"/>
<stop offset="1" stop-color="#F8CEBC"/>
</linearGradient>
<linearGradient id="paint5_linear" x1="10" y1="5" x2="6.88498" y2="5.1246" gradientUnits="userSpaceOnUse">
<stop stop-color="#FAA6A6"/>
<stop offset="1" stop-color="#F8CEBC"/>
</linearGradient>
<linearGradient id="paint6_linear" x1="14" y1="5" x2="10.885" y2="5.1246" gradientUnits="userSpaceOnUse">
<stop stop-color="#FAA6A6"/>
<stop offset="1" stop-color="#F8CEBC"/>
</linearGradient>
<linearGradient id="paint7_linear" x1="14" y1="5" x2="10.885" y2="5.1246" gradientUnits="userSpaceOnUse">
<stop stop-color="#FAA6A6"/>
<stop offset="1" stop-color="#F8CEBC"/>
</linearGradient>
</defs>
</svg>
