<svg viewBox="0 0 10 11" fill="none" xmlns="http://www.w3.org/2000/svg">
<path fill-rule="evenodd" clip-rule="evenodd" d="M4.21375 0.671938C4.06343 0.510054 4.07281 0.256961 4.23469 0.10664C4.39657 -0.0436809 4.64967 -0.0343071 4.79999 0.127577L9.17329 4.83728L9.42603 5.10946L9.17329 5.38164L4.79999 10.0914C4.64967 10.2532 4.39657 10.2626 4.23469 10.1123C4.07281 9.96197 4.06343 9.70887 4.21375 9.54699L8.33431 5.10946L4.21375 0.671938ZM0.132698 0.671938C-0.0176229 0.510054 -0.00824928 0.256961 0.153635 0.10664C0.315519 -0.0436809 0.568611 -0.0343071 0.718933 0.127577L5.09223 4.83728L5.34497 5.10946L5.09223 5.38164L0.718933 10.0914C0.568611 10.2532 0.315519 10.2626 0.153635 10.1123C-0.00824928 9.96197 -0.0176229 9.70887 0.132698 9.54699L4.25326 5.10946L0.132698 0.671938Z" fill="#222222"/>
</svg>
