<svg viewBox="0 0 13 16" fill="none" xmlns="http://www.w3.org/2000/svg">
<path d="M11.7678 12.8039C11.1293 11.9255 10.1715 11.5137 8.80739 11.5137C8.37203 11.5137 7.79156 11.1843 7.79156 10.8275V9.64706C9.44591 9.31765 10.6649 8.30196 11.1583 7.39608C11.1873 7.34118 11.1873 7.28627 11.1873 7.23137C11.1873 7.17647 11.1583 7.12157 11.1293 7.09412L9.62005 5.3098C9.62005 4.54118 9.62005 3.52549 9.24274 2.64706C8.77836 1.54902 7.87863 1 6.54354 1C5.20844 1 4.30871 1.54902 3.84433 2.61961C3.49604 3.49804 3.46702 4.51373 3.46702 5.28235L1.95778 7.06667C1.92876 7.09412 1.89974 7.14902 1.89974 7.20392C1.89974 7.25882 1.89974 7.31373 1.92876 7.36863C2.42216 8.27451 3.55409 9.23529 5.1504 9.59216V10.8C5.1504 11.1569 4.62797 11.4863 4.22164 11.4863C2.8285 11.4863 1.89974 11.898 1.23219 12.749C1.23219 12.749 1.05805 12.9686 1 13.298C2.1029 14.0392 3.35092 14.5608 4.68602 14.8353C6.51451 15.1647 8.40106 15 10.1135 14.3412C10.781 14.0667 11.4195 13.7373 12 13.3255C11.9129 13.0235 11.7678 12.8039 11.7678 12.8039ZM2.53826 7.28627L3.96042 5.55686C3.98945 5.50196 4.01847 5.44706 3.98945 5.39216V5.3098C3.98945 4.59608 4.01847 3.60784 4.33773 2.83922C4.71504 1.96078 5.44063 1.54902 6.51451 1.54902C7.58839 1.54902 8.28496 1.96078 8.63325 2.83922C8.95251 3.60784 8.92348 4.59608 8.92348 5.3098V5.39216C8.92348 5.44706 8.98153 5.52941 9.01055 5.55686L10.4908 7.28627C9.96834 8.1098 8.54617 9.23529 6.48549 9.23529C4.48285 9.20784 3.06069 8.1098 2.53826 7.28627ZM6.48549 14.451C4.77309 14.451 3.11873 13.9569 1.69657 13.0784H1.72559C2.27704 12.3647 3.03166 12.0627 4.22164 12.0627C4.91821 12.0627 5.73087 11.5137 5.73087 10.8275V9.72941C5.99208 9.75686 6.2533 9.78431 6.51451 9.78431C6.7467 9.78431 6.94987 9.75686 7.18206 9.75686V10.8549C7.18206 11.5412 8.02375 12.0902 8.77837 12.0902C10.2876 12.0902 10.9261 12.6667 11.2744 13.1608C9.85224 13.9843 8.19789 14.451 6.48549 14.451Z" fill="url(#paint0_linear)" stroke="url(#paint1_linear)" stroke-width="0.3"/>
<defs>
<linearGradient id="paint0_linear" x1="12" y1="0.999992" x2="0.571288" y2="1.35918" gradientUnits="userSpaceOnUse">
<stop stop-color="#FAA6A6"/>
<stop offset="1" stop-color="#F8CEBC"/>
</linearGradient>
<linearGradient id="paint1_linear" x1="12" y1="0.999992" x2="0.571288" y2="1.35918" gradientUnits="userSpaceOnUse">
<stop stop-color="#FAA6A6"/>
<stop offset="1" stop-color="#F8CEBC"/>
</linearGradient>
</defs>
</svg>
