<svg  viewBox="0 0 34 22" fill="none" xmlns="http://www.w3.org/2000/svg">
<path d="M34 0.52381C34 0.662732 33.9449 0.795926 33.8468 0.894159C33.7487 0.992393 33.6157 1.04762 33.4769 1.04762H9.41539C9.27666 1.04762 9.14362 0.992393 9.04552 0.894159C8.94743 0.795926 8.89231 0.662732 8.89231 0.52381C8.89231 0.384887 8.94743 0.251693 9.04552 0.15346C9.14362 0.0552265 9.27666 0 9.41539 0H33.4769C33.6157 0 33.7487 0.0552265 33.8468 0.15346C33.9449 0.251693 34 0.384887 34 0.52381ZM33.4769 6.80952H2.09231C1.95358 6.80952 1.82054 6.86475 1.72244 6.96298C1.62435 7.06122 1.56923 7.19441 1.56923 7.33333C1.56923 7.47226 1.62435 7.60545 1.72244 7.70368C1.82054 7.80192 1.95358 7.85714 2.09231 7.85714H33.4769C33.6157 7.85714 33.7487 7.80192 33.8468 7.70368C33.9449 7.60545 34 7.47226 34 7.33333C34 7.19441 33.9449 7.06122 33.8468 6.96298C33.7487 6.86475 33.6157 6.80952 33.4769 6.80952ZM33.4769 14.1429H6.8C6.66127 14.1429 6.52823 14.1981 6.43014 14.2963C6.33204 14.3946 6.27692 14.5277 6.27692 14.6667C6.27692 14.8056 6.33204 14.9388 6.43014 15.037C6.52823 15.1353 6.66127 15.1905 6.8 15.1905H33.4769C33.6157 15.1905 33.7487 15.1353 33.8468 15.037C33.9449 14.9388 34 14.8056 34 14.6667C34 14.5277 33.9449 14.3946 33.8468 14.2963C33.7487 14.1981 33.6157 14.1429 33.4769 14.1429ZM33.4769 20.9524H0.523077C0.384348 20.9524 0.251309 21.0076 0.153213 21.1058C0.0551173 21.2041 0 21.3373 0 21.4762C0 21.6151 0.0551173 21.7483 0.153213 21.8465C0.251309 21.9448 0.384348 22 0.523077 22H33.4769C33.6157 22 33.7487 21.9448 33.8468 21.8465C33.9449 21.7483 34 21.6151 34 21.4762C34 21.3373 33.9449 21.2041 33.8468 21.1058C33.7487 21.0076 33.6157 20.9524 33.4769 20.9524Z" fill="url(#paint0_linear)"/>
<defs>
<linearGradient id="paint0_linear" x1="34" y1="-1.22935e-05" x2="-1.22539" y2="2.17756" gradientUnits="userSpaceOnUse">
<stop stop-color="#FAA6A6"/>
<stop offset="1" stop-color="#F8CEBC"/>
</linearGradient>
</defs>
</svg>
