<svg class="svg-key" width="21" height="21" viewBox="0 0 21 21" fill="none" xmlns="http://www.w3.org/2000/svg">
    <path fill-rule="evenodd" clip-rule="evenodd" d="M9.887 8.93168L4.71069 14.108L4.69155 16.3854L6.76716 16.3679L7.24032 14.0021L10.1299 13.1227L11.0591 10.5857L11.5776 10.8961C13.1307 11.826 15.1734 11.6213 16.5109 10.2837C18.0898 8.70483 18.0898 6.1449 16.5109 4.56599C14.932 2.98707 12.3721 2.98707 10.7932 4.56599C9.69076 5.66838 9.35757 7.24949 9.79597 8.64244L9.887 8.93168ZM10.5137 13.5285L7.67197 14.3934L7.17775 16.8645L4.23714 16.8892L4.18772 16.8398L4.21243 13.8992L9.31904 8.79255C8.82692 7.22891 9.20027 5.45176 10.4396 4.21243C12.2138 2.43826 15.0903 2.43826 16.8645 4.21243C18.6386 5.98661 18.6386 8.86312 16.8645 10.6373C15.4861 12.0156 13.4426 12.323 11.7674 11.5596C11.6152 11.4903 11.4661 11.4121 11.3208 11.3251L10.5137 13.5285ZM12.8043 8.27264C12.064 7.53236 12.0639 6.32897 12.8043 5.58865C13.5446 4.84833 14.748 4.84837 15.4883 5.58865C16.2285 6.32893 16.2286 7.53232 15.4883 8.27264C14.7479 9.01296 13.5445 9.01292 12.8043 8.27264ZM13.1578 5.9422C12.6128 6.48726 12.6128 7.37406 13.1578 7.91909C13.7028 8.46411 14.5896 8.46414 15.1347 7.91909C15.6798 7.37403 15.6797 6.48723 15.1347 5.9422C14.5897 5.39718 13.7029 5.39715 13.1578 5.9422Z" fill="url(#paint0_linear)" stroke="url(#paint1_linear)" stroke-width="0.3"/>
    <defs>
    <linearGradient id="paint0_linear" x1="20.0769" y1="7.42486" x2="13.2621" y2="0.881423" gradientUnits="userSpaceOnUse">
    <stop stop-color="#FAA6A6"/>
    <stop offset="1" stop-color="#F8CEBC"/>
    </linearGradient>
    <linearGradient id="paint1_linear" x1="20.0769" y1="7.42486" x2="13.2621" y2="0.881423" gradientUnits="userSpaceOnUse">
    <stop stop-color="#FAA6A6"/>
    <stop offset="1" stop-color="#F8CEBC"/>
    </linearGradient>
    </defs>
    </svg>