<svg viewBox="0 0 19 12" fill="none" xmlns="http://www.w3.org/2000/svg">
<path d="M18 2.08974C18 1.80073 17.8811 1.52354 17.6694 1.31917C17.4576 1.11481 17.1705 1 16.8711 1H2.12891C1.8295 1 1.54236 1.11481 1.33065 1.31917C1.11894 1.52354 1 1.80073 1 2.08974V9.91026C1 10.1993 1.11894 10.4765 1.33065 10.6808C1.54236 10.8852 1.8295 11 2.12891 11H16.8711C17.1705 11 17.4576 10.8852 17.6694 10.6808C17.8811 10.4765 18 10.1993 18 9.91026V2.08974ZM16.7197 1.51282L9.81344 5.8718C9.71737 5.93205 9.60527 5.96411 9.4907 5.96411C9.37614 5.96411 9.26403 5.93205 9.16797 5.8718L2.26172 1.51282H16.7197ZM17.4688 9.90769C17.4688 10.0609 17.4059 10.2079 17.2939 10.3165C17.1819 10.4251 17.0298 10.4865 16.8711 10.4872H2.12891C1.97015 10.4865 1.81814 10.4251 1.70614 10.3165C1.59413 10.2079 1.53125 10.0609 1.53125 9.90769V2.08718C1.53256 1.95774 1.57834 1.83239 1.66141 1.73077L8.88906 6.30513C9.07049 6.42003 9.28302 6.48068 9.5 6.47949C9.71758 6.47911 9.9305 6.4186 10.1136 6.30513L17.3386 1.73077C17.4217 1.83239 17.4674 1.95774 17.4688 2.08718V9.90769Z" fill="url(#paint0_linear)" stroke="url(#paint1_linear)" stroke-width="0.3"/>
<defs>
<linearGradient id="paint0_linear" x1="18" y1="0.999994" x2="0.401375" y2="2.1967" gradientUnits="userSpaceOnUse">
<stop stop-color="#FAA6A6"/>
<stop offset="1" stop-color="#F8CEBC"/>
</linearGradient>
<linearGradient id="paint1_linear" x1="18" y1="0.999994" x2="0.401375" y2="2.1967" gradientUnits="userSpaceOnUse">
<stop stop-color="#FAA6A6"/>
<stop offset="1" stop-color="#F8CEBC"/>
</linearGradient>
</defs>
</svg>
