<svg  viewBox="0 0 11 16" fill="none" xmlns="http://www.w3.org/2000/svg">
<path d="M5.74143 6.2866C5.09727 6.28692 4.46003 6.41937 3.86908 6.67574C3.27813 6.9321 2.74604 7.30694 2.30569 7.77709C2.30569 7.63777 2.30569 7.49318 2.30569 7.33808C2.30569 6.2051 2.2794 4.65416 2.32935 3.395C2.38718 1.93869 4.27986 0.766284 5.48381 0.766284C7.81549 0.766284 8.90115 1.85194 8.90115 4.18362C8.90115 4.25334 8.92885 4.32021 8.97815 4.36951C9.02744 4.41881 9.0943 4.44649 9.16402 4.44649C9.23374 4.44649 9.30061 4.41881 9.3499 4.36951C9.3992 4.32021 9.42689 4.25334 9.42689 4.18362C9.42689 1.5549 8.09939 0.24054 5.48381 0.24054C4.08533 0.24054 1.87458 1.5917 1.80361 3.395C1.75366 4.65679 1.76943 6.21564 1.77995 7.35387C1.77995 7.74292 1.77995 8.08728 1.77995 8.36855C1.77892 8.38782 1.77892 8.40711 1.77995 8.42638C1.20031 9.30655 0.931112 10.355 1.01503 11.4056C1.09895 12.4561 1.53118 13.4485 2.24319 14.2255C2.9552 15.0025 3.90623 15.5196 4.94546 15.6947C5.98469 15.8698 7.05264 15.693 7.97996 15.1923C8.90728 14.6915 9.64088 13.8955 10.0644 12.9305C10.488 11.9654 10.5773 10.8866 10.3181 9.86511C10.0589 8.8436 9.46609 7.93784 8.63368 7.29149C7.80128 6.64514 6.77691 6.29519 5.72303 6.29712L5.74143 6.2866ZM5.74143 15.2242C4.90957 15.2242 4.09639 14.9776 3.40473 14.5154C2.71306 14.0532 2.17398 13.3964 1.85564 12.6278C1.5373 11.8593 1.45401 11.0136 1.61629 10.1977C1.77858 9.38187 2.17916 8.63244 2.76737 8.04423C3.35558 7.45602 4.10501 7.05546 4.92089 6.89317C5.73676 6.73088 6.58244 6.81415 7.35098 7.13249C8.11951 7.45083 8.7764 7.98991 9.23856 8.68158C9.70071 9.37325 9.94738 10.1864 9.94738 11.0183C9.94738 12.1338 9.50426 13.2036 8.71549 13.9924C7.92672 14.7811 6.85692 15.2242 5.74143 15.2242Z" fill="url(#paint0_linear)" stroke="url(#paint1_linear)" stroke-width="0.3"/>
<path d="M5.74139 9.70396C5.67167 9.70396 5.60481 9.73165 5.55551 9.78095C5.50621 9.83024 5.47852 9.89712 5.47852 9.96684V12.8584C5.47852 12.9281 5.50621 12.995 5.55551 13.0443C5.60481 13.0936 5.67167 13.1213 5.74139 13.1213C5.81111 13.1213 5.87796 13.0936 5.92726 13.0443C5.97656 12.995 6.00426 12.9281 6.00426 12.8584V9.96684C6.00426 9.89712 5.97656 9.83024 5.92726 9.78095C5.87796 9.73165 5.81111 9.70396 5.74139 9.70396Z" fill="url(#paint2_linear)" stroke="url(#paint3_linear)" stroke-width="0.3"/>
<defs>
<linearGradient id="paint0_linear" x1="10.4634" y1="0.240531" x2="0.627315" y2="0.480436" gradientUnits="userSpaceOnUse">
<stop stop-color="#FAA6A6"/>
<stop offset="1" stop-color="#F8CEBC"/>
</linearGradient>
<linearGradient id="paint1_linear" x1="10.4634" y1="0.240531" x2="0.627315" y2="0.480436" gradientUnits="userSpaceOnUse">
<stop stop-color="#FAA6A6"/>
<stop offset="1" stop-color="#F8CEBC"/>
</linearGradient>
<linearGradient id="paint2_linear" x1="6.00426" y1="9.70396" x2="5.45751" y2="9.70733" gradientUnits="userSpaceOnUse">
<stop stop-color="#FAA6A6"/>
<stop offset="1" stop-color="#F8CEBC"/>
</linearGradient>
<linearGradient id="paint3_linear" x1="6.00426" y1="9.70396" x2="5.45751" y2="9.70733" gradientUnits="userSpaceOnUse">
<stop stop-color="#FAA6A6"/>
<stop offset="1" stop-color="#F8CEBC"/>
</linearGradient>
</defs>
</svg>
