<svg viewBox="0 0 11 18" fill="none" xmlns="http://www.w3.org/2000/svg">
<path d="M9.64925 4.50657C9.46769 2.18151 8.10734 1 5.60614 1C4.1645 1 1.88551 2.38475 1.81234 4.23559C1.75544 5.72059 1.78525 7.63103 1.81234 8.90738V9.43036C1.31427 10.1816 1.03409 11.0562 1.00292 11.957C0.971743 12.8579 1.19078 13.7497 1.63573 14.5336C2.08069 15.3175 2.73414 15.9627 3.52358 16.3978C4.31301 16.8328 5.20755 17.0406 6.10792 16.998C7.00828 16.9555 7.87924 16.6643 8.62415 16.1568C9.36906 15.6493 9.95877 14.9453 10.3278 14.123C10.6969 13.3006 10.8309 12.3921 10.7149 11.4982C10.599 10.6043 10.2376 9.76006 9.67093 9.05911C9.67093 8.43855 9.67093 4.68813 9.64925 4.50657ZM2.35432 4.25997C2.41393 2.7587 4.36503 1.55011 5.60614 1.55011C7.83636 1.55011 8.9474 2.50396 9.10999 4.54991C9.10999 4.70437 9.12625 7.24081 9.12896 8.49276C8.18775 7.64483 6.95229 7.19851 5.68647 7.24914C4.42065 7.29978 3.22479 7.84334 2.35432 8.76375C2.32451 7.51179 2.29741 5.68264 2.35432 4.25997ZM5.87713 16.4543C5.0196 16.4543 4.18132 16.2 3.4683 15.7236C2.75529 15.2472 2.19956 14.57 1.8714 13.7778C1.54324 12.9855 1.45737 12.1137 1.62467 11.2727C1.79197 10.4316 2.20491 9.65906 2.81127 9.05269C3.41764 8.44633 4.1902 8.0334 5.03126 7.86611C5.87232 7.69881 6.7441 7.78465 7.53636 8.11281C8.32861 8.44098 9.00577 8.9967 9.48219 9.70971C9.95862 10.4227 10.2129 11.261 10.2129 12.1185C10.2129 13.2685 9.7561 14.3713 8.94299 15.1844C8.12987 15.9975 7.02705 16.4543 5.87713 16.4543Z" fill="url(#paint0_linear)" stroke="url(#paint1_linear)" stroke-width="0.3"/>
<path d="M5.87841 10.7636C5.80654 10.7636 5.73762 10.7921 5.6868 10.843C5.63598 10.8938 5.60742 10.9627 5.60742 11.0346V14.0154C5.60742 14.0873 5.63598 14.1562 5.6868 14.2071C5.73762 14.2579 5.80654 14.2864 5.87841 14.2864C5.95028 14.2864 6.0192 14.2579 6.07002 14.2071C6.12084 14.1562 6.14939 14.0873 6.14939 14.0154V11.0346C6.14939 10.9627 6.12084 10.8938 6.07002 10.843C6.0192 10.7921 5.95028 10.7636 5.87841 10.7636Z" fill="url(#paint2_linear)" stroke="url(#paint3_linear)" stroke-width="0.3"/>
<defs>
<linearGradient id="paint0_linear" x1="10.7555" y1="0.999991" x2="0.615809" y2="1.24723" gradientUnits="userSpaceOnUse">
<stop stop-color="#FAA6A6"/>
<stop offset="1" stop-color="#F8CEBC"/>
</linearGradient>
<linearGradient id="paint1_linear" x1="10.7555" y1="0.999991" x2="0.615809" y2="1.24723" gradientUnits="userSpaceOnUse">
<stop stop-color="#FAA6A6"/>
<stop offset="1" stop-color="#F8CEBC"/>
</linearGradient>
<linearGradient id="paint2_linear" x1="6.14939" y1="10.7636" x2="5.58576" y2="10.7671" gradientUnits="userSpaceOnUse">
<stop stop-color="#FAA6A6"/>
<stop offset="1" stop-color="#F8CEBC"/>
</linearGradient>
<linearGradient id="paint3_linear" x1="6.14939" y1="10.7636" x2="5.58576" y2="10.7671" gradientUnits="userSpaceOnUse">
<stop stop-color="#FAA6A6"/>
<stop offset="1" stop-color="#F8CEBC"/>
</linearGradient>
</defs>
</svg>
