<svg  viewBox="0 0 79 52" fill="none" xmlns="http://www.w3.org/2000/svg">
<path d="M14.1859 14.8489C12.1474 15.4379 10.0258 16.7839 7.77936 18.8451C6.11532 20.3595 4.7425 22.0421 3.70248 23.935C2.82886 25.4914 2.37125 26.8795 2.37125 28.1415C2.37125 30.2868 4.03528 31.3805 7.40495 31.3805C11.1906 31.3805 14.5187 30.2447 17.306 28.0153C18.3044 27.2161 19.0532 26.3748 19.594 25.4493C20.1348 24.5239 20.426 23.6826 20.426 22.8413C20.426 22.0841 20.1348 21.4952 19.5524 21.0325C18.97 20.5698 18.2212 20.3595 17.2644 20.3595C14.3523 20.3595 11.3986 21.7897 8.44497 24.6501C7.73776 25.3231 6.78094 26.4168 5.61611 27.9732L5.20011 27.6788C5.90732 26.2486 6.98894 24.8604 8.44497 23.4723C11.149 20.9063 13.9779 19.6023 16.9731 19.6023C18.0964 19.6023 19.0116 19.8547 19.802 20.3174C20.7172 20.9063 21.1332 21.7055 21.1332 22.7572C21.1332 24.8184 19.9684 26.7533 17.6388 28.6042C14.7267 30.9178 11.2738 32.0956 7.32175 32.0956C5.0337 32.0956 3.28647 31.5908 2.08004 30.5813C0.707214 29.4455 0 27.847 0 25.87C0 23.3881 0.99842 21.1166 2.99526 19.0555C4.11848 17.8776 5.49131 16.9522 7.11374 16.2371C8.73618 15.522 10.941 14.8489 13.7283 14.26C13.3955 13.8394 13.1043 13.3346 12.8547 12.8298C10.733 12.8298 9.02738 12.5774 7.73776 12.1147C6.44813 11.6941 5.49131 11.0631 4.7841 10.2218C3.99368 9.2543 3.57767 8.20268 3.57767 7.02486C3.57767 4.83748 4.70089 3.02868 6.94734 1.59847C8.65298 0.50478 10.733 0 13.1875 0C15.0179 0 16.7235 0.294455 18.3044 0.92543L18.0132 1.38815C16.8899 1.05163 15.6835 0.8413 14.4355 0.8413C11.4818 0.8413 8.98578 1.55641 7.03054 2.94455C5.32491 4.2065 4.49289 5.63671 4.49289 7.31931C4.49289 8.32887 4.8673 9.21224 5.61611 9.96941C6.36493 10.7266 7.36335 11.3155 8.69458 11.6941C9.7346 11.9885 11.1074 12.1568 12.8131 12.1989C12.7715 11.8623 12.7299 11.5679 12.7299 11.3576C12.7299 10.2218 13.1459 9.08604 13.9363 7.95029C14.7267 6.77247 15.8915 5.67878 17.3892 4.66922C18.97 3.57553 20.7588 2.73423 22.7141 2.10325C24.6693 1.51434 26.5829 1.17782 28.455 1.17782C30.2022 1.17782 31.0758 1.76673 31.0758 2.94455C31.0758 4.29063 30.0774 5.84704 28.1222 7.5717C24.8773 10.3901 20.3012 12.1147 14.3523 12.7878C14.3107 12.9981 14.2691 13.1663 14.2691 13.2925C14.2691 13.6711 14.3939 13.9235 14.6019 14.1338C15.3091 14.0918 15.8499 14.0497 16.2659 14.0497C16.7235 14.0497 17.1395 14.1338 17.4724 14.26C17.8052 14.3862 17.9716 14.5545 17.9716 14.7648C17.9716 14.9331 17.8468 15.1013 17.5556 15.2275C17.306 15.3537 16.9731 15.3958 16.5987 15.3958C15.6419 15.3958 14.8515 15.2275 14.1859 14.8489ZM14.4355 12.1147C18.0548 11.7361 21.3412 10.7686 24.2949 9.21224C26.2085 8.20268 27.7894 7.02486 28.9542 5.67878C29.8278 4.66922 30.2438 3.78585 30.2438 3.02868C30.2438 2.6501 30.119 2.31358 29.7862 2.10325C29.495 1.85086 29.1206 1.72467 28.663 1.72467C27.207 1.72467 25.5845 2.22945 23.7125 3.23901C21.8404 4.24857 20.01 5.63671 18.0964 7.44551C16.9731 8.49713 16.1827 9.3805 15.6419 10.0115C15.1427 10.6845 14.7267 11.3996 14.4355 12.1147ZM24.0869 31.5488H20.3012L30.2854 18.088H33.8215L30.0358 23.4302L30.119 23.5143C32.3655 21.369 34.1543 19.8547 35.5271 18.9713C36.8999 18.088 38.0648 17.6252 39.1464 17.6252C39.7704 17.6252 40.228 17.8356 40.6024 18.2141C40.9768 18.5927 41.1432 19.1816 41.1432 19.8968C41.1432 21.1587 40.6024 22.4627 39.5624 23.7247L35.6103 28.5621C34.8615 29.5296 34.4039 30.1185 34.2791 30.2868C34.1543 30.4971 34.1127 30.6654 34.1127 30.7916C34.1127 31.1702 34.3207 31.3384 34.6951 31.3384C35.2359 31.3384 36.3175 30.7916 37.94 29.6558C39.5624 28.5201 41.1848 27.2581 42.7241 25.7859L43.1401 26.2486C42.2665 27.1319 40.852 28.2677 38.8552 29.782C36.8167 31.2964 35.2775 32.0115 34.2375 32.0115C33.6967 32.0115 33.1975 31.8012 32.7815 31.3805C32.3655 30.9599 32.1575 30.4551 32.1575 29.8662C32.1575 29.109 32.3655 28.3518 32.7399 27.5947C33.1143 26.8375 33.7799 25.912 34.6951 24.7763L37.3992 21.5794C38.3976 20.3174 39.0216 19.5602 39.188 19.3078C39.3544 19.0555 39.4376 18.8031 39.4376 18.5927C39.4376 18.3403 39.2712 18.2141 38.8968 18.2141C37.3576 18.2141 34.9447 19.7285 31.7414 22.7572C29.2038 25.1969 27.3318 27.174 26.1253 28.8145L24.0869 31.5488ZM55.0795 24.7763C53.7483 26.4589 52.5003 27.847 51.2522 28.9407C48.9642 30.9599 46.9674 32.0115 45.2617 32.0115C44.5545 32.0115 43.9721 31.7591 43.5561 31.2543C43.1401 30.7495 42.9321 30.0344 42.9321 29.1511C42.9321 28.3518 43.1401 27.5526 43.5145 26.7533C43.8889 25.912 44.5545 24.8604 45.5529 23.5564L49.5466 18.1721H53.2075L45.5529 28.5621C44.8041 29.5717 44.4297 30.2868 44.4297 30.7495C44.4297 31.2122 44.7209 31.4646 45.3449 31.4646C46.5513 31.4646 48.049 30.7495 49.8794 29.3193C51.7099 27.8891 53.3739 26.1224 54.8715 24.0191C54.8715 23.8088 54.8715 23.6826 54.8715 23.5985C54.8715 22.0841 55.2875 20.6119 56.1611 19.2237C56.7436 18.2562 57.2844 17.7935 57.7836 17.7935C58.158 17.7935 58.3244 18.0459 58.3244 18.5086C58.3244 19.1396 58.1164 19.8968 57.742 20.696C57.326 21.4952 56.6187 22.631 55.6203 24.1033C55.6203 24.566 55.7451 24.9446 55.9947 25.1969C56.2443 25.4493 56.6187 25.6176 57.0764 25.6176C57.3676 25.6176 57.742 25.5755 58.2412 25.4493L58.366 25.9541C57.95 26.1224 57.534 26.2065 57.1596 26.2065C56.0779 26.0803 55.4123 25.6597 55.0795 24.7763ZM68.475 31.9694C68.3502 32.1377 67.5598 33.1893 66.1453 35.0822C64.5645 37.1855 62.5261 39.0784 60.03 40.7189C57.6588 42.3174 55.4955 43.1587 53.5403 43.1587C52.9995 43.1587 52.5419 43.0325 52.2091 42.8222C51.8763 42.5698 51.7099 42.2753 51.7099 41.8968C51.7099 40.088 53.7483 37.9426 57.8252 35.4608C59.9468 34.1568 62.2765 33.021 64.8141 32.0956L68.5998 26.7954C66.6862 28.5621 65.1469 29.8241 63.9821 30.5392C62.8173 31.2543 61.8189 31.6329 60.9868 31.6329C60.4044 31.6329 59.9052 31.4226 59.4892 31.044C59.1148 30.6654 58.9068 30.1606 58.9068 29.5296C58.9068 28.6883 59.0732 27.8891 59.406 27.1319C59.7388 26.3748 60.3628 25.3652 61.278 24.1874L65.8125 18.1721H69.515L62.6509 27.4685C61.4028 29.1511 60.7788 30.1186 60.7788 30.3709C60.7788 30.7495 61.0284 30.9178 61.5277 30.9178C62.0685 30.9178 62.9005 30.4971 64.1069 29.6979C65.3133 28.8987 66.5614 27.8891 67.7678 26.6692C69.8062 24.6922 71.8447 22.3786 73.7999 19.7285L75.0479 18.088H78.7504L69.1406 30.9599C69.931 30.7916 71.387 30.1185 73.5087 28.9407C75.5887 27.7629 77.336 26.6692 78.6672 25.6176L78.9584 26.0382C77.9184 27.0057 76.296 28.0994 74.0495 29.3614C71.8447 30.6233 69.9726 31.5067 68.475 31.9694ZM64.2733 32.8948C62.3597 33.6099 60.3212 34.5774 58.2412 35.8815C56.5355 36.9331 55.2043 37.9847 54.2891 39.0363C53.2907 40.1721 52.8331 41.0975 52.8331 41.8547C52.8331 42.3174 53.1659 42.5698 53.7899 42.5698C54.5803 42.5698 55.5787 42.1491 56.7852 41.3499C57.95 40.5507 59.1148 39.499 60.1548 38.195C62.4845 35.2505 63.8989 33.4838 64.2733 32.8948Z" fill="#6B586B"/>
<path d="M21.3412 50.478C21.2164 50.6042 21.05 50.6463 20.8836 50.6463C20.634 50.6463 20.4676 50.5622 20.3012 50.3939C20.1348 50.2257 20.0932 49.9312 20.0932 49.5106C20.0932 49.132 20.1764 48.8375 20.3012 48.6272C20.4676 48.4589 20.634 48.3748 20.8836 48.3748C21.05 48.3748 21.2164 48.4169 21.3412 48.5431C21.466 48.6272 21.5492 48.7954 21.5908 48.9637L22.2564 48.7954C22.1732 48.5431 22.0484 48.3327 21.9236 48.1645C21.674 47.9121 21.3412 47.7859 20.9252 47.7859C20.4676 47.7859 20.0932 47.9541 19.802 48.2486C19.5108 48.5431 19.386 49.0058 19.386 49.5526C19.386 50.0574 19.5108 50.478 19.802 50.8146C20.0932 51.109 20.426 51.2773 20.8836 51.2773C21.258 51.2773 21.5492 51.1932 21.7572 51.0249C22.0068 50.8566 22.1732 50.5622 22.2564 50.2257L21.5908 50.0153C21.5908 50.1836 21.466 50.3939 21.3412 50.478ZM24.2949 47.7859C24.0453 47.7859 23.7957 47.828 23.5877 47.9121C23.4213 47.9962 23.2965 48.0803 23.1717 48.2065C23.0469 48.3327 22.9221 48.501 22.8805 48.6693C22.7973 48.8796 22.7141 49.174 22.7141 49.5106C22.7141 50.0574 22.8389 50.478 23.1301 50.7725C23.4213 51.067 23.7957 51.2352 24.2949 51.2352C24.7941 51.2352 25.1685 51.067 25.4597 50.7725C25.7509 50.478 25.8757 50.0574 25.8757 49.5106C25.8757 48.9637 25.7093 48.5431 25.4181 48.2486C25.2101 47.9541 24.7941 47.7859 24.2949 47.7859ZM24.9605 50.3519C24.7941 50.5622 24.5861 50.6463 24.2949 50.6463C24.0453 50.6463 23.7957 50.5622 23.6293 50.3519C23.4629 50.1415 23.3797 49.8891 23.3797 49.5106C23.3797 49.132 23.4629 48.8375 23.6293 48.6693C23.7957 48.4589 24.0037 48.3748 24.2949 48.3748C24.5861 48.3748 24.7941 48.4589 24.9605 48.6693C25.1269 48.8375 25.2101 49.132 25.2101 49.5106C25.2101 49.8891 25.1269 50.1836 24.9605 50.3519ZM28.455 50.0574L27.1237 47.828H26.4581V51.1511H27.0821V48.9637L28.4134 51.1511H29.079V47.828H28.455V50.0574ZM31.6166 50.478C31.4918 50.6042 31.3254 50.6463 31.159 50.6463C30.9094 50.6463 30.743 50.5622 30.5766 50.3939C30.4102 50.2257 30.3686 49.9312 30.3686 49.5106C30.3686 49.132 30.4518 48.8375 30.5766 48.6272C30.743 48.4589 30.9094 48.3748 31.159 48.3748C31.3254 48.3748 31.4918 48.4169 31.6166 48.5431C31.7414 48.6272 31.8246 48.7954 31.8662 48.9637L32.5319 48.7954C32.4487 48.5431 32.3239 48.3327 32.199 48.1645C31.9494 47.9121 31.6166 47.7859 31.2006 47.7859C30.743 47.7859 30.3686 47.9541 30.0774 48.2486C29.7862 48.5431 29.6614 49.0058 29.6614 49.5526C29.6614 50.0574 29.7862 50.478 30.0774 50.8146C30.3686 51.109 30.7014 51.2773 31.159 51.2773C31.5334 51.2773 31.8246 51.1932 32.0326 51.0249C32.2822 50.8566 32.4487 50.5622 32.5319 50.2257L31.8662 50.0153C31.8246 50.1836 31.7414 50.3939 31.6166 50.478ZM33.7799 49.7209H35.4439V49.174H33.7799V48.4169H35.5687V47.87H33.1143V51.1932H35.6103V50.6042H33.7799V49.7209ZM38.0648 47.9121C37.94 47.87 37.6904 47.87 37.2744 47.87H36.1927V51.1932H36.8583V49.9312H37.2744C37.5656 49.9312 37.8152 49.9312 37.9816 49.8891C38.1064 49.8471 38.2312 49.805 38.3144 49.7209C38.4392 49.6367 38.5224 49.5106 38.6056 49.3844C38.6888 49.2582 38.7304 49.0899 38.7304 48.8796C38.7304 48.6272 38.6472 48.4169 38.5224 48.2486C38.3976 48.0383 38.2312 47.9541 38.0648 47.9121ZM37.94 49.132C37.8984 49.2161 37.8152 49.2582 37.732 49.3002C37.6488 49.3423 37.4824 49.3423 37.1912 49.3423H36.8167V48.3748H37.1495C37.3992 48.3748 37.5656 48.3748 37.6488 48.4169C37.7736 48.4169 37.8568 48.501 37.8984 48.5851C37.9816 48.6693 38.0232 48.7534 38.0232 48.8796C38.0232 48.9637 37.9816 49.0478 37.94 49.132ZM39.0216 48.4169H40.02V51.1932H40.6856V48.4169H41.6424V47.87H39.0216V48.4169ZM45.3865 49.3423C45.2201 49.2582 44.9705 49.174 44.6793 49.0899C44.3465 49.0058 44.1385 48.9216 44.0553 48.8796C43.9721 48.8375 43.9721 48.7534 43.9721 48.6693C43.9721 48.5851 44.0137 48.501 44.0969 48.4589C44.2217 48.3748 44.3465 48.3327 44.5545 48.3327C44.7625 48.3327 44.8873 48.3748 44.9705 48.4589C45.0537 48.5431 45.1369 48.6693 45.1369 48.8375L45.8025 48.7954C45.8025 48.501 45.6777 48.2486 45.4697 48.0803C45.2617 47.9121 44.9289 47.7859 44.5129 47.7859C44.2633 47.7859 44.0553 47.828 43.8473 47.9121C43.6809 47.9962 43.5145 48.1224 43.4313 48.2486C43.3481 48.4169 43.3065 48.5431 43.3065 48.7113C43.3065 48.9637 43.3897 49.2161 43.5977 49.3844C43.7225 49.5106 43.9721 49.6367 44.3465 49.7209C44.6377 49.805 44.8041 49.8471 44.8873 49.8471C45.0121 49.8891 45.0953 49.9312 45.1369 49.9733C45.1785 50.0153 45.2201 50.0995 45.2201 50.1836C45.2201 50.3098 45.1785 50.3939 45.0537 50.5201C44.9289 50.6042 44.7625 50.6463 44.5545 50.6463C44.3465 50.6463 44.1801 50.6042 44.0553 50.478C43.9305 50.3939 43.8473 50.2257 43.8057 49.9733L43.1401 50.0574C43.1817 50.436 43.3065 50.7304 43.5561 50.8987C43.7641 51.109 44.0969 51.1932 44.5129 51.1932C44.8041 51.1932 45.0537 51.1511 45.2201 51.067C45.4281 50.9828 45.5529 50.8566 45.6777 50.6884C45.8025 50.5201 45.8441 50.3519 45.8441 50.1415C45.8441 49.9312 45.8025 49.7629 45.7193 49.5947C45.6361 49.5526 45.5529 49.4264 45.3865 49.3423ZM46.2185 48.4169H47.217V51.1932H47.8826V48.4169H48.8394V47.87H46.2185V48.4169ZM50.6282 47.7859C50.3786 47.7859 50.129 47.828 49.921 47.9121C49.7546 47.9962 49.6298 48.0803 49.505 48.2065C49.3802 48.3327 49.2554 48.501 49.2138 48.6693C49.1306 48.8796 49.0474 49.174 49.0474 49.5106C49.0474 50.0574 49.1722 50.478 49.4634 50.7725C49.7546 51.067 50.129 51.2352 50.6282 51.2352C51.1274 51.2352 51.5018 51.067 51.793 50.7725C52.0843 50.478 52.2091 50.0574 52.2091 49.5106C52.2091 48.9637 52.0427 48.5431 51.7514 48.2486C51.5018 47.9541 51.1274 47.7859 50.6282 47.7859ZM51.2938 50.3519C51.1274 50.5622 50.9194 50.6463 50.6282 50.6463C50.3786 50.6463 50.129 50.5622 49.9626 50.3519C49.7962 50.1415 49.713 49.8891 49.713 49.5106C49.713 49.132 49.7962 48.8375 49.9626 48.6693C50.129 48.4589 50.337 48.3748 50.6282 48.3748C50.9194 48.3748 51.1274 48.4589 51.2938 48.6693C51.4602 48.8375 51.5434 49.132 51.5434 49.5106C51.5434 49.8891 51.4602 50.1836 51.2938 50.3519ZM54.9547 49.9733C54.8715 49.8891 54.7467 49.7629 54.5803 49.6788C54.8715 49.6367 55.0795 49.5526 55.2459 49.3844C55.3707 49.2161 55.4539 49.0058 55.4539 48.7534C55.4539 48.5431 55.4123 48.3748 55.3291 48.2065C55.2459 48.0383 55.1211 47.9541 54.9547 47.87C54.7883 47.828 54.5387 47.7859 54.2059 47.7859H52.7915V51.109H53.4571V49.7209H53.5819C53.7483 49.7209 53.8315 49.7209 53.9147 49.7629C53.9979 49.805 54.0395 49.8471 54.1227 49.8891C54.2059 49.9733 54.2891 50.0995 54.4555 50.3939L54.9547 51.109H55.7451L55.3291 50.478C55.1627 50.2677 55.0379 50.0995 54.9547 49.9733ZM53.9147 49.2582H53.4155V48.4169H53.9563C54.2475 48.4169 54.3723 48.4169 54.4555 48.4169C54.5803 48.4169 54.6635 48.4589 54.7051 48.5431C54.7467 48.6272 54.7883 48.7113 54.7883 48.7954C54.7883 48.8796 54.7467 48.9637 54.7051 49.0478C54.6635 49.132 54.5803 49.174 54.5387 49.174C54.4555 49.2582 54.2475 49.2582 53.9147 49.2582ZM56.7435 50.6042V49.6788H58.4076V49.132H56.7435V48.3748H58.5324V47.828H56.0779V51.1511H58.574V50.6042H56.7435Z" fill="#6B586B"/>
</svg>