<svg viewBox="0 0 12 16" fill="none" xmlns="http://www.w3.org/2000/svg">
<path d="M8.775 8.13762C9.57033 7.32779 10.0087 6.25961 10 5.15254C10 2.86271 8.205 1 6 1C3.795 1 2 2.86271 2 5.15254C1.99447 6.26634 2.44228 7.33914 3.25 8.14712C2.1475 8.3061 1 9.16983 1 10.2542V12.7695C1 13.9559 2 15 3.25 15H8.75C10 15 11 13.9488 11 12.7695V10.2542C11 9.12712 9.875 8.26338 8.775 8.13762ZM2.5 5.15254C2.5 3.12373 4.07 1.47458 6 1.47458C7.93 1.47458 9.5 3.13559 9.5 5.15254C9.5 7.16949 7.93 8.83051 6 8.83051C4.07 8.83051 2.5 7.18136 2.5 5.15254ZM10.5 12.7695C10.5 13.6854 9.715 14.5254 8.75 14.5254H3.25C2.285 14.5254 1.5 13.6854 1.5 12.7695V10.2542C1.5 9.33356 2.645 8.59322 3.595 8.59322C3.63852 8.59235 3.68093 8.58002 3.7175 8.55762C4.37627 9.04746 5.19054 9.31086 6.02736 9.30482C6.86419 9.29879 7.67414 9.02368 8.325 8.5244C8.37157 8.56823 8.43441 8.59296 8.5 8.59322C9.425 8.59322 10.5 9.31932 10.5 10.2542V12.7695Z" fill="url(#paint0_linear)" stroke="url(#paint1_linear)" stroke-width="0.3"/>
<defs>
<linearGradient id="paint0_linear" x1="11" y1="0.999992" x2="0.608482" y2="1.29689" gradientUnits="userSpaceOnUse">
<stop stop-color="#FAA6A6"/>
<stop offset="1" stop-color="#F8CEBC"/>
</linearGradient>
<linearGradient id="paint1_linear" x1="11" y1="0.999992" x2="0.608482" y2="1.29689" gradientUnits="userSpaceOnUse">
<stop stop-color="#FAA6A6"/>
<stop offset="1" stop-color="#F8CEBC"/>
</linearGradient>
</defs>
</svg>
