<svg preserveApectRatio="xMidYMid meet" viewBox="0 0 14 44" fill="none" xmlns="http://www.w3.org/2000/svg">
<path d="M0.478773 9.74592C-0.00930214 8.63763 -0.124866 7.75435 0.135096 7.1202C0.318707 6.67251 0.631265 6.49694 0.732614 6.45004L4.54386 4.67699C4.61585 4.40152 4.7394 3.9168 4.8395 3.45914C4.93307 3.03007 5.25341 2.76629 5.6226 2.60425L5.95362 1.35741C6.01316 1.13331 6.48132 0.976962 6.48132 0.976962V0.508622C6.48132 0.227659 6.71348 0 7 0C7.28652 0 7.51868 0.227659 7.51868 0.508622V0.976962C7.51868 0.976962 7.98663 1.13311 8.04628 1.3569L8.37896 2.60486C8.74732 2.76711 9.06683 3.03068 9.1604 3.45894C9.2604 3.9167 9.38384 4.40141 9.45594 4.67688L13.2673 6.44994C13.3687 6.49684 13.6812 6.67231 13.8649 7.1201C14.1249 7.75415 14.0093 8.63753 13.5212 9.74581C12.5849 11.8721 11.3388 16.0401 11.2722 16.2637C11.2405 16.3916 10.8746 18.0151 12.0688 19.6309C13.6375 21.7534 12.4107 26.8971 12.4087 26.9045C12.2892 27.3346 11.5665 28.3114 7.51847 28.3887V39.2409C8.02148 39.2845 8.76817 39.4458 9.40283 39.9791C10.1074 40.5711 10.493 41.4558 10.5489 42.6086C10.5491 42.6127 10.5435 42.9828 10.9064 42.9828C11.1033 42.9828 11.2635 42.8258 11.2635 42.6328C11.2635 42.3519 11.4957 42.1242 11.7822 42.1242C12.0687 42.1242 12.3009 42.3519 12.3009 42.6328C12.3009 43.3867 11.6754 44 10.9064 44C9.53851 44 9.51279 42.6592 9.51268 42.6569C9.47108 41.7994 9.20946 41.1605 8.73498 40.7577C8.34203 40.4242 7.86422 40.3043 7.51837 40.2635V43.4914C7.51837 43.7723 7.28621 44 6.99969 44C6.71317 44 6.48101 43.7723 6.48101 43.4914V40.2634C6.13754 40.304 5.66316 40.4228 5.27177 40.7516C4.79272 41.1542 4.52861 41.7952 4.4868 42.657C4.4867 42.6593 4.48856 44 3.09311 44C2.32433 44 1.69881 43.3867 1.69881 42.6328C1.69881 42.3519 1.93097 42.1242 2.21748 42.1242C2.504 42.1242 2.73616 42.3519 2.73616 42.6328C2.73616 42.8258 2.89633 42.9828 3.09311 42.9828C3.42662 42.9828 3.45038 42.6126 3.45059 42.6085C3.5065 41.4558 3.89219 40.5711 4.59686 39.979C5.23141 39.446 5.9781 39.2846 6.48101 39.241V28.3885C2.43284 28.3114 1.71053 27.3344 1.59102 26.9043C1.58895 26.897 1.58708 26.8895 1.58532 26.882C1.46374 26.3508 0.440184 21.6339 1.93055 19.6309C3.13471 18.013 2.75618 16.3795 2.72745 16.2645C2.66407 16.051 1.41654 11.8755 0.478773 9.74592ZM7.14378 1.99421H6.85643L6.76048 2.35563C6.86556 2.34902 7.13455 2.34902 7.24004 2.35563L7.14378 1.99421ZM2.76873 20.2306C1.75793 21.5891 2.27734 25.2095 2.58149 26.5874C2.69674 26.7121 3.47797 27.3768 6.9999 27.3768C10.5217 27.3768 11.3029 26.7121 11.4183 26.5874C11.7226 25.2095 12.2419 21.5891 11.2307 20.2306C9.70801 18.1841 10.2462 16.0896 10.2697 16.0014C10.271 15.9972 11.5855 11.5753 12.5687 9.34258C13.161 7.99778 12.9497 7.46363 12.8127 7.36465L8.79255 5.49444C8.65489 5.43036 8.55292 5.31032 8.51371 5.16598C8.5051 5.13434 8.30188 4.38554 8.14607 3.67225C8.11713 3.53981 7.55623 3.36718 6.9999 3.36494C6.44356 3.36708 5.88267 3.53971 5.85372 3.67225C5.69771 4.38575 5.49449 5.13444 5.48588 5.16598C5.44656 5.31032 5.34469 5.43036 5.20704 5.49444L1.18698 7.36465C1.04994 7.46373 0.838736 7.99788 1.43106 9.34258C2.41417 11.5753 3.72849 15.9972 3.72964 16.0014C3.75339 16.0895 4.29178 18.1841 2.76873 20.2306Z" fill="url(#paint0_linear)"/>
<defs>
<linearGradient id="paint0_linear" x1="3.12924e-07" y1="-2.45869e-05" x2="14.5576" y2="0.185254" gradientUnits="userSpaceOnUse">
<stop stop-color="#FAA6A6"/>
<stop offset="1" stop-color="#F8CEBC"/>
</linearGradient>
</defs>
</svg>
