<svg viewBox="0 0 12 16" fill="none" xmlns="http://www.w3.org/2000/svg">
<path d="M6.05811 4.44867C5.7398 4.44867 5.42865 4.54305 5.16399 4.71989C4.89933 4.89673 4.69304 5.14808 4.57123 5.44216C4.44942 5.73623 4.41756 6.05983 4.47966 6.37202C4.54175 6.68421 4.69502 6.97097 4.9201 7.19604C5.14518 7.42112 5.43194 7.5744 5.74413 7.6365C6.05632 7.6986 6.37991 7.66673 6.67399 7.54492C6.96806 7.42311 7.21942 7.21683 7.39626 6.95217C7.57311 6.68751 7.66749 6.37635 7.66749 6.05805C7.66749 5.63122 7.49793 5.22186 7.19612 4.92004C6.8943 4.61822 6.48494 4.44867 6.05811 4.44867ZM6.05811 7.20761C5.83075 7.20761 5.6085 7.14019 5.41945 7.01387C5.23041 6.88756 5.08307 6.70801 4.99606 6.49796C4.90905 6.28791 4.88628 6.05677 4.93064 5.83378C4.97499 5.61079 5.08448 5.40595 5.24525 5.24518C5.40602 5.08441 5.61085 4.97494 5.83384 4.93058C6.05683 4.88622 6.28796 4.90898 6.49802 4.99599C6.70807 5.08299 6.88762 5.23034 7.01393 5.41938C7.14025 5.60842 7.20767 5.83069 7.20767 6.05805C7.20767 6.36293 7.08655 6.65532 6.87097 6.87091C6.65538 7.08649 6.36299 7.20761 6.05811 7.20761Z" fill="url(#paint0_linear)" stroke="url(#paint1_linear)" stroke-width="0.3"/>
<path d="M6.05805 1C3.26923 1 1 3.34509 1 6.22588C1 9.10667 4.02564 13.2934 5.32694 14.9625C5.41296 15.0724 5.52288 15.1613 5.64835 15.2225C5.77383 15.2836 5.91157 15.3154 6.05115 15.3154C6.19073 15.3154 6.32848 15.2836 6.45396 15.2225C6.57943 15.1613 6.68935 15.0724 6.77537 14.9625C8.08357 13.3003 11.1299 9.12277 11.1161 6.22588C11.1023 3.329 8.83538 1 6.05805 1ZM6.41441 14.6728C6.36995 14.7256 6.31452 14.768 6.25197 14.797C6.18942 14.8261 6.12127 14.8412 6.0523 14.8412C5.98332 14.8412 5.91519 14.8261 5.85264 14.797C5.79009 14.768 5.73466 14.7256 5.6902 14.6728C4.41649 13.0497 1.45982 8.97333 1.45982 6.22818C1.45982 3.6003 3.52903 1.46211 6.05805 1.46211C8.58708 1.46211 10.6563 3.6003 10.6563 6.23048C10.6678 8.97333 7.69272 13.0474 6.41441 14.6728Z" fill="url(#paint2_linear)" stroke="url(#paint3_linear)" stroke-width="0.3"/>
<defs>
<linearGradient id="paint0_linear" x1="7.66749" y1="4.44867" x2="4.32533" y2="4.58235" gradientUnits="userSpaceOnUse">
<stop stop-color="#FAA6A6"/>
<stop offset="1" stop-color="#F8CEBC"/>
</linearGradient>
<linearGradient id="paint1_linear" x1="7.66749" y1="4.44867" x2="4.32533" y2="4.58235" gradientUnits="userSpaceOnUse">
<stop stop-color="#FAA6A6"/>
<stop offset="1" stop-color="#F8CEBC"/>
</linearGradient>
<linearGradient id="paint2_linear" x1="11.1161" y1="0.999992" x2="0.603753" y2="1.29714" gradientUnits="userSpaceOnUse">
<stop stop-color="#FAA6A6"/>
<stop offset="1" stop-color="#F8CEBC"/>
</linearGradient>
<linearGradient id="paint3_linear" x1="11.1161" y1="0.999992" x2="0.603753" y2="1.29714" gradientUnits="userSpaceOnUse">
<stop stop-color="#FAA6A6"/>
<stop offset="1" stop-color="#F8CEBC"/>
</linearGradient>
</defs>
</svg>
