<svg width="25" height="25" viewBox="0 0 25 25" fill="none" xmlns="http://www.w3.org/2000/svg">
<path d="M0.668783 24.6688C0.550482 24.5505 0.48398 24.39 0.48398 24.2227C0.48398 24.0554 0.550483 23.895 0.668784 23.7767L11.6818 12.7636L0.905151 1.98696C0.78685 1.86866 0.720402 1.70826 0.720402 1.54096C0.720403 1.37365 0.786849 1.21315 0.905151 1.09485C1.02345 0.976548 1.18396 0.910101 1.35126 0.910101C1.51856 0.9101 1.67896 0.976548 1.79726 1.09485L12.5739 11.8715L23.306 1.13944C23.4243 1.02114 23.5847 0.954696 23.752 0.954695C23.9193 0.954695 24.0798 1.02114 24.1981 1.13944C24.3164 1.25774 24.3829 1.41825 24.3829 1.58555C24.3829 1.75286 24.3164 1.91325 24.1981 2.03155L13.466 12.7636L24.4345 23.7321C24.5528 23.8504 24.6193 24.0108 24.6193 24.1781C24.6193 24.3454 24.5528 24.5059 24.4345 24.6242C24.3162 24.7425 24.1557 24.809 23.9884 24.809C23.8211 24.809 23.6607 24.7425 23.5424 24.6242L12.5739 13.6557L1.56089 24.6688C1.44259 24.7871 1.28214 24.8536 1.11484 24.8536C0.947534 24.8536 0.787084 24.7871 0.668783 24.6688Z" fill="url(#paint0_linear)"/>
<defs>
<linearGradient id="paint0_linear" x1="12.5293" y1="-10.5294" x2="-10.9248" y2="14.8793" gradientUnits="userSpaceOnUse">
<stop stop-color="#FAA6A6"/>
<stop offset="1" stop-color="#F8CEBC"/>
</linearGradient>
</defs>
</svg>
