<svg viewBox="0 0 14 20" fill="none" xmlns="http://www.w3.org/2000/svg">
<path d="M7 1C6.23895 1 5.50906 1.31968 4.97092 1.88867C4.43277 2.45766 4.13044 3.22935 4.13044 4.03402V6.03647H2.3461C2.17351 6.03059 2.00152 6.06102 1.84014 6.12597C1.67875 6.19091 1.53116 6.28912 1.40594 6.41485C1.28072 6.54057 1.18036 6.69129 1.11067 6.85834C1.04099 7.0254 1.00338 7.20541 1.00002 7.38796V17.5051C0.998308 17.8898 1.1375 18.2604 1.38842 18.5391C1.63935 18.8177 1.98255 18.9829 2.3461 19H11.6539C12.0175 18.9829 12.3606 18.8177 12.6116 18.5391C12.8625 18.2604 13.0017 17.8898 13 17.5051V7.38796C12.9966 7.20541 12.959 7.0254 12.8893 6.85834C12.8196 6.69129 12.7193 6.54057 12.5941 6.41485C12.4688 6.28912 12.3213 6.19091 12.1599 6.12597C11.9985 6.06102 11.8265 6.03059 11.6539 6.03647H9.86956V4.03402C9.86956 3.22935 9.56723 2.45766 9.02908 1.88867C8.49094 1.31968 7.76105 1 7 1ZM4.65218 4.03402C4.65218 3.37565 4.89954 2.74423 5.33984 2.2787C5.78014 1.81316 6.37732 1.55164 7 1.55164C7.62268 1.55164 8.21986 1.81316 8.66016 2.2787C9.10046 2.74423 9.34782 3.37565 9.34782 4.03402V6.03647H4.65218V4.03402ZM11.6539 6.58811C11.758 6.58218 11.8621 6.59825 11.9602 6.63545C12.0583 6.67265 12.1484 6.73023 12.2252 6.80474C12.302 6.87925 12.3639 6.96922 12.4074 7.06938C12.4508 7.16954 12.4749 7.27782 12.4782 7.38796V17.5051C12.4801 17.7437 12.3959 17.974 12.2428 18.1493C12.0896 18.3246 11.879 18.4315 11.6539 18.4484H2.3461C2.12098 18.4315 1.91039 18.3246 1.75723 18.1493C1.60407 17.974 1.51986 17.7437 1.52175 17.5051V7.38796C1.52508 7.27782 1.54917 7.16954 1.59263 7.06938C1.63608 6.96922 1.69802 6.87925 1.7748 6.80474C1.85159 6.73023 1.94168 6.67265 2.03978 6.63545C2.13789 6.59825 2.24203 6.58218 2.3461 6.58811H4.13044V7.61967C4.13044 7.69283 4.15793 7.76296 4.20685 7.81469C4.25577 7.86641 4.32212 7.89549 4.39131 7.89549C4.4605 7.89549 4.52685 7.86641 4.57577 7.81469C4.6247 7.76296 4.65218 7.69283 4.65218 7.61967V6.58811H9.34782V7.61967C9.34782 7.69283 9.37531 7.76296 9.42423 7.81469C9.47315 7.86641 9.5395 7.89549 9.60869 7.89549C9.67788 7.89549 9.74423 7.86641 9.79315 7.81469C9.84207 7.76296 9.86956 7.69283 9.86956 7.61967V6.58811H11.6539Z" fill="#222222" stroke="#222222" stroke-width="0.3"/>
</svg>
