<svg viewBox="0 0 18 16" fill="none" xmlns="http://www.w3.org/2000/svg">
    <path d="M13 1C11.16 1 9.59002 2.03454 9.00002 3.47543C8.41002 2.03454 6.84001 1 5.00001 1C2.5 1 1 3.15385 1 5.23789C1 7.37928 2.33249 9.66275 4.9575 12.0285C6.1705 13.113 7.48199 14.0828 8.87502 14.9252L9.00002 15L9.12502 14.9252C10.518 14.0828 11.8295 13.113 13.0425 12.0285C15.6675 9.66275 17 7.37928 17 5.23789C17 3.15385 15.5 1 13 1ZM9.00002 14.4192C8.00002 13.8159 1.5 9.6827 1.5 5.23789C1.5 3.40064 2.81 1.49858 5.00001 1.49858C6.80251 1.49858 8.75002 2.74502 8.75002 4.73932H9.25002C9.25002 2.74502 11.1975 1.49858 13 1.49858C15.19 1.49858 16.5 3.40064 16.5 5.23789C16.5 9.6802 10 13.8159 9.00002 14.4192Z" fill="#222222" stroke="#222222" stroke-width="0.3"/>
    <path d="M12.9209 3.15381C12.8711 3.15381 12.8235 3.18218 12.7883 3.23267C12.7531 3.28316 12.7334 3.35163 12.7334 3.42304C12.7334 3.49444 12.7531 3.56292 12.7883 3.61341C12.8235 3.6639 12.8711 3.69227 12.9209 3.69227C13.9032 3.69227 14.4918 4.92535 14.4918 6.11535C14.4918 6.18675 14.5116 6.25523 14.5467 6.30572C14.5819 6.35621 14.6296 6.38458 14.6793 6.38458C14.729 6.38458 14.7767 6.35621 14.8118 6.30572C14.847 6.25523 14.8667 6.18675 14.8667 6.11535C14.8667 4.65881 14.1375 3.15381 12.9209 3.15381Z" fill="#222222" stroke="#222222" stroke-width="0.3"/>
</svg>
