<svg viewBox="0 0 15 17" fill="none" xmlns="http://www.w3.org/2000/svg">
<path d="M12.9399 0H2.06027C1.12247 0 0.359863 0.762512 0.359863 1.69984V15.3004C0.359863 16.2375 1.12238 16.9999 2.06027 16.9999H12.9399C13.8775 16.9999 14.64 16.2375 14.64 15.3004V1.7004C14.6405 0.762981 13.8781 0 12.9399 0ZM13.9604 15.3004C13.9604 15.8631 13.5026 16.3205 12.9399 16.3205H2.06027C1.49772 16.3205 1.04027 15.8631 1.04027 15.3004V1.7004C1.04027 1.13786 1.49772 0.680405 2.06027 0.680405H12.9399C13.5022 0.680405 13.9596 1.13786 13.9596 1.7004V15.3005H13.9604V15.3004Z" fill="#FAA8A7"/>
<path d="M11.0853 7.43294H3.91543C3.74286 7.43294 3.60352 7.57285 3.60352 7.74541C3.60352 7.91788 3.74286 8.05789 3.91543 8.05789H11.0852C11.2579 8.05789 11.3973 7.91798 11.3973 7.74541C11.3974 7.57294 11.2579 7.43294 11.0853 7.43294Z" fill="#FAA8A7"/>
<path d="M11.0853 8.85682H3.91543C3.74286 8.85682 3.60352 8.99701 3.60352 9.16957C3.60352 9.34213 3.74286 9.48167 3.91543 9.48167H11.0852C11.2579 9.48167 11.3973 9.34213 11.3973 9.16957C11.3969 8.99607 11.2579 8.85682 11.0853 8.85682Z" fill="#FAA8A7"/>
<path d="M11.0853 10.2802H3.91543C3.74286 10.2802 3.60352 10.4204 3.60352 10.5928C3.60352 10.7654 3.74286 10.9051 3.91543 10.9051H11.0852C11.2579 10.9051 11.3973 10.7654 11.3973 10.5928C11.3974 10.4204 11.2579 10.2802 11.0853 10.2802Z" fill="#FAA8A7"/>
<path d="M11.0855 11.704H7.50027C7.32799 11.704 7.18799 11.8436 7.18799 12.0162C7.18799 12.1887 7.32799 12.3289 7.50027 12.3289H11.0854C11.2581 12.3289 11.397 12.1887 11.397 12.0162C11.397 11.8436 11.2581 11.704 11.0855 11.704Z" fill="#FAA8A7"/>
<path d="M11.0854 14.5158H8.57553C8.4024 14.5158 8.26343 14.6555 8.26343 14.8281C8.26343 15.0004 8.4024 15.1402 8.57553 15.1402H11.0854C11.2581 15.1402 11.397 15.0004 11.397 14.8281C11.397 14.6555 11.258 14.5158 11.0854 14.5158Z" fill="#FAA8A7"/>
<path d="M7.8483 6.06022C7.8483 5.46924 7.16789 4.6721 6.24943 4.4392C6.63312 4.18115 6.89755 3.67153 6.89755 3.21258C6.89755 2.5653 6.37339 2.04 5.72554 2.04C5.07845 2.04 4.55353 2.5653 4.55353 3.21258C4.55353 3.67106 4.81796 4.18068 5.20081 4.4392C4.28366 4.67201 3.60278 5.46971 3.60278 6.06022C3.60353 6.75855 7.8483 6.75855 7.8483 6.06022ZM5.63105 4.77936H5.6257L5.43165 4.5565C5.52652 4.59009 5.62326 4.61064 5.72564 4.61064C5.8282 4.61064 5.92504 4.59065 6.01972 4.55697L5.8251 4.77926H5.8205L6.32131 5.98928L5.72564 6.58345L5.13062 5.98928L5.63105 4.77936Z" fill="#FAA8A7"/>
</svg>
