<svg preserveApectRatio="xMidYMid meet" viewBox="0 0 38 33" fill="none" xmlns="http://www.w3.org/2000/svg">
<path d="M11.7797 6.31315C11.6504 6.31315 11.5241 6.26126 11.4331 6.1702C11.3419 6.07914 11.2901 5.95283 11.2901 5.82359C11.2901 5.69444 11.3419 5.56902 11.4331 5.47796C11.5241 5.3869 11.6504 5.33403 11.7797 5.33403C11.9088 5.33403 12.0351 5.3869 12.1263 5.47796C12.2173 5.56902 12.2692 5.69533 12.2692 5.82359C12.2692 5.95283 12.2173 6.07914 12.1263 6.1702C12.0351 6.26126 11.9088 6.31315 11.7797 6.31315Z" fill="url(#paint0_linear)"/>
<path d="M9.31427 5.11569C9.18512 5.11569 9.05881 5.06379 8.96766 4.97274C8.8766 4.88168 8.82471 4.75537 8.82471 4.62613C8.82471 4.49688 8.8766 4.37156 8.96766 4.2805C9.05881 4.18944 9.18512 4.13657 9.31427 4.13657C9.44253 4.13657 9.56884 4.18944 9.66088 4.2805C9.75203 4.37156 9.80383 4.49786 9.80383 4.62613C9.80383 4.75537 9.75203 4.88168 9.66088 4.97274C9.56894 5.06379 9.44263 5.11569 9.31427 5.11569Z" fill="url(#paint1_linear)"/>
<path d="M37.8572 24.5877C37.7469 24.4769 37.5899 24.4253 37.4354 24.4496L33.8247 25.0093C34.5102 22.8424 33.5906 21.2673 32.9313 20.692C32.8357 20.6089 32.7126 20.5656 32.5848 20.5721C29.7287 20.7155 27.4264 19.8278 27.404 19.819C27.2773 19.7689 27.1354 19.7741 27.0127 19.833C26.8899 19.8921 26.7973 19.9995 26.7569 20.1295C26.7015 20.3087 26.6615 20.471 26.6262 20.6141C26.48 21.2075 26.3835 21.5994 25.2588 22.6374C23.3148 24.4315 22.8441 25.6856 22.6975 26.3606C21.1087 26.117 19.2743 25.3312 17.8898 23.2688C17.8878 23.2658 17.8856 23.2625 17.8834 23.2594C17.8438 23.2031 17.542 22.7823 16.9622 22.1395C17.4506 21.6197 18.4136 20.5589 19.3696 19.3C21.2096 16.8775 22.0742 14.9716 21.9395 13.6358C21.9394 13.6348 21.939 13.6338 21.9389 13.6329C21.9387 13.6311 21.9388 13.6292 21.9386 13.6275C21.9199 13.4688 21.4722 9.71864 20.8474 8.00557C20.3052 6.51867 18.6442 5.83838 13.9213 4.08987C9.50002 2.45307 6.75583 0.14019 6.72891 0.117279C6.62306 0.026906 6.48334 -0.014217 6.34578 0.00438626C6.20782 0.0229896 6.08425 0.099361 6.00602 0.214506L3.85538 3.38079C3.33508 3.89463 -1.52097 8.86602 0.481724 13.3717L1.5054 31.8579C1.51969 32.1174 1.73431 32.3206 1.99417 32.3206H7.50006C7.7705 32.3206 7.98962 32.1014 7.98962 31.831V20.311C7.99197 19.9104 8.17115 19.7175 8.30872 19.7175C8.35493 19.7175 8.53206 19.7406 8.87181 20.0378C10.2957 21.2837 14.5176 26.066 16.8779 29.8374C17.0307 30.1179 18.369 32.3204 22.6868 32.3204C26.7227 32.3204 36.6273 29.3405 37.047 29.2136C37.2267 29.1593 37.3594 29.0071 37.3889 28.8218L37.994 25.0101C38.0184 24.8556 37.9677 24.6986 37.8572 24.5877ZM25.9228 23.3569C27.225 22.1551 27.3994 21.565 27.5623 20.9071C28.4146 21.1728 30.2319 21.6329 32.411 21.5592C32.7482 21.9486 33.5761 23.1836 32.7191 25.1806C32.7191 25.1806 25.8998 26.3591 23.6861 26.4498C23.8434 25.8747 24.3153 24.8407 25.9228 23.3569ZM20.9742 13.9559C20.9461 16.0493 17.8755 19.7442 16.2891 21.4284C15.6154 20.7478 14.7227 19.9324 13.5994 19.0776C14.679 18.0811 17.3429 15.391 18.6646 12.0167C19.5057 12.6203 20.8119 13.8329 20.9742 13.9559ZM19.9277 8.34131C20.298 9.35685 20.6135 11.2328 20.7965 12.4845C20.018 11.7763 18.7134 10.689 16.284 9.44458L17.7382 6.64224C19.1676 7.28748 19.7072 7.73689 19.9277 8.34131ZM14.6908 5.42196C15.5309 5.73773 16.2396 6.01159 16.8355 6.25588L15.4055 9.01171C14.75 8.70094 14.0236 8.38233 13.2179 8.05902L14.6908 5.42196ZM6.51918 1.20146C9.67322 3.65445 13.702 5.05313 13.7627 5.07564L12.2971 7.69969C8.40056 6.20604 5.77759 4.2995 4.88963 3.6007L6.51918 1.20146ZM12.0459 8.65237C14.7001 9.65959 16.5357 10.6251 17.8324 11.4537C16.5675 14.8611 13.7056 17.6545 12.7924 18.486C11.7093 17.7214 10.4447 16.9436 8.99146 16.2178C8.47106 15.3252 5.30595 9.72578 4.79074 4.75968C6.02639 5.6733 8.5205 7.3145 12.0459 8.65237ZM3.81779 4.8762C4.24409 8.98234 6.33226 13.3657 7.47686 15.5127C7.3483 15.4571 1.33581 12.882 1.33581 12.882C0.0778371 9.86687 2.50939 6.42291 3.81779 4.8762ZM36.4702 28.3638C34.7741 28.8645 26.2028 31.3413 22.6868 31.3413C18.8207 31.3413 17.7252 29.3458 17.7171 29.3328C15.2733 25.4226 11.0188 20.6156 9.51666 19.301C9.08389 18.9224 8.68881 18.7384 8.30872 18.7384C7.4374 18.7384 7.01804 19.5919 7.01452 20.2117C7.01432 20.2327 7.0105 31.3413 7.0105 31.3413H2.45739L1.49795 14.0169L6.70668 16.2491C13.6566 19.1447 16.9742 23.6728 17.0808 23.8204C19.1942 26.9639 22.2876 27.4255 23.9442 27.4332C25.8893 27.4422 36.9216 25.5199 36.9216 25.5199L36.4702 28.3638Z" fill="url(#paint2_linear)"/>
<defs>
<linearGradient id="paint0_linear" x1="12.2692" y1="5.33403" x2="11.2526" y2="5.3747" gradientUnits="userSpaceOnUse">
<stop stop-color="#FAA6A6"/>
<stop offset="1" stop-color="#F8CEBC"/>
</linearGradient>
<linearGradient id="paint1_linear" x1="9.80383" y1="4.13657" x2="8.78717" y2="4.17723" gradientUnits="userSpaceOnUse">
<stop stop-color="#FAA6A6"/>
<stop offset="1" stop-color="#F8CEBC"/>
</linearGradient>
<linearGradient id="paint2_linear" x1="38" y1="-1.80605e-05" x2="-1.43279" y2="1.85446" gradientUnits="userSpaceOnUse">
<stop stop-color="#FAA6A6"/>
<stop offset="1" stop-color="#F8CEBC"/>
</linearGradient>
</defs>
</svg>
