<svg viewBox="0 0 16 16" fill="none" xmlns="http://www.w3.org/2000/svg">
<path fill-rule="evenodd" clip-rule="evenodd" d="M4.98011 1.3314L6.64518 3.91686C6.82004 4.1965 6.77862 4.55985 6.54534 4.79299L5.50017 5.83767C5.45108 5.88642 5.42691 5.95579 5.43572 6.0244C5.49658 6.50301 5.77127 7.74032 7.01596 8.98499C8.26064 10.2297 9.49765 10.5043 9.97628 10.5652C10.0449 10.574 10.114 10.5504 10.1628 10.5013L11.208 9.45559C11.4414 9.22254 11.8048 9.1813 12.0843 9.35634L12.0869 9.35794L14.6699 11.021C14.9765 11.2145 15.0872 11.6084 14.9267 11.9332L13.6678 14.6062C13.5375 14.8708 13.2564 15.0264 12.963 14.9963C11.599 14.8528 8.2699 14.2594 5.00533 10.9947C1.74076 7.7299 1.1472 4.40109 1.00369 3.03777C0.973651 2.74442 1.12919 2.46266 1.39374 2.33239L1.39751 2.33054L4.06672 1.0735C4.39217 0.91247 4.78686 1.02382 4.98011 1.3314ZM4.57166 1.58874C4.51012 1.49024 4.38376 1.45468 4.27988 1.50665L4.27477 1.50921L1.60546 2.76626C1.52298 2.80766 1.47454 2.89572 1.48384 2.98764C1.62036 4.28417 2.18651 7.49293 5.3467 10.6533C8.50676 13.8135 11.715 14.3795 13.0123 14.5161C13.1043 14.5254 13.1924 14.477 13.2339 14.3945L14.4934 11.7202C14.5451 11.6166 14.5099 11.4906 14.4118 11.4289L14.4095 11.4275L11.827 9.76482C11.7382 9.7099 11.6233 9.72317 11.5493 9.79701L10.5053 10.8415C10.5052 10.8416 10.5055 10.8413 10.5053 10.8415C10.3508 10.9968 10.1325 11.0719 9.91523 11.044C9.35884 10.9733 8.01288 10.6646 6.6746 9.32635C5.33618 7.98796 5.02759 6.64189 4.95686 6.0856C4.95685 6.0855 4.95687 6.08571 4.95686 6.0856C4.92904 5.86829 5.0038 5.65039 5.15918 5.49594L6.20407 4.45153C6.27797 4.37768 6.29135 4.26275 6.23654 4.17395L6.23756 4.17554L6.4405 4.04484L6.23584 4.17282C6.23607 4.17319 6.23631 4.17357 6.23654 4.17395L4.57166 1.58874Z" fill="url(#paint0_linear)"/>
<!-- <path d="M10.5053 10.8415L11.5493 9.79701C11.6233 9.72317 11.7382 9.7099 11.827 9.76482L14.4095 11.4275L14.4118 11.4289C14.5099 11.4906 14.5451 11.6166 14.4934 11.7202L13.2339 14.3945C13.1924 14.477 13.1043 14.5254 13.0123 14.5161C11.715 14.3795 8.50676 13.8135 5.3467 10.6533C2.18651 7.49293 1.62036 4.28417 1.48384 2.98764C1.47454 2.89572 1.52298 2.80766 1.60546 2.76626L4.27477 1.50921L4.27988 1.50665C4.38376 1.45468 4.51012 1.49024 4.57166 1.58874L6.23654 4.17395M10.5053 10.8415C10.5055 10.8413 10.5052 10.8416 10.5053 10.8415ZM10.5053 10.8415C10.3508 10.9968 10.1325 11.0719 9.91523 11.044M9.91523 11.044C9.91529 11.044 9.91518 11.044 9.91523 11.044ZM9.91523 11.044L9.94584 10.8046M9.91523 11.044C9.35884 10.9733 8.01288 10.6646 6.6746 9.32635C5.33618 7.98796 5.02759 6.64189 4.95686 6.0856M4.95686 6.0856C4.95687 6.08571 4.95685 6.0855 4.95686 6.0856ZM4.95686 6.0856L5.19631 6.05516M4.95686 6.0856C4.92904 5.86829 5.0038 5.65039 5.15918 5.49594M5.15918 5.49594L5.32949 5.66692M5.15918 5.49594L6.20407 4.45153C6.27797 4.37768 6.29135 4.26275 6.23654 4.17395M6.23654 4.17395L6.23756 4.17554L6.4405 4.04484L6.23584 4.17282C6.23607 4.17319 6.23631 4.17357 6.23654 4.17395ZM4.98011 1.3314C4.78686 1.02382 4.39217 0.91247 4.06672 1.0735L1.39751 2.33054L1.39374 2.33239C1.12919 2.46266 0.973651 2.74442 1.00369 3.03777C1.1472 4.40109 1.74076 7.7299 5.00533 10.9947C8.2699 14.2594 11.599 14.8528 12.963 14.9963C13.2564 15.0264 13.5375 14.8708 13.6678 14.6062L14.9267 11.9332C15.0872 11.6084 14.9765 11.2145 14.6699 11.021L12.0869 9.35794L12.0843 9.35634C11.8048 9.1813 11.4414 9.22254 11.208 9.45559L10.1628 10.5013C10.114 10.5504 10.0449 10.574 9.97628 10.5652C9.49765 10.5043 8.26064 10.2297 7.01596 8.98499C5.77127 7.74032 5.49658 6.50301 5.43572 6.0244C5.42691 5.95579 5.45108 5.88642 5.50017 5.83767L6.54534 4.79299C6.77862 4.55985 6.82004 4.1965 6.64518 3.91686L4.98011 1.3314Z" stroke="url(#paint1_linear)" stroke-width="0.3"/> -->
<defs>
<linearGradient id="paint0_linear" x1="15" y1="0.999992" x2="0.463258" y2="1.58146" gradientUnits="userSpaceOnUse">
<stop stop-color="#FAA6A6"/>
<stop offset="1" stop-color="#F8CEBC"/>
</linearGradient>
<linearGradient id="paint1_linear" x1="15" y1="0.999992" x2="0.463258" y2="1.58146" gradientUnits="userSpaceOnUse">
<stop stop-color="#FAA6A6"/>
<stop offset="1" stop-color="#F8CEBC"/>
</linearGradient>
</defs>
</svg>
