<svg width="203" height="12" viewBox="0 0 203 12" fill="none" xmlns="http://www.w3.org/2000/svg">
<path d="M7.50047 0.515015H0.242092H0.0298143V0.726497V0.846152V1.05763H0.242092H1.14129V10.4038H0.212277H0V10.6149V10.7365V10.9492H0.212277H3.83372H4.0448V10.7365V10.601V10.3903H3.83372H2.94843V5.88953H3.53398H3.76176C4.73649 5.88953 5.38286 6.5844 5.44686 7.70263L5.45959 7.9006H5.65914H5.77164H5.98432V7.69031V3.36724V3.15576H5.77164H5.65914H5.44686V3.36724V3.44317C5.44686 3.97386 5.233 4.48945 4.86131 4.85557C4.55522 5.15848 4.17558 5.32266 3.79476 5.31789H3.49304H2.94843V1.05763H4.66136H4.81759C6.11709 1.05763 7.0787 2.04389 7.16019 3.4539L7.17092 3.65465H7.37088H7.50047H7.71116V3.44317V0.726497V0.515015H7.50047Z" fill="#6B586B"/>
<path d="M21.8687 10.4043H20.6789L17.2229 0.550851L17.1732 0.408936H17.0217H16.8218H16.6703L16.6218 0.552441L13.291 10.4043H12.3882H12.1759V10.6149V10.7366V10.9493H12.3882H14.6557H14.8679V10.7366V10.6149V10.4043H14.6557H13.8936L14.7805 7.76669H17.899L18.8177 10.4043H18.035H17.8243V10.6149V10.7366V10.9493H18.035H21.8687H22.0798V10.7366V10.6149V10.4043H21.8687ZM14.9665 7.19188L16.3109 3.18285L17.7086 7.19188H14.9665Z" fill="#6B586B"/>
<path d="M33.0676 5.48017C34.2637 5.13631 34.9415 4.39573 34.9415 3.35143C34.9415 1.64646 33.5267 0.5 31.4218 0.5H31.2934H27.8874H27.6752V0.71188V0.845845V1.05773H27.8874H28.7012V10.4039H27.8719H27.6597V10.6146V10.7366V10.9489H27.8719H31.1233H31.2934C34.7773 10.9489 35.3009 9.30236 35.3009 8.32087C35.3009 7.02614 34.4498 5.97668 33.0676 5.48017ZM30.5079 1.04182H31.1638H31.2668C32.3477 1.04182 32.6991 1.34036 32.8958 1.78678C33.0394 2.12905 33.1487 2.75833 33.1487 3.24689C33.1487 3.64918 33.0815 4.04273 32.9487 4.38857C32.7488 4.93676 32.4912 5.18163 31.4795 5.18163H31.3654H30.5079V1.04182ZM33.0457 9.86525C32.7897 10.2373 32.2383 10.4039 31.2668 10.4039H31.1233H30.5079V5.74095H31.3654H31.4934C31.8869 5.74095 32.1962 5.77394 32.4196 5.83755C33.1006 6.04863 33.5064 6.83732 33.5064 7.94442C33.5064 8.70488 33.3268 9.45978 33.0457 9.86525Z" fill="#6B586B"/>
<path d="M46.8927 0.529846H43.2995H43.0872V0.741329V0.875692V1.08717H43.2995H44.2285V10.4039H43.284H43.0729V10.615V10.7363V10.9489H43.284H46.8927H47.1038V10.7363V10.6007V10.39H46.8927H45.9792V1.07247H46.8927H47.1038V0.860983V0.741329V0.529846H46.8927Z" fill="#6B586B"/>
<path d="M63.5306 10.4043H62.3404L58.8832 0.550851L58.8315 0.408936H58.6848H58.4848H58.3334L58.2833 0.552441L54.954 10.4043H54.0497H53.839V10.6149V10.7366V10.9493H54.0497H56.3187H56.5294V10.7366V10.6149V10.4043H56.3187H55.5551L56.4392 7.76669H59.5589L60.4804 10.4043H59.6965H59.4842V10.6149V10.7366V10.9493H59.6965H63.5306H63.7429V10.7366V10.6149V10.4043H63.5306ZM56.6248 7.19188L57.974 3.18285L59.3685 7.19188H56.6248Z" fill="#6B586B"/>
<path d="M78.8139 0.483643H76.6474H76.4371V0.695125V0.830283V1.04177H76.6474H77.3769V7.34132L73.2498 0.585011L73.1889 0.483643H73.0685H70.3884H70.1765V0.695125V0.830283V1.04177H70.3884H71.1739V10.4042H70.3884H70.1765V10.6145V10.7366V10.9492H70.3884H72.5128H72.725V10.7366V10.601V10.3899H72.5128H71.7412V1.58081L77.5661 11.0864L77.956 10.9771V1.04177H78.8139H79.0258V0.830283V0.695125V0.483643H78.8139Z" fill="#6B586B"/>
<path d="M95.4404 10.4043H94.249L90.7917 0.550851L90.7416 0.408936H90.5934H90.3934H90.2404L90.1935 0.552441L86.8626 10.4043H85.9582H85.7476V10.6149V10.7366V10.9493H85.9582H88.2273H88.4384V10.7366V10.6149V10.4043H88.2273H87.4637L88.3478 7.76669H91.4695L92.389 10.4043H91.6039H91.3912V10.6149V10.7366V10.9493H91.6039H95.4404H95.6515V10.7366V10.6149V10.4043H95.4404ZM88.5334 7.19188L89.883 3.18285L91.2771 7.19188H88.5334Z" fill="#6B586B"/>
<path d="M120.99 0.515015H113.732H113.52V0.726497V0.846152V1.05763H113.732H114.633V10.4038H113.704H113.492V10.6149V10.7365V10.9492H113.704H117.325H117.536V10.7365V10.601V10.3903H117.325H116.439V5.88953H117.025H117.253C118.228 5.88953 118.874 6.5844 118.937 7.70263L118.95 7.9006H119.149H119.264H119.477V7.69031V3.36724V3.15576H119.264H119.149H118.937V3.36724V3.44317C118.937 3.97386 118.726 4.48945 118.352 4.85557C118.044 5.15848 117.666 5.32266 117.285 5.31789H116.982H116.438V1.05763H118.152H118.31C119.606 1.05763 120.57 2.04389 120.649 3.4539L120.661 3.65465H120.861H120.989H121.202V3.44317V0.726497V0.515015H120.99Z" fill="#6B586B"/>
<path d="M132.497 0.529846H128.904H128.691V0.741329V0.875692V1.08717H128.904H129.832V10.4039H128.887H128.675V10.615V10.7363V10.9489H128.887H132.497H132.707V10.7363V10.6007V10.39H132.497H131.583V1.07247H132.497H132.707V0.860983V0.741329V0.529846H132.497Z" fill="#6B586B"/>
<path d="M148.681 7.28407H148.565H148.374L148.353 7.46972C148.272 8.17254 148.232 8.33513 148.026 8.80659C147.593 9.75269 146.578 10.3895 145.513 10.3895H145.385H143.586L143.599 1.08708H144.714H144.946L144.924 0.855327L144.912 0.720964L144.893 0.529358H144.701H140.668H140.454V0.741238V0.875203V1.08708H140.668H141.737V10.4038H140.523H140.312V10.6145V10.7366V10.9488H140.523H148.68H148.89V10.7366V7.49476V7.28407H148.681Z" fill="#6B586B"/>
<path d="M159.902 0.529846H156.305H156.094V0.741329V0.875692V1.08717H156.305H157.236V10.4039H156.292H156.079V10.615V10.7363V10.9489H156.292H159.902H160.112V10.7363V10.6007V10.39H159.902H158.987V1.07247H159.902H160.112V0.860983V0.741329V0.529846H159.902Z" fill="#6B586B"/>
<path d="M171.776 6.44536H171.902C175.342 6.44536 176.065 5.02421 176.065 3.83204C176.065 3.33633 175.927 2.84181 175.665 2.40294C174.875 1.12173 173.491 0.5 171.433 0.5H171.29H168.354H168.142V0.71188V0.845845V1.05773H168.354H169.185V10.4039H168.385H168.172V10.615V10.737V10.9489H168.385H171.79H172.002V10.7366V10.6003V10.39H171.79H170.987V6.44496H171.776V6.44536ZM170.977 5.87054V1.05773H171.39H171.517C172.205 1.05773 172.799 1.19765 173.232 1.4628C173.813 1.80189 174.217 2.68876 174.217 3.62255C174.217 5.0743 173.461 5.87054 172.089 5.87054H171.974H170.977Z" fill="#6B586B"/>
<path d="M187.187 6.44536H187.318C190.754 6.44536 191.477 5.02421 191.477 3.83204C191.477 3.33553 191.339 2.83942 191.076 2.40294C190.286 1.12173 188.902 0.5 186.845 0.5H186.702H183.764H183.553V0.71188V0.845845V1.05773H183.764H184.596V10.4039H183.796H183.583V10.615V10.737V10.9489H183.796H187.201H187.412V10.7366V10.6003V10.39H187.201H186.401V6.44496H187.187V6.44536ZM186.389 5.87054V1.05773H186.805H186.931C187.618 1.05773 188.211 1.19765 188.646 1.4628C189.225 1.80109 189.628 2.68876 189.628 3.62255C189.628 5.0743 188.874 5.87054 187.501 5.87054H187.389H186.389Z" fill="#6B586B"/>
<path d="M202.787 0.529846H199.192H198.982V0.741329V0.875692V1.08717H199.192H200.122V10.4039H199.179H198.968V10.615V10.7363V10.9489H199.179H202.787H203V10.7363V10.6007V10.39H202.787H201.873V1.07247H202.787H203V0.860983V0.741329V0.529846H202.787Z" fill="#6B586B"/>
</svg>
