<svg width="76" height="36" viewBox="0 0 76 36" fill="none" xmlns="http://www.w3.org/2000/svg">
<path d="M58.3858 0.893268C56.3923 0.241556 54.2839 -0.0651326 52.1371 0.0115394C49.1852 0.164884 47.4984 0.893268 46.9617 1.46831C46.3483 2.23503 45.8116 3.07842 45.4666 3.99849C45.3899 4.2285 45.4282 4.38185 45.6199 4.34351C46.6167 4.15183 47.6517 4.03682 48.6868 3.99849C49.5685 3.88348 50.4119 3.88348 51.2937 3.96015C51.447 3.99849 51.4853 3.99849 51.4853 4.15183C51.5237 9.13552 46.885 26.0034 41.978 28.9169C37.876 30.6037 33.5441 31.5621 29.1354 31.7538H29.0588C25.8385 31.8304 22.6566 31.6004 19.5131 30.9871C13.3027 29.837 9.89075 26.3867 8.85567 24.7766C12.6893 21.7097 22.0049 23.1282 26.1069 26.9234C26.1452 26.9618 26.2219 26.9618 26.2602 26.9234C26.4136 26.8468 26.6819 26.6551 26.7969 26.6167C26.8353 26.5784 26.8353 26.5401 26.8353 26.5017C23.5767 21.7097 12.4976 20.828 9.08569 22.9365C9.08569 22.9365 7.2839 23.7799 6.78553 26.8084C6.74719 27.0001 6.74719 27.1535 6.74719 27.3451C6.74719 32.5205 19.5898 39.4977 34.5025 33.9773C37.761 32.7888 40.4446 31.5238 42.6297 29.9136C50.8336 23.7799 54.3222 13.0841 55.434 4.15183C55.434 4.03682 55.5106 4.03682 55.5873 4.03682L57.3891 4.30517C57.5808 4.30517 57.6191 4.15183 57.7341 3.96015C57.8875 3.65346 58.2325 2.81007 58.7692 1.54498C58.7692 1.19996 58.7692 1.00828 58.3858 0.893268Z" fill="#E5E4E0"/>
<path d="M8.93225 15.9977H11.0407L9.96732 13.1992L8.93225 15.9977ZM11.4624 17.1094H8.51055L7.85884 18.8729H6.59375L9.27727 11.9724H10.619L13.3026 18.8729H12.0375L11.4624 17.1094Z" fill="#6B586B"/>
<path d="M14.0692 15.3843C13.9925 13.4675 15.4877 11.8574 17.4045 11.7808C17.4428 11.7808 17.5195 11.7808 17.5578 11.7808C19.3213 11.7808 20.3563 12.8158 20.663 14.0426L19.5513 14.3876C19.3596 13.4675 18.5162 12.8158 17.5578 12.8542C16.4077 12.8542 15.296 13.6976 15.296 15.346C15.296 16.9561 16.4077 17.7995 17.5961 17.7995C18.5545 17.8379 19.3979 17.1861 19.6279 16.2661L20.7014 16.6111C20.318 18.0295 19.0146 18.9879 17.5578 18.9113C15.6793 18.9879 14.1076 17.4928 14.0309 15.6144C14.0692 15.576 14.0692 15.4994 14.0692 15.3843Z" fill="#6B586B"/>
<path d="M25.3785 17.8761C26.5286 17.8761 27.717 17.0327 27.717 15.3843C27.717 13.7358 26.5669 12.8924 25.3785 12.8924C24.2284 12.8924 23.0783 13.7358 23.0783 15.3843C23.0783 17.0327 24.2284 17.8761 25.3785 17.8761ZM25.3785 11.7807C27.2953 11.7423 28.8671 13.2758 28.9054 15.1926C28.9054 15.2693 28.9054 15.3076 28.9054 15.3843C28.9437 17.3394 27.4103 18.9495 25.4552 18.9878C23.5 19.0262 21.8899 17.4927 21.8516 15.5376C21.8516 15.4993 21.8516 15.4226 21.8516 15.3843C21.7749 13.4675 23.27 11.8573 25.1868 11.7807C25.2635 11.7807 25.3402 11.7807 25.3785 11.7807Z" fill="#6B586B"/>
<path d="M32.9687 17.8378C33.6588 17.8378 34.1188 17.4544 34.1188 16.841C34.1188 16.3043 33.6971 15.8443 33.1604 15.806C33.1221 15.806 33.0454 15.806 33.0071 15.806H31.8187V17.7994L32.9687 17.8378ZM32.8537 14.8476C33.5438 14.8476 33.9271 14.4642 33.9271 13.8892C33.9271 13.3141 33.5054 12.9308 32.8154 12.9308H31.7803V14.8859L32.8537 14.8476ZM33.0071 11.934C34.3488 11.934 35.1156 12.7007 35.1156 13.7742C35.1156 14.4259 34.7322 15.0392 34.0805 15.2693C34.8089 15.4609 35.3456 16.151 35.3456 16.9177C35.3456 18.0294 34.5022 18.8345 33.1988 18.8345H30.6686V11.934H33.0071Z" fill="#6B586B"/>
<path d="M39.5244 15.3843C39.4478 13.4675 40.9429 11.8574 42.8597 11.7808C42.898 11.7808 42.9747 11.7808 43.013 11.7808C44.7765 11.7808 45.8115 12.8158 46.1182 14.0426L45.0065 14.3876C44.8148 13.4675 43.9714 12.8158 43.013 12.8542C41.8629 12.8542 40.7512 13.6976 40.7512 15.346C40.7512 16.9561 41.8629 17.7995 43.0513 17.7995C44.0097 17.8379 44.8531 17.1861 45.1215 16.2661L46.1949 16.6111C45.8115 18.0295 44.5081 18.9879 43.0513 18.9113C41.1729 18.9879 39.6011 17.4928 39.5244 15.6144C39.5244 15.6144 39.5244 15.4994 39.5244 15.3843Z" fill="#6B586B"/>
<path d="M50.8337 17.8761C51.9838 17.8761 53.1722 17.0327 53.1722 15.3843C53.1722 13.7358 52.0221 12.8924 50.8337 12.8924C49.6836 12.8924 48.5335 13.7358 48.5335 15.3843C48.5335 17.0327 49.6453 17.8761 50.8337 17.8761ZM50.8337 11.7807C52.7505 11.7423 54.3223 13.2758 54.3606 15.1926C54.3606 15.2693 54.3606 15.3076 54.3606 15.3843C54.3989 17.3394 52.8655 18.9495 50.9104 18.9878C48.9552 19.0262 47.3451 17.4927 47.3068 15.5376C47.3068 15.4993 47.3068 15.4226 47.3068 15.3843C47.2301 13.4675 48.7252 11.8573 50.642 11.7807C50.7187 11.7807 50.757 11.7807 50.8337 11.7807Z" fill="#6B586B"/>
<path d="M60.4561 18.8345V15.8826H57.1976V18.8345H56.0475V11.934H57.1976V14.7709H60.4561V11.934H61.6445V18.8345H60.4561Z" fill="#6B586B"/>
<path d="M63.791 18.8345V11.934H68.0463V13.0074H64.9411V14.8476H67.7396V15.921H64.9411V17.7611H68.0463V18.8345H63.791Z" fill="#6B586B"/>
<path d="M64.6728 9.48059C65.0562 9.48059 65.3245 9.78728 65.3245 10.1323C65.3245 10.4773 65.0179 10.784 64.6728 10.784C64.3278 10.784 64.0595 10.5157 64.0211 10.1706C64.0211 10.1706 64.0211 10.1706 64.0211 10.1323C64.0211 9.78728 64.2895 9.48059 64.6728 9.48059Z" fill="#6B586B"/>
<path d="M67.2797 9.48059C67.6247 9.48059 67.9314 9.78728 67.9314 10.1323C67.9314 10.4773 67.6631 10.784 67.3181 10.784C66.973 10.784 66.6663 10.5157 66.6663 10.1706V10.1323C66.628 9.78728 66.9347 9.48059 67.2797 9.48059Z" fill="#6B586B"/>
<path d="M74.5254 18.8345L71.1135 13.5825V18.8345H69.9634V11.934H71.4585L74.602 16.841V11.934H75.7521V18.8345H74.5254Z" fill="#6B586B"/>
<path d="M1.15008 15.9976H0V16.4193C0 18.0678 1.07341 18.9495 2.49184 18.9878H3.02855C4.48532 18.9878 5.59706 18.1061 5.59706 16.4193V11.934H4.44698V16.381C4.44698 17.0327 4.17863 17.6078 3.60359 17.7994C3.33523 17.8761 3.06688 17.9144 2.76019 17.8761C2.45351 17.9144 2.14682 17.8378 1.87847 17.7228C1.30343 17.4927 1.15008 16.8027 1.15008 16.3427V15.9976Z" fill="#6B586B"/>
</svg>
