<svg width="137" height="23" viewBox="0 0 137 23" fill="none" xmlns="http://www.w3.org/2000/svg">
<path d="M17.8359 22.2834H38.5035V20.6848H33.251L25.8289 15.1125V14.8156L31.6752 12.509H38.0239V10.6821H18.521V12.509H21.5126C22.0151 12.509 21.9466 12.5547 21.3071 12.7831L13.9079 15.7063V12.509H16.4428V10.6821H0V12.509H5.50377V20.7076C5.50377 20.6848 0 20.7076 0 20.7076V22.2834H16.4656V20.7076H13.9307V18.6066L17.1279 17.3734L20.2794 20.2965V20.7304C19.9369 20.7304 17.8587 20.7076 17.8587 20.7076V22.2834H17.8359Z" fill="#6B586B"/>
<path d="M66.6845 14.5416V19.5657C66.6845 20.8446 69.1738 22.0778 73.216 22.0778C77.7149 22.0778 79.9986 21.1415 79.9986 19.2689V17.4419H77.2125V18.3554C77.2125 18.972 77.0526 20.365 75.0429 20.365C73.0561 20.365 72.8049 19.1318 72.8049 18.7664V14.5416H77.1668V13.3769H72.6907V10.2482H68.6028C67.8721 12.1208 66.5475 13.4225 62.9164 13.4225V14.5416H66.6845Z" fill="#6B586B"/>
<path d="M84.9773 17.4875C84.9773 20.4107 89.4991 22.055 95.8706 22.055C102.219 22.055 106.764 20.4107 106.764 17.4875C106.764 14.5644 102.242 12.9201 95.8706 12.9201C89.4991 12.9201 84.9773 14.5644 84.9773 17.4875ZM92.0111 17.4875C92.0111 15.5921 93.3129 14.5872 95.8478 14.5872C98.3827 14.5872 99.6845 15.5921 99.6845 17.4875C99.6845 19.383 98.3827 20.3879 95.8478 20.3879C93.3129 20.3879 92.0111 19.4059 92.0111 17.4875Z" fill="#6B586B"/>
<path d="M45.2405 21.1187V22.0779H59.057V21.1187H54.9463V13.5367H45.2405V14.7014H48.9629V21.1187H45.2405Z" fill="#6B586B"/>
<path d="M45.9482 5.54373C45.9482 2.59773 48.3462 0.199829 51.2921 0.199829C54.2381 0.199829 56.6361 2.59773 56.6361 5.54373C56.6361 8.48973 54.2381 10.8876 51.2921 10.8876C48.3233 10.8876 45.9482 8.48973 45.9482 5.54373Z" fill="#6B586B"/>
<path d="M111.148 13.8336V14.7471H114.825V21.073H111.148V22.0778H122.727V21.073H120.626V19.4744C120.626 17.5332 121.676 14.8841 124.417 14.8841C126.974 14.8841 127.157 16.5512 127.157 16.9395V21.0959H124.759V22.1007H137V21.0959H133.62C133.62 21.0959 133.323 21.1415 133.323 20.3194V16.3229C133.323 15.7748 133.118 14.7471 131.382 14.2447C129.646 13.7423 127.226 13.6966 126.586 13.6966C123.526 13.7194 122.064 14.4731 121.082 15.181C120.9 15.2952 120.763 15.181 120.763 14.9983C120.763 14.7243 120.763 13.8565 120.763 13.8565H111.148V13.8336Z" fill="#6B586B"/>
</svg>
