<svg width="128" height="37" viewBox="0 0 128 37" fill="none" xmlns="http://www.w3.org/2000/svg">
<path d="M16.0471 21.0874V7.68366L10.2674 16.4552H10.1527L4.43251 7.76866V21.0874H0V0.552551H4.87023L10.2674 9.23483L15.6689 0.552551H20.5391V21.0874H16.0471Z" fill="#6B586B"/>
<path d="M37.823 21.0874L35.9446 16.4849H27.2581L25.3797 21.0874H20.7729L29.5785 0.403809H33.7432L42.5445 21.0874H37.823ZM31.6014 5.83501L28.873 12.4944H34.3297L31.6014 5.83501Z" fill="#6B586B"/>
<path d="M55.0176 21.0874L50.4108 14.0498L45.7743 21.0874H40.6406L47.7972 10.6457L40.9339 0.552551H46.2163L50.5256 7.21194L54.8688 0.552551H60.0026L53.1222 10.5863L60.2788 21.0874H55.0176Z" fill="#6B586B"/>
<path d="M76.5255 21.4997L72.9727 17.8321C71.0348 20.093 68.7781 21.3807 66.02 21.3807C62.412 21.3807 59.7134 19.0645 59.7134 15.6605C59.7134 12.8726 61.6768 10.8497 65.0213 9.6173C63.4659 7.88765 62.735 6.64247 62.735 4.89581C62.735 2.22271 64.8598 0.221069 67.8687 0.221069C70.5375 0.221069 72.5902 2.21421 72.5902 4.70882C72.5902 7.32243 70.682 8.95859 67.5457 10.0508L72.9429 15.5967C74.0084 14.0339 74.9032 12.3613 75.6118 10.6075L76.9929 11.1642C76.177 13.081 75.1553 14.9035 73.9459 16.5997L77.7324 20.501L76.5255 21.4997ZM65.9308 10.5565C62.6755 11.6699 61.256 13.5781 61.256 15.601C61.256 18.1253 63.2492 20.0632 66.0668 20.0632C68.3532 20.0632 70.3166 18.8308 72.0165 16.8334L65.9308 10.5565ZM67.8092 1.47475C65.7268 1.47475 64.2606 2.94092 64.2606 4.81932C64.2606 6.13675 64.8174 7.13544 66.6363 9.06909C69.5686 8.12989 71.0645 6.72321 71.0645 4.72582C71.0726 4.2963 70.9939 3.86956 70.8331 3.47119C70.6723 3.07281 70.4328 2.71099 70.1288 2.40742C69.8248 2.10385 69.4627 1.86476 69.0641 1.7045C68.6655 1.54424 68.2387 1.46609 67.8092 1.47475Z" fill="#6B586B"/>
<path d="M94.277 21.0874V7.68366L88.4973 16.4552H88.3953L82.6581 7.76866V21.0874H78.2256V0.552551H83.0958L88.4973 9.23483L93.8945 0.552551H98.7647V21.0874H94.277Z" fill="#6B586B"/>
<path d="M110.736 21.4487C104.4 21.4487 99.8694 16.7187 99.8694 10.8795V10.8242C99.8694 4.98507 104.476 0.199829 110.813 0.199829C117.149 0.199829 121.696 4.92557 121.696 10.7605V10.8242C121.679 16.6592 117.077 21.4487 110.736 21.4487ZM116.958 10.8242C116.958 7.30544 114.374 4.36885 110.736 4.36885C107.098 4.36885 104.578 7.24594 104.578 10.7648V10.8242C104.578 14.3473 107.158 17.2796 110.796 17.2796C114.433 17.2796 116.958 14.4026 116.958 10.905V10.8242Z" fill="#6B586B"/>
<path d="M122.975 21.0874V0.552551H127.493V21.0874H122.975Z" fill="#6B586B"/>
<path d="M47.079 36.0304V30.6077H50.2281C50.5277 30.5828 50.8292 30.6202 51.1137 30.7175C51.3982 30.8147 51.6595 30.9698 51.8812 31.1729C52.0197 31.3151 52.1285 31.4834 52.2014 31.6679C52.2744 31.8525 52.31 32.0497 52.3062 32.2481C52.3084 32.4486 52.2695 32.6473 52.1921 32.8322C52.1146 33.0171 52.0001 33.1843 51.8557 33.3233C51.6334 33.5283 51.3708 33.6847 51.0848 33.7828C50.7987 33.8808 50.4954 33.9183 50.1941 33.8928H47.9077V36.0176L47.079 36.0304ZM47.9289 31.3557V33.1448H50.2068C50.3926 33.1669 50.5811 33.1496 50.7597 33.094C50.9384 33.0383 51.1034 32.9456 51.2438 32.8218C51.3204 32.7463 51.3813 32.6564 51.4229 32.5572C51.4645 32.4579 51.4859 32.3514 51.486 32.2439C51.4874 32.0407 51.4114 31.8447 51.2735 31.6956C51.1345 31.5689 50.9702 31.473 50.7915 31.4144C50.6128 31.3558 50.4236 31.3358 50.2366 31.3557H47.9289Z" fill="#6B586B"/>
<path d="M55.9609 30.6069H56.7428L59.4287 36.0296H58.5107L57.75 34.4869H54.8942L54.142 36.0296H53.2708L55.9609 30.6069ZM55.2171 33.8239H57.427L56.3518 31.6013H56.3008L55.2171 33.8239Z" fill="#6B586B"/>
<path d="M61.4686 36.0296V30.6069H64.6432C64.9513 30.5778 65.262 30.6143 65.555 30.7139C65.848 30.8135 66.1166 30.974 66.3431 31.1848C66.615 31.4719 66.767 31.8519 66.7681 32.2473C66.7594 32.6155 66.6227 32.9692 66.3815 33.2477C66.1403 33.5261 65.8097 33.7118 65.4464 33.7729L66.8446 36.0381H65.8714L64.571 33.9132H62.3058V36.0381L61.4686 36.0296ZM62.3186 31.3548V33.144H64.8387C64.97 33.1574 65.1026 33.1448 65.2289 33.1067C65.3553 33.0686 65.4728 33.0059 65.5748 32.9221C65.6767 32.8383 65.7611 32.7352 65.8229 32.6186C65.8848 32.5021 65.9229 32.3744 65.9351 32.243C65.9306 32.0387 65.8503 31.8433 65.7099 31.6948C65.5689 31.5644 65.4012 31.4665 65.2184 31.4077C65.0356 31.349 64.8422 31.331 64.6517 31.3548H62.3186Z" fill="#6B586B"/>
<path d="M69.2241 36.0296V30.6069H70.0741V36.0296H69.2241Z" fill="#6B586B"/>
<path d="M77.0736 31.8181C76.4465 31.3672 75.6863 31.1398 74.9147 31.1721C74.1795 31.1721 73.4698 31.3974 73.4698 32.0221C73.4698 32.6468 74.3962 32.6893 75.3142 32.7488C76.3426 32.804 77.9745 32.9018 77.9745 34.3892C77.9745 35.6641 76.7803 36.1996 75.3949 36.1996C74.2605 36.212 73.162 35.8014 72.3138 35.0479L72.8238 34.4614C73.5292 35.1111 74.4529 35.4721 75.4119 35.4729C76.3511 35.4729 77.1118 35.1711 77.1118 34.5082C77.1118 33.7517 76.3001 33.6285 75.3014 33.5562C74.0265 33.4712 72.6156 33.382 72.6156 32.1028C72.6156 30.8236 73.8905 30.4412 74.9317 30.4412C75.8772 30.4268 76.8048 30.6994 77.5921 31.2231L77.0736 31.8181Z" fill="#6B586B"/>
</svg>
