<svg width="82" height="29" viewBox="0 0 82 29" fill="none" xmlns="http://www.w3.org/2000/svg">
<path d="M79.5977 11.4681C82.0292 9.37028 83.1566 3.19418 80.3423 0.199829H75.5719V0.479544C79.1764 2.12007 79.1137 8.2696 75.5719 10.4612L78.0404 20.4092H81.9964L79.5977 11.4681ZM26.1107 7.30599C30.239 9.4556 30.5152 17.475 26.1107 19.9267C21.4216 17.2806 21.9711 9.34511 26.1107 7.30599ZM22.7383 20.4064H29.5372C32.7601 16.7869 32.7288 10.3633 29.4732 6.98711H22.7383C19.5382 9.11714 19.1111 17.6428 22.7383 20.4064ZM38.9113 7.30599C43.0396 9.4556 43.3157 17.475 38.9113 19.9267C34.2221 17.2806 34.7716 9.34511 38.9113 7.30599ZM35.5375 20.4064H42.3378C45.5607 16.7869 45.5294 10.3633 42.2709 6.98711H35.5375C32.3388 9.11714 31.9131 17.6428 35.5375 20.4064ZM8.31353 20.4064H11.4994C11.6831 15.2093 12.0888 10.5926 13.1735 7.67941L15.4028 20.4064H19.4514L15.4911 0.199829H12.3422L9.83245 7.77171L7.24159 0.199829H3.90337L0 20.4064H4.27065L6.49708 7.67941C7.39534 10.6542 8.00177 15.0331 8.32064 20.4064H8.31353ZM75.5378 0.199829H71.6942V20.4064H75.5378V0.199829ZM67.5659 16.9953C66.5523 18.9072 65.4121 19.7267 64.2391 20.0526H64.175V0.564857H64.2391C65.4121 0.890725 66.5523 1.71169 67.5659 3.62354L69.1688 0.199829H60.33V20.4064H69.1688L67.5659 16.9953ZM50.9816 10.4584L53.45 20.4064H57.406L55.0074 11.4681C57.4388 9.37028 58.5662 3.19418 55.7533 0.199829H50.9816V0.479544C54.5888 2.12007 54.5262 8.2696 50.9816 10.4612V10.4584ZM68.0641 12.2667V8.09198L64.2021 10.2052L68.0641 12.2667ZM50.9474 0.199829H47.1038V20.4064H50.9474V0.199829Z" fill="#6B586B"/>
<path d="M33.4731 26.3014H33.8191L34.612 28.3839H34.6191L35.4462 26.3014H35.7693L34.7615 28.8342H34.4668L33.4731 26.3014Z" fill="#6B586B"/>
<path d="M36.0496 26.3014H37.6696V26.5811H36.3556V27.3741H37.5813V27.6538H36.3542V28.5545H37.7336V28.8342H36.0496V26.3014Z" fill="#6B586B"/>
<path d="M38.2093 26.3014H38.8627C38.9859 26.3014 39.109 26.3084 39.2314 26.3224C39.3461 26.3352 39.4577 26.3668 39.5617 26.4161C39.6583 26.4637 39.74 26.5362 39.798 26.6259C39.8648 26.7389 39.8965 26.8687 39.8891 26.9993C39.8927 27.0818 39.8795 27.1641 39.8502 27.2415C39.8208 27.3188 39.776 27.3896 39.7183 27.4496C39.589 27.5716 39.4224 27.6483 39.2442 27.6678L39.9759 28.8342H39.6015L38.9026 27.6972H38.5097V28.8342H38.2036L38.2093 26.3014ZM38.5154 27.4203H38.7887C38.8727 27.4203 38.9609 27.4203 39.052 27.4133C39.1374 27.4103 39.2219 27.3947 39.3026 27.3671C39.376 27.3432 39.4415 27.3002 39.4919 27.2426C39.5462 27.1742 39.5731 27.0886 39.5674 27.0021C39.5712 26.9256 39.5519 26.8496 39.5119 26.7839C39.477 26.7296 39.4278 26.6856 39.3695 26.6566C39.3069 26.6261 39.2396 26.6062 39.1702 26.5979C39.0961 26.5884 39.0214 26.5837 38.9467 26.5839H38.5196L38.5154 27.4203Z" fill="#6B586B"/>
<path d="M41.6315 28.8986C41.4462 28.9007 41.2623 28.8665 41.0906 28.7979C40.9305 28.7339 40.7852 28.6388 40.6635 28.5182C40.5406 28.3988 40.4437 28.256 40.3788 28.0986C40.246 27.7568 40.246 27.3789 40.3788 27.0371C40.4424 26.8788 40.5383 26.7351 40.6608 26.6148C40.7832 26.4945 40.9295 26.4002 41.0906 26.3378C41.4383 26.2036 41.8248 26.2036 42.1725 26.3378C42.3335 26.4002 42.4798 26.4945 42.6023 26.6148C42.7247 26.7351 42.8207 26.8788 42.8842 27.0371C43.0171 27.3789 43.0171 27.7568 42.8842 28.0986C42.8194 28.256 42.7225 28.3988 42.5995 28.5182C42.4778 28.6388 42.3326 28.7339 42.1725 28.7979C42.0008 28.8665 41.8169 28.9007 41.6315 28.8986ZM41.6315 28.6189C41.7734 28.6208 41.9141 28.5932 42.0443 28.5378C42.1667 28.4847 42.2767 28.4076 42.3675 28.3112C42.4587 28.2142 42.5298 28.1006 42.5768 27.9769C42.6754 27.7128 42.6754 27.4229 42.5768 27.1588C42.5298 27.035 42.4587 26.9215 42.3675 26.8245C42.2767 26.7281 42.1667 26.651 42.0443 26.5979C41.9135 26.5444 41.7732 26.5168 41.6315 26.5168C41.4898 26.5168 41.3495 26.5444 41.2187 26.5979C41.0963 26.651 40.9864 26.7281 40.8955 26.8245C40.8044 26.9215 40.7333 27.035 40.6863 27.1588C40.5876 27.4229 40.5876 27.7128 40.6863 27.9769C40.7333 28.1006 40.8044 28.2142 40.8955 28.3112C40.9864 28.4076 41.0963 28.4847 41.2187 28.5378C41.3488 28.5934 41.4896 28.621 41.6315 28.6189Z" fill="#6B586B"/>
<path d="M43.4697 26.3014H43.8569L45.3488 28.3993H45.3559V26.3014H45.662V28.8342H45.2762L43.7829 26.7363H43.7758V28.8342H43.4697V26.3014Z" fill="#6B586B"/>
<path d="M47.1393 26.3014H47.424L48.5188 28.8342H48.1629L47.9009 28.2118H46.6112L46.345 28.8342H46.0005L47.1393 26.3014ZM47.2817 26.6874H47.2746L46.7393 27.9321H47.7913L47.2817 26.6874Z" fill="#6B586B"/>
</svg>
