<svg width="115" height="37" viewBox="0 0 115 37" fill="none" xmlns="http://www.w3.org/2000/svg">
<path d="M1.81572 18.0617H0V17.7941H5.69564V18.0426H4.05193L8.69637 32.1861L12.6718 18.0617H11.3722V17.8132H14.6596V18.0617H12.9585L7.87451 36.1998L1.81572 18.0617Z" fill="#6B586B"/>
<path d="M11.0662 35.3397H12.6525L17.6983 17.8132H18.0041L23.2411 35.3397H25.2479V35.5499H19.5141V35.3397H21.1387L19.5332 29.969H14.4109L12.8819 35.3397H14.4491V35.5499H11.0662V35.3397ZM19.4758 29.7205L16.9338 21.177L14.4683 29.7205H19.4758Z" fill="#6B586B"/>
<path d="M25.7452 35.3588H27.9049V18.0616H25.9554V17.8132H32.0524V18.0616H30.0647L30.0456 35.3397H33.2757C35.0341 35.3397 36.6586 34.1165 37.3658 32.3007C37.6907 31.4215 37.7481 31.0966 37.8819 29.8161H38.0539V35.569H25.7261V35.3588H25.7452Z" fill="#6B586B"/>
<path d="M39.2386 35.3588H41.0544V18.0234H39.3533V17.8132H50.8211V22.2474H50.6873V22.1327C50.6682 20.7948 49.9419 19.2084 49.0053 18.5395C48.4511 18.119 47.9732 17.9852 47.1514 17.9852H43.195V26.2993H44.4947C46.1002 26.3184 47.2469 24.8276 47.3998 22.6105H47.5719V30.4277H47.419V30.313C47.3998 28.0003 46.1957 26.5478 44.2653 26.5478H43.195V35.3397H46.6353C49.1773 35.3588 51.2415 33.1799 51.5282 30.1028H51.6429V35.569H39.2386V35.3588Z" fill="#6B586B"/>
<path d="M52.8473 35.3588H54.3572V18.0808H52.8473V17.8514H56.8992L63.7416 30.9247V18.0808H62.3273V17.8514H65.5956V18.0808H63.971V36.0278L54.5866 18.0808V35.3397H56.0774V35.5691H52.8664V35.3588H52.8473Z" fill="#6B586B"/>
<path d="M70.6603 35.3588H72.2658V18.0043H71.3675C70.087 18.0043 67.8316 19.9538 67.392 22.8399H67.2391V17.8132H79.3949V22.8781H79.2611C79.0318 20.2405 77.4072 18.0425 75.687 18.0425H74.3682V35.3588H76.0311V35.569H70.6603V35.3588Z" fill="#6B586B"/>
<path d="M80.8094 35.3588H82.5487V18.0616H80.8286V17.8132H86.2566V18.0234H84.5556V35.3206H86.2566V35.5499H80.8094V35.3588Z" fill="#6B586B"/>
<path d="M87.9192 35.3588H89.4291V18.0808H87.9192V17.8514H91.9711L98.8135 30.9247V18.0808H97.3801V17.8514H100.667V18.0808H99.0429V36.0278L89.6393 18.0808V35.3397H91.1302V35.5691H87.9192V35.3588Z" fill="#6B586B"/>
<path d="M101.432 27.2549C101.432 22.2282 104.567 17.8132 108.122 17.8132C111.638 17.8132 114.677 22.2091 114.677 27.2741C114.677 32.014 111.581 36.0469 107.931 36.0469C104.433 36.0469 101.432 31.9949 101.432 27.2549ZM112.116 31.1157C112.365 29.7014 112.479 28.2679 112.479 26.8153C112.479 23.4515 111.81 20.5654 110.683 19.2466C110.014 18.4821 109.058 18.0425 108.045 18.0616C106.096 18.0616 104.815 19.3995 104.184 22.0562C103.802 23.6617 103.63 25.3245 103.63 26.9874C103.63 30.657 104.28 33.5431 105.369 34.8045C105.943 35.4544 106.841 35.7984 107.873 35.7984C110.243 35.8175 111.505 34.4223 112.116 31.1157Z" fill="#6B586B"/>
<path d="M0 17.5647H1.6246V0.229357H0V0H4.77822C8.79193 0 11.0664 1.68194 11.0664 4.66355C11.0664 6.80419 9.76669 7.97008 6.99532 8.42879C8.08475 8.69637 8.42878 8.61992 9.23153 9.23153C10.3974 10.1298 10.7988 11.2575 10.7988 12.9394V13.1879L10.8752 14.9272V15.2139C10.8752 16.8576 11.2193 17.6221 11.9838 17.6221H13.2835V17.8323H11.8118C10.7797 17.8323 9.61378 17.2207 9.15507 16.3415C8.86838 15.6535 8.71548 14.9272 8.71548 14.1818L8.69637 11.678V11.506C8.67725 9.09774 7.91274 8.46701 5.96322 8.46701H3.91814V17.5647H5.73387V17.8132H0V17.5647ZM5.98233 8.21854H6.21169C7.89362 8.21854 8.86838 6.72774 8.86838 4.12839C8.86838 1.54815 7.62604 0.172018 5.27516 0.172018H3.8608V8.19943H5.98233V8.21854Z" fill="#6B586B"/>
<path d="M13.5129 17.603H15.2904V0.210243H13.6085V0H24.9042V4.4533H24.7704V4.33863C24.7513 3.00073 24.025 1.41436 23.1076 0.745404C22.5533 0.324921 22.0755 0.191129 21.2728 0.191129H17.3546V8.54346H18.6352C20.2025 8.56258 21.3492 7.07177 21.5021 4.83556H21.6741V12.6719H21.5212V12.5381C21.5021 10.2063 20.3171 8.75371 18.425 8.75371H17.3546V17.5839H20.7567C23.2605 17.603 25.2865 15.4241 25.5732 12.3278H25.6878V17.8323H13.5129V17.603Z" fill="#6B586B"/>
<path d="M25.9553 17.603H27.8857V0.210243H25.9553V0H31.8612C36.0852 0 38.9712 3.61234 38.9712 8.90661C38.9712 12.6718 37.3466 15.8828 34.9193 17.0296C33.7725 17.5647 32.511 17.8323 31.2496 17.8132H25.9553V17.603ZM31.3834 17.603H31.5363C34.2121 17.603 35.6456 16.1122 36.3527 12.5954C36.6012 11.2957 36.735 9.97693 36.735 8.63903C36.735 4.64443 35.7602 1.75839 34.0592 0.764516C33.3329 0.363145 32.5302 0.152905 31.7083 0.172018H30.0646V17.5839H31.3834V17.603Z" fill="#6B586B"/>
</svg>
