<svg width="157" height="12" viewBox="0 0 157 12" fill="none" xmlns="http://www.w3.org/2000/svg">
<path d="M59.8298 0.288325V1.05956H56.4261V11.7565H55.0374V1.05956H51.596V0.288325H59.8298ZM8.62233 0.288325V1.05914H12.0651V11.7569H13.4529V1.05914H16.8562V0.288325H8.62233ZM50.532 11.7569H49.0105L45.8651 6.69466H43.8388V11.7569H42.4479V0.288325H46.0743C49.3469 0.288325 49.6022 2.72256 49.6022 3.46868C49.6022 5.17562 48.3663 6.14521 47.2555 6.48208L50.532 11.7569ZM46.0904 5.92007C47.4435 5.92007 48.1519 4.41484 48.1519 3.60845C48.1519 2.06138 47.3675 1.06291 46.1529 1.06291L43.8388 1.05831V5.92049H46.0904V5.92007ZM26.6601 0.288325V7.73999C26.6601 9.99805 25.6196 11.1421 23.5689 11.1421C20.9839 11.1421 20.7834 8.56354 20.7834 7.7718V0.288325H19.3965V7.89399C19.3965 8.4087 19.4781 9.40633 20.0298 10.301C20.7274 11.4288 21.9198 12 23.5763 12C25.3513 12 27.4671 11.289 27.4671 7.89399V0.288325H26.6601ZM40.0717 11.7569H38.6019L36.823 7.85214H31.8027L30.1892 11.7569H29.3363L34.1399 0.0765797H34.6743L40.0717 11.7569ZM36.4679 7.07421L34.1894 2.07728L32.1248 7.07421H36.4679ZM3.86948 5.14884C2.06714 4.68099 1.18984 3.97545 1.18984 2.98954C1.18984 1.58558 2.17436 0.745292 3.82216 0.745292C5.31543 0.745292 6.38199 1.89901 6.65026 2.25262V0.906821C6.16408 0.54652 5.16611 0 3.83606 0C1.2072 0 0.024309 1.83917 0.024309 3.14521C0.024309 4.74794 1.09347 5.82592 3.29474 6.43981C5.32672 7.00893 6.23267 7.75255 6.23267 8.85354C6.23267 10.2299 5.11749 11.1919 3.5183 11.1919C2.70438 11.1919 1.38388 10.9254 0 9.45027V10.7567C0.663724 11.3736 2.10404 11.9753 3.52091 11.9753C5.66097 11.9753 7.47026 10.5048 7.47026 8.76273C7.47069 8.09946 7.47069 6.08118 3.86948 5.14884ZM91.4954 1.05496V0.288325H85.0643V11.7569H91.4954V10.971H86.4517L86.4504 6.04394H90.9953V5.26433H86.4504V1.05496H91.4954ZM94.9881 11.7569H96.3728V0.288325H94.9881V11.7569ZM99.5681 0.288325V1.05956H103.009V11.7565H104.397V1.05956H107.801V0.288325H99.5681ZM118.327 0.288325H110.559V1.05914H116.218L109.242 11.7569H118.055V10.9735H111.361L118.327 0.288325ZM131.939 0.0719766L127.207 9.91268L121.659 0.0719766H121.083V11.7565H121.892V3.20505L126.751 11.7585H127.169L131.243 3.31971V11.7569H132.622V0.0719766H131.939ZM145.933 11.7569H144.462L142.684 7.85214H137.663L136.05 11.7569H135.198L140 0.0765797H140.534L145.933 11.7569ZM142.329 7.07421L140.052 2.07728L137.986 7.07421H142.329ZM156.187 0.288325V9.53146L149.076 0.0761612H148.522V11.7565H149.335V2.58446L156.362 11.9276H157V0.288325H156.187ZM81.5651 0.287906L78.9771 9.20965L75.7197 0.0765797H75.1089L72.4583 9.2561L69.26 0.287906H67.8101L71.9413 11.9364H72.5043L75.1779 2.66523L78.4883 11.9364H79.0513L82.3782 0.287906H81.5651Z" fill="#6B586B"/>
</svg>
