<svg width="18" height="16" viewBox="0 0 18 16" fill="none" xmlns="http://www.w3.org/2000/svg">
<path d="M13.4508 0.999999L17 0.999999L17 15L13.4508 15C13.3752 15 13.3028 14.9716 13.2494 14.9212C13.196 14.8707 13.1659 14.8022 13.1659 14.7308C13.1659 14.6594 13.196 14.5909 13.2494 14.5404C13.3028 14.4899 13.3752 14.4615 13.4508 14.4615L16.4303 14.4615L16.4303 1.53846L13.4508 1.53846C13.3752 1.53846 13.3028 1.51011 13.2494 1.45962C13.196 1.40913 13.1659 1.34063 13.1659 1.26923C13.1659 1.19783 13.196 1.12933 13.2494 1.07884C13.3028 1.02835 13.3752 0.999999 13.4508 0.999999ZM1 8C1 8.0714 1.02996 8.1399 1.08338 8.19039C1.1368 8.24088 1.2093 8.26923 1.28485 8.26923L12.7814 8.26923L9.28909 11.6723C9.23859 11.7224 9.21044 11.7889 9.21044 11.8581C9.21044 11.9272 9.23859 11.9938 9.28909 12.0439C9.31557 12.0691 9.34708 12.0891 9.38179 12.1028C9.41651 12.1164 9.45372 12.1235 9.49132 12.1235C9.52893 12.1235 9.56621 12.1164 9.60093 12.1028C9.63564 12.0891 9.66715 12.0691 9.69363 12.0439L13.6473 8.17231L13.841 7.98117L9.69363 3.92115C9.66715 3.89591 9.63564 3.87589 9.60093 3.86222C9.56621 3.84855 9.52893 3.84151 9.49132 3.84151C9.45372 3.84151 9.41651 3.84855 9.38179 3.86222C9.34708 3.87589 9.31557 3.89591 9.28909 3.92115C9.23643 3.97449 9.20717 4.04472 9.20717 4.11768C9.20717 4.19064 9.23643 4.26091 9.28909 4.31425L12.7814 7.73077L1.28485 7.73077C1.2093 7.73077 1.1368 7.75912 1.08338 7.80961C1.02996 7.8601 1 7.9286 1 8Z" fill="url(#paint0_linear)" stroke="url(#paint1_linear)" stroke-width="0.3"/>
<defs>
<linearGradient id="paint0_linear" x1="0.999991" y1="0.999999" x2="1.50897" y2="15.5422" gradientUnits="userSpaceOnUse">
<stop stop-color="#FAA6A6"/>
<stop offset="1" stop-color="#F8CEBC"/>
</linearGradient>
<linearGradient id="paint1_linear" x1="0.999991" y1="0.999999" x2="1.50897" y2="15.5422" gradientUnits="userSpaceOnUse">
<stop stop-color="#FAA6A6"/>
<stop offset="1" stop-color="#F8CEBC"/>
</linearGradient>
</defs>
</svg>
