<svg width="60" height="24" viewBox="0 0 60 24" fill="none" xmlns="http://www.w3.org/2000/svg">
<path d="M23.6514 11.1085H23.89C23.9165 11.6271 24.1374 12.0547 24.5615 12.3822C24.9856 12.7098 25.5157 12.8826 26.1518 12.8826C26.7703 12.8826 27.2827 12.7189 27.6803 12.3913C28.0779 12.0638 28.2723 11.6453 28.2723 11.1358C28.2723 10.7355 28.1398 10.4171 27.8659 10.1715C27.592 9.92583 27.1502 9.72569 26.5317 9.57102L25.7277 9.36177C25.0739 9.19801 24.5968 8.97057 24.2964 8.69763C23.996 8.4247 23.8458 8.06079 23.8458 7.62409C23.8458 7.08732 24.0667 6.63244 24.4996 6.26852C24.9325 5.90461 25.4627 5.72266 26.0723 5.72266C26.7173 5.72266 27.2562 5.89552 27.698 6.24123C28.1398 6.58695 28.3695 7.01454 28.3872 7.52402H28.1486C28.1221 7.07823 27.9189 6.70522 27.5213 6.40499C27.1325 6.10476 26.6466 5.9592 26.0723 5.9592C25.5157 5.9592 25.0474 6.11386 24.6675 6.43229C24.2787 6.75071 24.0932 7.14191 24.0932 7.62409C24.0932 8.0062 24.2257 8.30643 24.4996 8.54297C24.7735 8.77951 25.2064 8.97057 25.8072 9.12523L26.6024 9.32538C27.2651 9.49824 27.7598 9.72568 28.0602 10.0077C28.3695 10.2897 28.5197 10.6628 28.5197 11.1176C28.5197 11.6999 28.2988 12.173 27.857 12.546C27.4153 12.919 26.8498 13.101 26.143 13.101C25.4362 13.101 24.853 12.9099 24.3848 12.5369C23.9253 12.173 23.6691 11.6908 23.6514 11.1085Z" fill="black"/>
<path d="M36.0297 5.83179V13.0099H35.7912V6.40495H35.7735L32.955 13.0099H32.6988L29.8804 6.40495H29.8627V13.0099H29.6241V5.83179H29.8804L32.8225 12.7006H32.8402L35.7647 5.83179H36.0297Z" fill="black"/>
<path d="M42.3292 13.0099L41.4192 10.5171H38.1767L37.2489 13.0099H36.9839L39.6698 5.83179H39.9172L42.6031 13.0099H42.3292ZM39.7847 6.1684L38.265 10.2806H41.3309L39.8112 6.1684H39.7847Z" fill="black"/>
<path d="M43.7873 9.8712V13.0099H43.5399V5.83179H45.7046C46.4026 5.83179 46.9503 6.01374 47.3479 6.36856C47.7455 6.73247 47.9487 7.22375 47.9487 7.85149C47.9487 8.37917 47.7985 8.81586 47.507 9.16158C47.2154 9.50729 46.8001 9.73474 46.2789 9.82572L48.1166 13.0099H47.8427L46.0226 9.86211C45.9078 9.8712 45.8018 9.8712 45.7046 9.8712H43.7873ZM43.7873 6.05923V9.64376H45.7046C46.323 9.64376 46.8178 9.48 47.1712 9.16158C47.5246 8.84316 47.7013 8.40646 47.7013 7.85149C47.7013 7.28743 47.5246 6.85074 47.1712 6.53232C46.8178 6.21389 46.323 6.05923 45.6957 6.05923H43.7873Z" fill="black"/>
<path d="M51.3416 13.0099H51.103V6.06833H48.585V5.83179H53.8508V6.06833H51.3327L51.3416 13.0099Z" fill="black"/>
<path d="M26.7794 13.7385C27.7159 13.7385 28.4669 14.0751 29.0147 14.7393C29.5713 15.4034 29.8452 16.3041 29.8452 17.4322C29.8452 18.5604 29.5713 19.461 29.0147 20.1252C28.4581 20.7893 27.7159 21.1259 26.7705 21.1259C25.8252 21.1259 25.083 20.7893 24.5264 20.1252C23.9698 19.461 23.6959 18.5604 23.6959 17.4322C23.6959 16.3041 23.9698 15.4125 24.5264 14.7393C25.083 14.066 25.8252 13.7385 26.7794 13.7385ZM26.7794 13.966C25.9135 13.966 25.2244 14.2753 24.7119 14.903C24.1995 15.5217 23.9432 16.3678 23.9432 17.4231C23.9432 18.4785 24.1995 19.3155 24.7119 19.9432C25.2244 20.571 25.9135 20.8803 26.7794 20.8803C27.6364 20.8803 28.3256 20.571 28.838 19.9432C29.3504 19.3155 29.6067 18.4785 29.6067 17.4231C29.6067 16.3678 29.3504 15.5308 28.838 14.903C28.3256 14.2844 27.6364 13.966 26.7794 13.966Z" fill="black"/>
<path d="M31.2413 17.8773V21.016H30.994V13.8379H33.1586C33.8566 13.8379 34.4044 14.0198 34.802 14.3747C35.1996 14.7386 35.4028 15.2299 35.4028 15.8576C35.4028 16.3853 35.2526 16.822 34.961 17.1677C34.6606 17.5134 34.2542 17.7408 33.7329 17.8318L35.5706 21.016H35.2968L33.4767 17.8682C33.3618 17.8773 33.2558 17.8773 33.1586 17.8773H31.2413ZM31.2413 14.0653V17.6499H33.1586C33.7771 17.6499 34.2719 17.4861 34.6253 17.1677C34.9787 16.8493 35.1554 16.4126 35.1554 15.8576C35.1554 15.2935 34.9787 14.8568 34.6253 14.5384C34.2719 14.22 33.7771 14.0653 33.1498 14.0653H31.2413Z" fill="black"/>
<path d="M41.5083 21.016L40.5982 18.5233H37.3557L36.4368 21.016H36.1718L38.8577 13.8379H39.1051L41.791 21.016H41.5083ZM38.9725 14.1745L37.444 18.2867H40.5099L38.9902 14.1745H38.9725Z" fill="black"/>
<path d="M42.9658 21.016H42.7184V13.8379H42.9835L47.6132 20.543H47.6309V13.8379H47.8694V21.016H47.6485L42.9835 14.2564H42.9658V21.016Z" fill="black"/>
<path d="M54.8049 18.2049C54.8049 19.1056 54.5575 19.8152 54.0627 20.3338C53.568 20.8523 52.8876 21.1071 52.0306 21.1071C51.4475 21.1071 50.9262 20.9524 50.4668 20.634C50.0073 20.3247 49.6539 19.8789 49.4065 19.3148C49.1503 18.7507 49.0266 18.0957 49.0266 17.3679C49.0266 16.2761 49.3005 15.3937 49.8571 14.7295C50.4049 14.0654 51.1382 13.7288 52.0395 13.7288C52.7286 13.7288 53.3206 13.9289 53.8242 14.3201C54.3278 14.7113 54.637 15.2208 54.7696 15.8576H54.531C54.3985 15.2845 54.0981 14.8296 53.6475 14.4839C53.1969 14.1382 52.6579 13.9653 52.0395 13.9653C51.2089 13.9653 50.5374 14.2746 50.0338 14.9024C49.5302 15.5301 49.2828 16.3489 49.2828 17.377C49.2828 18.4141 49.5391 19.2602 50.0515 19.9062C50.564 20.5521 51.2266 20.8796 52.0483 20.8796C52.8346 20.8796 53.4531 20.6431 53.9037 20.17C54.3543 19.6969 54.584 19.0419 54.584 18.2231V17.7227H52.0218V17.4952H54.8226V18.2049H54.8049Z" fill="black"/>
<path d="M60.0005 20.7795V21.016H56.007V13.8379H60.0005V14.0744H56.2543V17.2223H59.8327V17.4497H56.2543V20.7886H60.0005V20.7795Z" fill="black"/>
<path d="M20.4003 15.4845L20.312 14.975L21.3634 13.0008L20.3473 11.3268L20.7449 10.2987L19.773 9.52544L19.6405 7.43295L17.7321 6.55046L17.3787 5.70437L16.8132 5.51331L15.9739 4.13954L14.198 4.22142L12.696 2.84766L11.3265 3.32984L10.8847 3.0842L9.79799 3.63007L7.70403 3.16608L6.86467 4.07586L6.29038 3.99398L5.4687 5.29496L3.13618 6.05008L2.6414 8.20626L2.22614 8.52468L2.19964 9.00686L1.98759 9.21611L2.00526 9.50724L0.591614 11.0994L1.21008 12.7824L0.697638 13.765L1.23659 14.7476L0.874344 16.3943L2.28799 17.8772L2.44703 19.1782L3.35706 19.6422L3.9932 21.6346L6.14018 22.0167L6.86467 22.9811L7.8984 22.9447L9.16185 23.8999L10.7964 23.2631L12.6253 24L13.4116 23.3086L14.1184 23.4542L15.2759 22.1259L17.3433 21.8711L17.8823 20.4792L18.271 20.3063L18.6244 19.1327L20.4887 17.8499L20.259 15.7119L20.4003 15.4845Z" fill="#727376"/>
<path d="M18.2093 17.4497L17.7498 18.3958L18.6687 16.3215L18.2093 17.4497Z" fill="#898A8D"/>
<path d="M14.9575 21.5436L14.3125 21.8074L16.1502 20.4246L14.9575 21.5436Z" fill="#A0A1A3"/>
<path d="M19.8878 11.9092L19.1103 9.39819L19.8171 10.7265L19.8878 11.9092Z" fill="#8D8E91"/>
<path d="M6.44033 21.6073L5.76001 21.2161L8.01301 22.044L6.44033 21.6073Z" fill="#6C6E70"/>
<path d="M20.4006 15.4844L19.7291 16.4943L20.2062 14.238L20.4006 15.4844Z" fill="#F2F2F2"/>
<path d="M2.00522 10.2441L1.98755 9.21602L3.10963 8.08789L2.00522 10.2441Z" fill="#E5E5E5"/>
<path d="M15.8417 21.3799L17.3083 20.5429L18.2714 20.3064L15.8417 21.3799Z" fill="#A0A0A0"/>
<path d="M18.2712 20.3064L17.3082 20.5429L18.7572 18.696L18.2712 20.3064Z" fill="#CCCCCC"/>
<path d="M16.195 5.40405L17.3789 5.70428L17.9444 7.05985L16.195 5.40405Z" fill="#D8D8D8"/>
<path d="M14.8868 4.85815L17.3784 5.70425L16.1945 5.40402L14.8868 4.85815Z" fill="#F2F2F2"/>
<path d="M2.3764 17.5498L3.77238 19.8424L2.44709 19.1783L2.3764 17.5498Z" fill="#999999"/>
<path d="M2.37584 17.5496L2.44652 19.1781L2.07544 16.2668L2.37584 17.5496Z" fill="#A5A5A5"/>
<path d="M14.1188 23.4542L11.6449 22.9265L13.2353 22.9993L14.1188 23.4542Z" fill="#BFBFBF"/>
<path d="M14.1188 23.4542L13.2353 22.9994L15.3999 21.9895L14.1188 23.4542Z" fill="#D8D8D8"/>
<path d="M1.53753 14.9297L2.07649 16.267L0.698181 13.7651L1.53753 14.9297Z" fill="#BFBFBF"/>
<path d="M1.34316 12.5005L1.53753 14.9296L0.698181 13.7651L1.34316 12.5005Z" fill="#D8D8D8"/>
<path d="M11.6445 22.9265L9.1618 23.9L10.8405 23.154L11.6445 22.9265Z" fill="#CCCCCC"/>
<path d="M12.696 2.84766L14.8871 4.85827L14.0213 4.23052L12.696 2.84766Z" fill="#E5E5E5"/>
<path d="M21.3636 13.0008L20.1973 11.718L19.8262 10.4807L21.3636 13.0008Z" fill="#E5E5E5"/>
<path d="M20.1974 11.7179L19.4552 9.26147L19.8263 10.4806L20.1974 11.7179Z" fill="#808183"/>
<path d="M19.8263 10.4806L19.4552 9.26151L19.6407 7.43286L19.8263 10.4806Z" fill="#D8D8D8"/>
<path d="M9.16184 23.9001L8.23413 22.7083L10.8405 23.154L9.16184 23.9001Z" fill="#999999"/>
<path d="M9.16141 23.8999L6.84656 22.144L8.2337 22.7081L9.16141 23.8999Z" fill="#999999"/>
<path d="M7.27981 4.31234L5.875 5.16753L7.70391 3.16602L7.27981 4.31234Z" fill="#F2F2F2"/>
<path d="M7.70367 3.16602L10.1952 3.72098L9.40888 3.81196L7.70367 3.16602Z" fill="#F2F2F2"/>
<path d="M7.28033 4.31234L7.70443 3.16602L9.40964 3.81196L7.28033 4.31234Z" fill="#E5E5E5"/>
<path d="M11.6888 3.71195L12.696 2.84766L14.0213 4.23052L11.6888 3.71195Z" fill="#F2F2F2"/>
<path d="M10.1954 3.72101L11.6886 3.71191L9.40906 3.81199L10.1954 3.72101Z" fill="#9C9EA0"/>
<path d="M10.1956 3.72104L12.6959 2.84766L11.6887 3.71195L10.1956 3.72104Z" fill="#E5E5E5"/>
<path d="M5.21228 5.68627L5.87493 5.16769L7.27974 4.3125L5.21228 5.68627Z" fill="#B9B9BA"/>
<path d="M5.21216 5.68606L3.13586 6.04997L5.8748 5.16748L5.21216 5.68606Z" fill="#E5E5E5"/>
<path d="M21.3633 13.0008L20.1617 13.9015L20.197 11.718L21.3633 13.0008Z" fill="#F2F2F2"/>
<path d="M20.197 15.2115L20.1617 13.9014L21.3633 13.0007L20.197 15.2115Z" fill="#E5E5E5"/>
<path d="M13.2353 22.9994L14.6578 22.1988L15.3999 21.9895L13.2353 22.9994Z" fill="#BFBFBF"/>
<path d="M1.49279 13.5922L1.53697 14.9296L1.34259 12.5005L1.49279 13.5922Z" fill="#A5A5A5"/>
<path d="M6.8472 22.144L5.84882 21.5981L8.23435 22.7081L6.8472 22.144Z" fill="#6E6F72"/>
<path d="M6.84678 22.144L3.99298 21.6345L5.84839 21.5981L6.84678 22.144Z" fill="#999999"/>
<path d="M3.31257 7.80606L3.13586 6.05019L5.21216 5.68628L3.31257 7.80606Z" fill="#F2F2F2"/>
<path d="M3.31288 7.80592L2.44702 8.99773L3.13617 6.05005L3.31288 7.80592Z" fill="#E5E5E5"/>
<path d="M17.3431 6.37769L19.6403 7.43303L18.1913 7.66047L17.3431 6.37769Z" fill="#E5E5E5"/>
<path d="M18.1914 7.66031L19.6404 7.43286L19.4549 9.26151L18.1914 7.66031Z" fill="#F2F2F2"/>
<path d="M8.23413 22.7083L9.79798 22.872L10.8405 23.154L8.23413 22.7083Z" fill="#CCCCCC"/>
<path d="M20.489 17.85L19.6496 15.7848L20.1974 15.2117L20.489 17.85Z" fill="#D8D8D8"/>
<path d="M19.6496 15.7846L20.162 13.9014L20.1974 15.2115L19.6496 15.7846Z" fill="#CCCCCC"/>
<path d="M2.15582 10.0622L2.44739 8.99772L3.31325 7.80591L2.15582 10.0622Z" fill="#B9BABA"/>
<path d="M2.15546 10.0622L0.591614 11.0994L2.44702 8.9978L2.15546 10.0622Z" fill="#F2F2F2"/>
<path d="M11.6888 3.71191L14.0213 4.23049L13.235 4.35786L11.6888 3.71191Z" fill="#CCCCCC"/>
<path d="M13.2353 4.358L14.0216 4.23063L15.9742 4.13965L13.2353 4.358Z" fill="#F2F2F2"/>
<path d="M7.28033 4.31239L9.40964 3.81201L8.76466 4.33059L7.28033 4.31239Z" fill="#CCCCCC"/>
<path d="M3.3125 7.80606L5.21209 5.68628L4.59362 6.69613L3.3125 7.80606Z" fill="#E5E5E5"/>
<path d="M4.15202 19.624L5.84839 21.5983L3.99298 21.6346L4.15202 19.624Z" fill="#A5A5A5"/>
<path d="M4.15205 19.624L3.99301 21.6346L3.06531 18.7051L4.15205 19.624Z" fill="#B2B2B2"/>
<path d="M20.489 17.8499L18.722 17.6952L19.6497 15.7847L20.489 17.8499Z" fill="#E5E5E5"/>
<path d="M18.3153 19.3511L18.7217 17.6953L20.4888 17.85L18.3153 19.3511Z" fill="#F2F2F2"/>
<path d="M20.1972 11.7181L19.7113 12.1275L20.745 10.2988L20.1972 11.7181Z" fill="#CCCCCC"/>
<path d="M20.1619 13.9015L19.7113 12.1274L20.1972 11.718L20.1619 13.9015Z" fill="#D8D8D8"/>
<path d="M18.9336 9.5708L19.4549 9.26147L20.7448 10.2986L18.9336 9.5708Z" fill="#E5E5E5"/>
<path d="M18.9336 9.57104L20.7448 10.2989L19.7111 12.1275L18.9336 9.57104Z" fill="#F2F2F2"/>
<path d="M18.1914 7.6604L19.4549 9.26161L18.9336 9.57094L18.1914 7.6604Z" fill="#CCCCCC"/>
<path d="M2.15546 10.0623L1.96108 12.2457L0.591614 11.0994L2.15546 10.0623Z" fill="#D8D8D8"/>
<path d="M1.96108 12.2457L1.49281 13.5922L0.591614 11.0994L1.96108 12.2457Z" fill="#B2B2B2"/>
<path d="M17.3433 6.37769L18.1915 7.66047L16.7072 6.55964L17.3433 6.37769Z" fill="#CCCCCC"/>
<path d="M15.9739 4.13965L17.3434 6.37771L16.7073 6.55966L15.9739 4.13965Z" fill="#E5E5E5"/>
<path d="M8.76416 4.33063L9.40914 3.81205L10.8846 3.08423L8.76416 4.33063Z" fill="#D8D8D8"/>
<path d="M17.3431 21.8712L17.4138 19.3602L18.315 19.3511L17.3431 21.8712Z" fill="#D8D8D8"/>
<path d="M17.4138 19.3602L18.7214 17.6953L18.315 19.3511L17.4138 19.3602Z" fill="#E5E5E5"/>
<path d="M12.6251 24L9.79785 22.8719L11.5296 22.4897L12.6251 24Z" fill="#A5A5A5"/>
<path d="M12.6251 23.9999L11.5295 22.4897L13.8443 21.8438L12.6251 23.9999Z" fill="#CCCCCC"/>
<path d="M12.6253 23.9999L13.8446 21.8438L14.6574 22.1986L12.6253 23.9999Z" fill="#E5E5E5"/>
<path d="M14.6573 22.1986L15.7087 20.7793L17.3433 21.871L14.6573 22.1986Z" fill="#CCCCCC"/>
<path d="M17.3435 21.8711L15.709 20.7794L17.4142 19.3601L17.3435 21.8711Z" fill="#E5E5E5"/>
<path d="M13.8447 21.8437L15.7089 20.7793L14.6575 22.1986L13.8447 21.8437Z" fill="#D8D8D8"/>
<path d="M2.90645 17.1312L3.06548 18.7051L0.874329 16.3943L2.90645 17.1312Z" fill="#B2B2B2"/>
<path d="M4.15209 19.6241L3.06535 18.7053L2.90631 17.1313L4.15209 19.6241Z" fill="#999999"/>
<path d="M2.18195 14.5837L2.90645 17.1311L0.874329 16.3942L2.18195 14.5837Z" fill="#999999"/>
<path d="M2.18232 14.5837L1.49316 13.5921L1.96143 12.2456L2.18232 14.5837Z" fill="#D8D8D8"/>
<path d="M2.18195 14.5837L0.874329 16.3942L1.4928 13.592L2.18195 14.5837Z" fill="#F2F2F2"/>
<path d="M14.7901 5.68627L15.974 4.13965L16.7074 6.55966L14.7901 5.68627Z" fill="#F2F2F2"/>
<path d="M13.2353 4.35799L15.9742 4.13965L14.7903 5.68627L13.2353 4.35799Z" fill="#E5E5E5"/>
<path d="M6.35216 6.0318L4.59393 6.69594L6.29031 3.9939L6.35216 6.0318Z" fill="#D8D8D8"/>
<path d="M9.79813 22.872L6.86481 22.9811L9.00295 22.0623L9.79813 22.872Z" fill="#A5A5A5"/>
<path d="M9.79811 22.872L9.00293 22.0623L11.5298 22.4899L9.79811 22.872Z" fill="#999999"/>
<path d="M5.69809 20.2973L5.84829 21.5982L4.15192 19.624L5.69809 20.2973Z" fill="#999999"/>
<path d="M5.6983 20.2974L6.86456 22.9812L5.8485 21.5983L5.6983 20.2974Z" fill="#BFBFBF"/>
<path d="M6.35231 6.0318L6.29047 3.9939L8.51696 5.2312L6.35231 6.0318Z" fill="#E5E5E5"/>
<path d="M6.29047 3.9939L8.76435 4.33052L8.51696 5.2312L6.29047 3.9939Z" fill="#D8D8D8"/>
<path d="M2.2265 8.52466L2.87148 10.9993L2.15582 10.0622L2.2265 8.52466Z" fill="#D8D8D8"/>
<path d="M2.87097 10.9993L1.96094 12.2457L2.15532 10.0623L2.87097 10.9993Z" fill="#BFBFBF"/>
<path d="M13.2354 4.35791L14.7904 5.68619L12.7141 5.25859L13.2354 4.35791Z" fill="#CCCCCC"/>
<path d="M10.8845 3.08423L13.2346 4.35792L12.7134 5.2586L10.8845 3.08423Z" fill="#D8D8D8"/>
<path d="M4.5412 8.07898L4.59421 6.69612L6.35243 6.03198L4.5412 8.07898Z" fill="#F2F2F2"/>
<path d="M4.54129 8.07891L2.22644 8.5247L4.5943 6.69604L4.54129 8.07891Z" fill="#D8D8D8"/>
<path d="M8.76416 4.33063L10.8846 3.08423L10.5312 5.13123L8.76416 4.33063Z" fill="#F2F2F2"/>
<path d="M10.5311 5.13123L10.8845 3.08423L12.7134 5.2586L10.5311 5.13123Z" fill="#E5E5E5"/>
<path d="M8.76472 4.33057L10.5318 5.13117L8.51733 5.23125L8.76472 4.33057Z" fill="#E5E5E5"/>
<path d="M18.9339 9.57104L19.7115 12.1275L18.448 11.1359L18.9339 9.57104Z" fill="#E5E5E5"/>
<path d="M18.448 11.1357L19.7114 12.1274L20.2681 13.9652L18.448 11.1357Z" fill="#CCCCCC"/>
<path d="M18.7216 17.6953L18.5626 15.6301L19.6493 15.7848L18.7216 17.6953Z" fill="#D8D8D8"/>
<path d="M19.6493 15.7846L18.5626 15.63L20.2678 13.9651L19.6493 15.7846Z" fill="#F2F2F2"/>
<path d="M16.7072 6.55957L18.1915 7.6604L18.3859 7.85145L16.7072 6.55957Z" fill="#E5E5E5"/>
<path d="M18.3859 7.85132L18.9337 9.5708L18.4478 11.1356L18.3859 7.85132Z" fill="#D8D8D8"/>
<path d="M7.48303 20.5885L6.86456 22.9812L5.6983 20.2974L7.48303 20.5885Z" fill="#A5A5A5"/>
<path d="M7.48328 20.5884L9.00295 22.0622L6.86481 22.9811L7.48328 20.5884Z" fill="#BFBFBF"/>
<path d="M14.7901 5.68628L16.7074 6.55967L16.0182 7.48764L14.7901 5.68628Z" fill="#E5E5E5"/>
<path d="M16.0178 7.48754L16.707 6.55957L18.3857 7.85145L16.0178 7.48754Z" fill="#F2F2F2"/>
<path d="M11.5295 22.4898L12.4395 21.1707L13.8443 21.8439L11.5295 22.4898Z" fill="#D8D8D8"/>
<path d="M11.5297 22.4898L10.6639 22.7901L12.4398 21.1707L11.5297 22.4898Z" fill="#E5E5E5"/>
<path d="M3.52497 15.6027L2.9065 17.1311L2.18201 14.5837L3.52497 15.6027Z" fill="#BFBFBF"/>
<path d="M4.1702 10.1441L2.87142 10.9993L2.22644 8.52466L4.1702 10.1441Z" fill="#CCCCCC"/>
<path d="M4.54129 8.07886L4.1702 10.1441L2.22644 8.52465L4.54129 8.07886Z" fill="#E5E5E5"/>
<path d="M15.709 20.7794L15.974 18.8779L17.4142 19.3601L15.709 20.7794Z" fill="#D8D8D8"/>
<path d="M18.4474 11.1357L20.2675 13.9652L17.7671 12.8825L18.4474 11.1357Z" fill="#F2F2F2"/>
<path d="M17.7671 12.8826L20.2675 13.9652L18.5623 15.6301L17.7671 12.8826Z" fill="#D8D8D8"/>
<path d="M6.3526 6.03181L8.51725 5.2312L7.94295 6.84151L6.3526 6.03181Z" fill="#D8D8D8"/>
<path d="M18.4476 11.1358L17.7673 12.8826L16.8838 9.96216L18.4476 11.1358Z" fill="#CCCCCC"/>
<path d="M18.3858 7.85132L18.4476 11.1356L16.8838 9.96201L18.3858 7.85132Z" fill="#F2F2F2"/>
<path d="M16.0178 7.48755L18.3857 7.85146L16.8837 9.96215L16.0178 7.48755Z" fill="#D8D8D8"/>
<path d="M3.61353 18.6506L5.69865 20.2973L4.15248 19.6241L3.61353 18.6506Z" fill="#A5A5A5"/>
<path d="M3.52478 15.6028L3.61313 18.6505L2.90631 17.1312L3.52478 15.6028Z" fill="#A5A5A5"/>
<path d="M9.82461 20.7158L10.664 22.7901L9.00293 22.0623L9.82461 20.7158Z" fill="#B2B2B2"/>
<path d="M9.82451 20.7158L9.00282 22.0622L7.48315 20.5884L9.82451 20.7158Z" fill="#999999"/>
<path d="M9.82458 20.7158L12.4398 21.1707L10.6639 22.7901L9.82458 20.7158Z" fill="#D8D8D8"/>
<path d="M2.11139 13.0461L3.52504 15.6026L2.18207 14.5837L2.11139 13.0461Z" fill="#B2B2B2"/>
<path d="M2.87097 10.9993L2.11114 13.0463L1.96094 12.2457L2.87097 10.9993Z" fill="#F2F2F2"/>
<path d="M2.11114 13.0462L2.18182 14.5837L1.96094 12.2456L2.11114 13.0462Z" fill="#A5A5A5"/>
<path d="M5.49554 6.55966L6.35257 6.03198L7.94292 6.84169L5.49554 6.55966Z" fill="#E5E5E5"/>
<path d="M17.4141 19.3601L15.9739 18.8779L18.1651 17.7861L17.4141 19.3601Z" fill="#CCCCCC"/>
<path d="M18.722 17.6953L18.1654 17.7863L18.563 15.6301L18.722 17.6953Z" fill="#CCCCCC"/>
<path d="M17.4138 19.3602L18.1648 17.7863L18.7214 17.6953L17.4138 19.3602Z" fill="#D8D8D8"/>
<path d="M10.5311 5.1311L12.7134 5.25847L12.0331 6.53216L10.5311 5.1311Z" fill="#D8D8D8"/>
<path d="M6.46732 18.7598L5.69865 20.2973L3.61353 18.6506L6.46732 18.7598Z" fill="#BFBFBF"/>
<path d="M7.48303 20.5884L5.6983 20.2973L6.46697 18.7598L7.48303 20.5884Z" fill="#999999"/>
<path d="M6.06914 8.96134L4.16956 10.1441L4.54064 8.07886L6.06914 8.96134Z" fill="#D8D8D8"/>
<path d="M5.49554 6.55957L7.94292 6.8416L6.06984 8.96139L5.49554 6.55957Z" fill="#D8D8D8"/>
<path d="M5.49541 6.55957L6.06971 8.96139L4.5412 8.0789L5.49541 6.55957Z" fill="#E5E5E5"/>
<path d="M13.8446 21.8437L12.4398 21.1705L14.7105 20.9521L13.8446 21.8437Z" fill="#BFBFBF"/>
<path d="M15.7086 20.7794L14.7102 20.9522L15.9737 18.8779L15.7086 20.7794Z" fill="#BFBFBF"/>
<path d="M13.8447 21.8437L14.7105 20.9522L15.7089 20.7793L13.8447 21.8437Z" fill="#E5E5E5"/>
<path d="M4.47887 12.0637L2.87085 10.9992L4.16964 10.144L4.47887 12.0637Z" fill="#BFBFBF"/>
<path d="M4.47925 12.0637L2.11139 13.0463L2.87122 10.9993L4.47925 12.0637Z" fill="#E5E5E5"/>
<path d="M12.0333 6.53224L12.7136 5.25854L14.5337 6.16833L12.0333 6.53224Z" fill="#F2F2F2"/>
<path d="M12.7141 5.25854L14.7904 5.68614L14.5342 6.16832L12.7141 5.25854Z" fill="#D8D8D8"/>
<path d="M14.5335 6.16846L14.7897 5.68628L16.0178 7.48764L14.5335 6.16846Z" fill="#CCCCCC"/>
<path d="M17.7675 12.8826L18.5627 15.6301L16.6366 14.7112L17.7675 12.8826Z" fill="#E5E5E5"/>
<path d="M16.6366 14.7112L18.5627 15.6301L18.1651 17.7862L16.6366 14.7112Z" fill="#F2F2F2"/>
<path d="M5.51315 16.5944L3.61356 18.6505L3.52521 15.6028L5.51315 16.5944Z" fill="#BFBFBF"/>
<path d="M5.51311 16.5945L6.46732 18.7598L3.61353 18.6506L5.51311 16.5945Z" fill="#A5A5A5"/>
<path d="M16.0182 7.48755L16.8841 9.96215L14.8785 9.12515L16.0182 7.48755Z" fill="#E5E5E5"/>
<path d="M14.5335 6.16846L16.0178 7.48764L14.8781 9.12524L14.5335 6.16846Z" fill="#F2F2F2"/>
<path d="M11.6888 19.4419L14.7105 20.9521L12.4398 21.1705L11.6888 19.4419Z" fill="#A5A5A5"/>
<path d="M11.6888 19.4419L12.4398 21.1705L9.82458 20.7156L11.6888 19.4419Z" fill="#BFBFBF"/>
<path d="M5.51315 16.5944L3.52521 15.6028L4.89468 14.3291L5.51315 16.5944Z" fill="#999999"/>
<path d="M4.47925 12.0637L4.89451 14.3291L2.11139 13.0463L4.47925 12.0637Z" fill="#B2B2B2"/>
<path d="M4.89451 14.3289L3.52504 15.6026L2.11139 13.0461L4.89451 14.3289Z" fill="#A5A5A5"/>
<path d="M9.9129 5.69517L10.5314 5.1311L12.0334 6.53216L9.9129 5.69517Z" fill="#CCCCCC"/>
<path d="M8.51733 5.23118L10.5318 5.1311L9.91331 5.69517L8.51733 5.23118Z" fill="#D8D8D8"/>
<path d="M7.94299 6.84151L8.51729 5.2312L9.91326 5.69519L7.94299 6.84151Z" fill="#F2F2F2"/>
<path d="M16.6365 14.7112L18.165 17.7862L15.2228 16.458L16.6365 14.7112Z" fill="#E5E5E5"/>
<path d="M15.2228 16.458L18.165 17.7863L15.9738 18.878L15.2228 16.458Z" fill="#CCCCCC"/>
<path d="M13.5092 18.1228L15.9742 18.8779L14.7108 20.9522L13.5092 18.1228Z" fill="#CCCCCC"/>
<path d="M13.5089 18.1228L14.7105 20.9522L11.6888 19.442L13.5089 18.1228Z" fill="#B2B2B2"/>
<path d="M15.2232 16.458L15.9742 18.878L13.5092 18.1229L15.2232 16.458Z" fill="#BFBFBF"/>
<path d="M7.94299 6.84163L9.91326 5.69531L8.27873 8.70668L7.94299 6.84163Z" fill="#E5E5E5"/>
<path d="M7.94297 6.84155L8.27871 8.7066L6.06989 8.96134L7.94297 6.84155Z" fill="#CCCCCC"/>
<path d="M12.0333 6.53237L14.5337 6.16846L12.7047 8.57028L12.0333 6.53237Z" fill="#D8D8D8"/>
<path d="M14.5336 6.16846L14.8782 9.12524L12.7047 8.57028L14.5336 6.16846Z" fill="#E5E5E5"/>
<path d="M9.91254 5.69531L10.4162 8.37006L8.27802 8.70668L9.91254 5.69531Z" fill="#BFBFBF"/>
<path d="M9.9129 5.69531L12.0334 6.53231L10.4165 8.37006L9.9129 5.69531Z" fill="#E5E5E5"/>
<path d="M12.0335 6.53223L12.705 8.57013L10.4167 8.36998L12.0335 6.53223Z" fill="#CCCCCC"/>
<path d="M7.85411 17.2222L6.46697 18.7598L5.51276 16.5945L7.85411 17.2222Z" fill="#999999"/>
<path d="M13.5089 18.1228L11.6888 19.442L10.5933 17.5769L13.5089 18.1228Z" fill="#A5A5A5"/>
<path d="M6.52934 12.9189L4.89481 14.3291L4.47955 12.0637L6.52934 12.9189Z" fill="#999999"/>
<path d="M8.52572 19.7695L9.82451 20.7157L7.48315 20.5883L8.52572 19.7695Z" fill="#BFBFBF"/>
<path d="M7.85468 17.2222L10.5936 17.577L8.52616 19.7696L7.85468 17.2222Z" fill="#BFBFBF"/>
<path d="M10.5928 17.5769L11.6884 19.442L8.52533 19.7695L10.5928 17.5769Z" fill="#999999"/>
<path d="M8.52533 19.7694L11.6884 19.4419L9.82412 20.7156L8.52533 19.7694Z" fill="#B2B2B2"/>
<path d="M7.85425 17.2222L8.52573 19.7696L6.4671 18.7597L7.85425 17.2222Z" fill="#A5A5A5"/>
<path d="M8.52573 19.7696L7.48316 20.5884L6.4671 18.7598L8.52573 19.7696Z" fill="#B2B2B2"/>
<path d="M16.6368 14.7111L15.2231 16.4579L14.1629 13.6921L16.6368 14.7111Z" fill="#CCCCCC"/>
<path d="M10.4162 8.37012L8.3487 10.7537L8.27802 8.70674L10.4162 8.37012Z" fill="#B2B2B2"/>
<path d="M14.8782 9.12528L13.2525 10.9903L12.7047 8.57031L14.8782 9.12528Z" fill="#D8D8D8"/>
<path d="M16.8837 9.96216L17.7673 12.8826L16.3094 11.527L16.8837 9.96216Z" fill="#E5E5E5"/>
<path d="M14.8783 9.125L16.3096 11.5268L13.2526 10.99L14.8783 9.125Z" fill="#E5E5E5"/>
<path d="M14.8785 9.125L16.8841 9.962L16.3098 11.5268L14.8785 9.125Z" fill="#D8D8D8"/>
<path d="M16.3099 11.5271L16.6368 14.7113L14.1629 13.6924L16.3099 11.5271Z" fill="#F2F2F2"/>
<path d="M16.3094 11.5271L17.7673 12.8827L16.6364 14.7113L16.3094 11.5271Z" fill="#D8D8D8"/>
<path d="M13.2526 10.9902L16.3096 11.527L14.1626 13.6923L13.2526 10.9902Z" fill="#D8D8D8"/>
<path d="M5.60107 10.6172L8.34885 10.7537L6.52878 12.9189L5.60107 10.6172Z" fill="#BFBFBF"/>
<path d="M8.27817 8.70654L8.34885 10.7535L5.60107 10.6171L8.27817 8.70654Z" fill="#D8D8D8"/>
<path d="M5.60163 10.6172L6.52934 12.9189L4.47955 12.0637L5.60163 10.6172Z" fill="#A5A5A5"/>
<path d="M5.60087 10.6171L4.47879 12.0637L4.16956 10.144L5.60087 10.6171Z" fill="#B2B2B2"/>
<path d="M6.06914 8.96143L5.60087 10.6172L4.16956 10.1441L6.06914 8.96143Z" fill="#F2F2F2"/>
<path d="M6.06934 8.96128L8.27817 8.70654L5.60107 10.6171L6.06934 8.96128Z" fill="#E5E5E5"/>
<path d="M9.69242 15.3208L10.5936 17.5771L7.85468 17.2222L9.69242 15.3208Z" fill="#A5A5A5"/>
<path d="M8.34888 10.7537L8.89667 13.0372L6.52881 12.9189L8.34888 10.7537Z" fill="#999999"/>
<path d="M11.5033 13.0917L9.69203 15.3207L8.89685 13.0371L11.5033 13.0917Z" fill="#999999"/>
<path d="M13.2527 10.9902L14.1627 13.6923L11.5033 13.0918L13.2527 10.9902Z" fill="#CCCCCC"/>
<path d="M6.68762 15.3936L9.69162 15.3208L7.85388 17.2222L6.68762 15.3936Z" fill="#BFBFBF"/>
<path d="M6.68785 15.3936L7.85411 17.2222L5.51276 16.5945L6.68785 15.3936Z" fill="#A5A5A5"/>
<path d="M6.52906 12.9189L6.6881 15.3936L4.89453 14.3291L6.52906 12.9189Z" fill="#A5A5A5"/>
<path d="M6.6881 15.3935L5.513 16.5944L4.89453 14.3291L6.6881 15.3935Z" fill="#BFBFBF"/>
<path d="M8.89644 13.0371L9.69162 15.3207L6.68762 15.3934L8.89644 13.0371Z" fill="#A5A5A5"/>
<path d="M6.52881 12.9189L8.89667 13.0372L6.68784 15.3936L6.52881 12.9189Z" fill="#B2B2B2"/>
<path d="M10.6462 10.1804L13.2526 10.9901L11.5032 13.0917L10.6462 10.1804Z" fill="#D8D8D8"/>
<path d="M12.7048 8.57031L13.2526 10.9903L10.6462 10.1806L12.7048 8.57031Z" fill="#F2F2F2"/>
<path d="M10.4167 8.37012L12.705 8.57027L10.6464 10.1806L10.4167 8.37012Z" fill="#BFBFBF"/>
<path d="M10.6462 10.1804L11.5033 13.0917L8.89685 13.0371L10.6462 10.1804Z" fill="#A5A5A5"/>
<path d="M10.4162 8.37012L10.6459 10.1806L8.34869 10.7537L10.4162 8.37012Z" fill="#F2F2F2"/>
<path d="M8.34869 10.7536L10.6459 10.1804L8.89648 13.0371L8.34869 10.7536Z" fill="#B2B2B2"/>
<path d="M14.1626 13.6921L15.2229 16.4579L12.6253 15.9939L14.1626 13.6921Z" fill="#F2F2F2"/>
<path d="M12.6253 15.9939L15.2229 16.4579L13.5088 18.1228L12.6253 15.9939Z" fill="#D8D8D8"/>
<path d="M11.5035 13.0918L12.6256 15.994L9.69226 15.3208L11.5035 13.0918Z" fill="#B2B2B2"/>
<path d="M11.5033 13.0918L14.1627 13.6923L12.6254 15.994L11.5033 13.0918Z" fill="#D8D8D8"/>
<path d="M12.6254 15.9939L13.5089 18.1228L10.5933 17.5769L12.6254 15.9939Z" fill="#BFBFBF"/>
<path d="M9.69226 15.3208L12.6256 15.994L10.5935 17.5771L9.69226 15.3208Z" fill="#999999"/>
<path d="M2.22638 2.66553L4.27617 3.56621L5.036 5.45855L2.22638 2.66553Z" fill="#727272"/>
<path d="M4.59405 2.77479L5.03581 5.45864L4.27598 3.5663L3.56915 1.96509L4.59405 2.77479Z" fill="#A5A5A5"/>
<path d="M0.724365 1.96509L2.22637 2.66562L4.27616 3.5663L3.56933 1.96509H0.724365Z" fill="#8C8C8C"/>
<path d="M2.34122 0.818848L3.56933 1.96517H0.724365L2.34122 0.818848Z" fill="#B2B2B2"/>
<path d="M0 0.818848H2.34135L0.724494 1.96517L0 0.818848Z" fill="#BFBFBF"/>
<path d="M2.34135 0.818801L3.92287 0.937072L2.49155 0L0 0.818801H2.34135Z" fill="#8C8C8C"/>
<path d="M4.67426 0.937072H3.92326L2.49194 0L4.67426 0.937072Z" fill="#A5A5A5"/>
<path d="M4.59443 2.77487L3.92295 0.937118L2.34143 0.818848L3.56954 1.96517L4.59443 2.77487Z" fill="#727272"/>
<path d="M5.46924 5.32204L4.59454 2.77466L5.03631 5.45851L5.46924 5.32204Z" fill="#727272"/>
<path d="M4.67391 0.937012L5.46909 5.32215L4.59439 2.77477L3.92291 0.937012H4.67391Z" fill="#8C8C8C"/>
</svg>
