<svg width="52" height="18" viewBox="0 0 52 18" fill="none" xmlns="http://www.w3.org/2000/svg">
<mask id="mask0" mask-type="alpha" maskUnits="userSpaceOnUse" x="0" y="0" width="52" height="18">
<rect width="52" height="18" fill="#312629"/>
</mask>
<g mask="url(#mask0)">
<path d="M20.758 1.26611L18.123 16.7261H22.337L24.974 1.26711H20.758V1.26611ZM14.59 1.28311L10.463 11.8271L10.023 10.2351C9.20903 8.31711 6.89804 5.56211 4.18604 3.82511L7.95904 16.7201L12.419 16.7131L19.053 1.28011L14.59 1.28311Z" fill="#3B4554"/>
<path d="M8.423 2.39C8.178 1.447 7.468 1.166 6.587 1.132H0.054L0 1.441C5.084 2.674 8.448 5.646 9.844 9.22L8.424 2.39H8.423ZM33.514 4.23C34.595 4.20569 35.6692 4.40697 36.668 4.821L37.048 5.001L37.618 1.649C36.784 1.336 35.476 1 33.843 1C29.68 1 26.745 3.097 26.722 6.102C26.695 8.323 28.812 9.563 30.412 10.303C32.054 11.062 32.605 11.544 32.597 12.221C32.584 13.257 31.287 13.731 30.077 13.731C28.39 13.731 27.494 13.498 26.11 12.921L25.567 12.675L24.974 16.135C25.96 16.568 27.78 16.939 29.669 16.959C34.099 16.959 36.977 14.887 37.007 11.675C37.026 9.918 35.902 8.578 33.467 7.478C31.992 6.76 31.091 6.283 31.099 5.56C31.099 4.917 31.864 4.23 33.514 4.23ZM48.432 1.283H45.176C44.166 1.283 43.413 1.558 42.969 2.566L36.712 16.736H41.137C41.137 16.736 41.859 14.83 42.023 14.413L47.419 14.419C47.545 14.959 47.933 16.735 47.933 16.735H51.842L48.432 1.284V1.283ZM43.235 11.248C43.582 10.361 44.915 6.928 44.915 6.928C44.892 6.97 45.258 6.033 45.475 5.451L45.76 6.784L46.736 11.248H43.236H43.235Z" fill="#3B4554"/>
<g style="mix-blend-mode:color">
<rect width="52" height="18" fill="#222222"/>
</g>
</g>
</svg>
