<svg width="297" height="60" viewBox="0 0 297 60" fill="none" xmlns="http://www.w3.org/2000/svg">
<path fill-rule="evenodd" clip-rule="evenodd" d="M94.0119 10.3286C97.6729 10.3286 98.6847 11.8295 99.2504 11.8295C99.4082 11.8295 99.5224 11.6337 99.7182 11.6337C99.9304 11.6337 99.9304 11.9437 99.9902 13.2107C100.028 14.2439 100.202 14.8855 99.8705 14.8855C99.6366 14.8855 99.5006 14.3798 99.4245 14.2439C98.2168 12.1612 96.8351 10.8942 94.322 10.8942C90.525 10.8942 88.6918 13.4228 88.6918 17.0444C88.6918 20.4322 90.6392 23.8199 94.3764 23.8199C97.4335 23.8199 99.3429 21.8732 99.6366 20.9759C99.6747 20.84 99.7944 20.7204 99.9086 20.7204C100.007 20.7204 100.104 20.84 100.083 20.9324L99.6366 22.8792C99.6149 22.9553 98.2332 24.4181 93.8541 24.4181C89.8613 24.4181 87 21.672 87 17.6425C87 13.6131 89.8994 10.3286 94.0119 10.3286ZM101.35 17.3217C101.35 13.2705 104.505 10.3341 108.498 10.3341C112.469 10.3341 115.526 13.1944 115.526 17.2238C115.526 21.6013 112.507 24.429 108.166 24.429C103.945 24.4235 101.35 21.4273 101.35 17.3217ZM102.775 16.7562C102.775 20.356 105.131 23.8417 108.988 23.8417C111.833 23.8417 114.106 21.5632 114.106 17.9634C114.106 14.4179 111.713 10.9757 107.916 10.9757C104.641 10.9703 102.775 13.6783 102.775 16.7562ZM127.254 22.1668C128.658 24.3093 129.61 23.5861 129.61 24.0538C129.61 24.2876 128.516 24.2876 128.342 24.2876C126.923 24.2876 126.161 23.2925 125.421 22.1831L123.262 18.7736C122.56 17.6806 122.854 17.7404 120.672 17.7404C120.047 17.7404 120.166 18.0884 120.166 18.2842V22.3898C120.166 24.0646 122.19 23.461 122.19 24.1245C122.19 24.3202 122.016 24.2822 121.858 24.2822C121.684 24.2822 121.233 24.206 119.617 24.206C118.877 24.206 118.137 24.2822 117.398 24.2822C117.278 24.2822 117.202 24.1843 117.202 24.0701C117.202 23.5861 118.621 23.858 118.621 22.3789V12.4711C118.621 10.6005 116.946 11.3999 116.946 10.7365C116.946 10.6223 117.104 10.5026 117.338 10.5026C117.686 10.5026 117.588 10.5788 118.583 10.5788C119.715 10.5788 120.825 10.5026 121.836 10.5026C122.146 10.5026 126.449 10.1111 126.449 13.8687C126.449 15.3858 125.356 16.6909 123.996 17.2347L127.254 22.1668ZM120.166 16.8105C120.166 17.1803 121.374 17.0824 122.288 17.0824C123.126 17.0824 124.997 16.7344 124.997 14.32C124.997 11.9437 123.185 11.1443 121.276 11.1443C120.574 11.1443 120.166 11.1062 120.166 11.8621V16.8105ZM132.221 14.3418C132.221 10.2906 129.866 11.4216 129.866 10.7038C129.866 10.5842 130.061 10.5081 130.159 10.5081C130.469 10.5081 130.763 10.5842 131.073 10.5842C131.367 10.5842 131.677 10.5081 131.971 10.5081C132.183 10.5081 132.362 10.818 132.477 10.954L141.768 21.2913C141.887 21.4273 141.964 21.5034 142.002 21.5034C142.04 21.5034 142.062 21.4436 142.062 21.2913V13.1509C142.062 10.6005 139.902 11.3401 139.902 10.6984C139.902 10.5625 140 10.5026 140.114 10.5026C140.702 10.5026 141.262 10.5788 141.887 10.5788C142.551 10.5788 143.389 10.5026 143.857 10.5026C143.976 10.5026 144.053 10.5625 144.053 10.6767C144.053 11.1824 142.905 10.8344 142.905 12.2536V23.5263C142.905 24.0918 142.883 24.3637 142.731 24.3637C142.595 24.3637 142.399 24.2658 141.991 23.8199L133.614 14.3961C133.575 14.3581 133.342 14.0264 133.206 14.0264C133.129 14.0264 133.07 14.0862 133.07 14.4723V22.4333C133.07 24.1843 134.783 23.5045 134.783 24.032C134.783 24.1299 134.761 24.2876 134.566 24.2876C134.098 24.2876 133.554 24.2115 132.596 24.2115C131.916 24.2115 130.905 24.2876 130.763 24.2876C130.529 24.2876 130.507 24.168 130.507 24.0755C130.507 23.3958 132.221 24.2495 132.221 21.5252V14.3418ZM148.986 16.1689C148.986 16.8323 148.948 16.8323 149.726 16.8323H151.831C153.855 16.8323 153.333 15.2771 153.795 15.2771C153.953 15.2771 154.007 15.4892 154.007 15.6469C154.007 16.3266 153.969 16.99 153.969 17.6154C153.969 18.1211 154.007 18.6268 154.007 19.1543C154.007 19.3283 153.931 19.4098 153.795 19.4098C153.191 19.4098 153.855 17.6969 152.218 17.6969H149.335C148.927 17.6969 148.986 18.0286 148.986 18.3223V21.9058C148.986 23.0532 148.829 23.5209 150.466 23.5209C154.965 23.5209 155.628 21.5143 155.879 21.5143C156.015 21.5143 156.036 21.7101 156.036 21.7481C156.036 22.4496 155.53 23.1293 155.063 23.6351C154.437 24.3365 154.013 24.2985 153.153 24.2985C151.674 24.2985 150.194 24.1788 148.714 24.2223C147.937 24.2441 147.115 24.2985 146.337 24.2985C146.163 24.2985 146.043 24.2604 146.043 24.1027C146.082 23.8689 146.277 23.9069 146.898 23.597C147.403 23.3632 147.442 22.8194 147.442 21.9004V13.0149C147.442 12.1394 147.441 11.2041 146.392 11.0464C146.234 11.0084 145.81 10.9703 145.81 10.7365C145.81 10.5788 145.929 10.5026 146.49 10.5026C150.172 10.5026 151.184 10.5788 152 10.5788C152.386 10.5788 154.181 10.5026 154.785 10.5026C154.943 10.5026 154.981 10.6984 154.981 10.9322C154.981 13.0911 154.709 13.2488 154.589 13.2488C154.122 13.2488 154.432 12.3134 154.122 11.8675C153.616 11.2041 151.592 11.3238 150.814 11.3238C148.943 11.3238 148.981 11.2476 148.981 12.5527L148.986 16.1689ZM160.067 21.8949C160.067 23.0423 159.909 23.51 161.547 23.51C166.046 23.51 166.709 21.5034 166.959 21.5034C167.095 21.5034 167.117 21.6992 167.117 21.7372C167.117 22.4387 166.611 23.1185 166.143 23.6242C165.518 24.3257 165.094 24.2876 164.234 24.2876C162.755 24.2876 161.275 24.168 159.795 24.2115C159.017 24.2332 158.196 24.2876 157.418 24.2876C157.244 24.2876 157.124 24.2495 157.124 24.0918C157.162 23.858 157.358 23.8961 157.978 23.5861C158.484 23.3523 158.522 22.8085 158.522 21.8895V12.0252C158.522 11.0138 156.885 11.1497 156.885 10.7582C156.885 10.5461 157.021 10.5026 157.271 10.5026C157.679 10.5026 158.283 10.5788 159.24 10.5788C160.35 10.5788 160.818 10.5026 161.112 10.5026C161.362 10.5026 161.482 10.5407 161.482 10.7745C161.482 11.2204 160.062 10.7365 160.062 12.4276L160.067 21.8949ZM170.06 12.1775C170.038 10.7582 168.483 11.1443 168.483 10.7202C168.483 10.5461 168.521 10.5081 168.678 10.5081C169.396 10.5081 170.098 10.5842 170.822 10.5842C171.426 10.5842 172.029 10.5081 172.633 10.5081C172.943 10.5081 173.003 10.5461 173.003 10.7038C173.003 11.1715 171.6 10.7256 171.6 12.1829V22.6399C171.6 23.9613 173.335 23.5154 173.335 24.0973C173.335 24.2332 173.275 24.293 172.943 24.293C172.497 24.293 171.659 24.2169 170.822 24.2169C169.636 24.2169 169.222 24.293 168.95 24.293C168.602 24.293 168.542 24.1952 168.542 23.9994C168.542 23.4339 170.06 24.0755 170.06 22.1505V12.1775ZM184.584 19.6382C184.389 19.1923 184.274 18.8987 183.725 18.8987H179.438C179.068 18.8987 178.72 18.8987 178.524 19.3065L177.279 22.0309C177.192 22.2484 177.148 22.4768 177.143 22.7106C177.143 24.0755 178.524 23.4882 178.524 23.994C178.524 24.342 178.252 24.2876 177.997 24.2876C177.453 24.2876 176.903 24.2115 176.359 24.2115C175.832 24.2115 175.31 24.2876 174.798 24.2876C174.679 24.2876 174.624 24.1897 174.624 24.0755C174.624 23.6677 175.538 23.9994 176.044 22.8901L180.695 12.9606C181.843 10.5081 181.903 10.1981 182.153 10.1981C182.37 10.1981 182.506 10.7637 182.561 10.9159L186.613 20.9433C186.907 21.6611 187.136 22.4822 187.587 23.162C188.175 24.0592 189.301 23.6296 189.301 24.1136C189.301 24.2876 189.165 24.2876 189.029 24.2876C188.229 24.2876 187.429 24.2115 186.635 24.2115C186.108 24.2115 185.585 24.2876 185.058 24.2876C184.938 24.2876 184.628 24.2876 184.628 24.0918C184.628 23.6242 185.797 23.8199 185.797 23.0804C185.797 22.6508 185.389 21.759 185.194 21.2315L184.584 19.6382ZM179.33 17.6915C179.194 17.9634 179.33 18.0395 179.585 18.0395H183.442C183.872 18.0395 183.85 17.9036 183.752 17.648L181.843 12.9551C181.745 12.7213 181.647 12.7213 181.533 12.9551L179.33 17.6915ZM192.124 14.3418C192.124 10.2906 189.769 11.4216 189.769 10.7038C189.769 10.5842 189.964 10.5081 190.062 10.5081C190.372 10.5081 190.666 10.5842 190.976 10.5842C191.27 10.5842 191.58 10.5081 191.874 10.5081C192.091 10.5081 192.265 10.818 192.38 10.954L201.671 21.2913C201.785 21.4273 201.861 21.5034 201.905 21.5034C201.943 21.5034 201.965 21.4436 201.965 21.2913V13.1509C201.965 10.6005 199.805 11.3401 199.805 10.6984C199.805 10.5625 199.903 10.5026 200.017 10.5026C200.599 10.5026 201.165 10.5788 201.79 10.5788C202.454 10.5788 203.292 10.5026 203.76 10.5026C203.874 10.5026 203.955 10.5625 203.955 10.6767C203.955 11.1824 202.808 10.8344 202.808 12.2536V23.5263C202.808 24.0918 202.786 24.3637 202.634 24.3637C202.498 24.3637 202.302 24.2658 201.894 23.8199L193.522 14.3961C193.484 14.3581 193.25 14.0264 193.114 14.0264C193.038 14.0264 192.978 14.0862 192.978 14.4723V22.4333C192.978 24.1843 194.692 23.5045 194.692 24.032C194.692 24.1299 194.67 24.2876 194.474 24.2876C194.006 24.2876 193.462 24.2115 192.51 24.2115C191.83 24.2115 190.813 24.2876 190.677 24.2876C190.443 24.2876 190.427 24.168 190.427 24.0755C190.427 23.3958 192.14 24.2495 192.14 21.5252L192.124 14.3418ZM207.725 12.1775C207.703 10.7582 206.148 11.1443 206.148 10.7202C206.148 10.5461 206.186 10.5081 206.344 10.5081C207.062 10.5081 207.763 10.5842 208.487 10.5842C209.091 10.5842 209.694 10.5081 210.298 10.5081C210.608 10.5081 210.668 10.5461 210.668 10.7038C210.668 11.1715 209.265 10.7256 209.265 12.1829V22.6399C209.265 23.9613 211 23.5154 211 24.0973C211 24.2332 210.94 24.293 210.608 24.293C210.162 24.293 209.325 24.2169 208.487 24.2169C207.301 24.2169 206.888 24.293 206.616 24.293C206.267 24.293 206.208 24.1952 206.208 23.9994C206.208 23.4339 207.725 24.0755 207.725 22.1505V12.1775ZM134.685 33.309L134.952 33.7603C135.012 34.6141 134.631 35.2775 134.266 35.979C133.619 37.3221 132.618 38.6272 131.405 39.6876C130.796 40.2042 130.105 40.661 129.36 40.9709C129.044 41.0579 128.625 41.1177 128.348 40.9165C128.076 40.7153 128.054 40.351 128.092 40.0193C128.25 39.2798 128.707 38.5891 129.311 38.0834C129.398 38.0617 129.534 38.0997 129.479 38.2302C129.436 38.5946 129.267 38.9752 129.409 39.3504C129.653 39.5027 129.925 39.2743 130.138 39.1764C131.721 37.9366 133.238 36.4629 133.842 34.5814C133.853 34.4564 133.76 34.2932 133.619 34.2661L133.363 34.2824C132.417 34.6195 131.53 35.1633 130.671 35.6473C128.614 37.1807 126.705 38.8393 125.057 40.6882C124.176 41.6561 123.414 42.5697 122.701 43.6735C122.353 44.2499 122.027 44.8644 121.804 45.5007C121.815 45.691 121.673 45.9031 121.706 46.1151C121.646 46.6263 121.787 47.2408 122.293 47.5072C122.549 47.6432 122.897 47.703 123.191 47.616C124.067 47.5072 124.845 47.0776 125.546 46.5665C125.922 46.2511 126.254 45.8922 126.656 45.5713C127.048 45.1146 127.45 44.636 127.809 44.1521C128.484 43.331 129.175 42.3304 130.404 42.5316C130.883 42.6186 131.34 42.7872 131.525 43.282C131.655 43.63 131.737 44.0052 131.721 44.3478C131.699 44.4511 131.726 44.5599 131.791 44.6469C131.949 44.7611 132.205 44.7176 132.384 44.6904C132.83 44.6252 133.178 44.288 133.467 43.9563C133.586 43.8041 133.391 43.6844 133.271 43.6137C132.651 43.3636 132.335 42.7709 132.286 42.1673C132.286 41.6507 132.433 41.1504 132.917 40.9165C133.206 40.7915 133.483 40.8948 133.717 41.0688C134.103 41.4114 134.288 41.9226 134.375 42.4337C134.288 42.7165 134.43 43.0482 134.359 43.3473C134.5 43.7714 135.05 43.6192 135.441 43.6735C135.795 43.7225 136.192 43.8475 136.295 44.2173C136.284 44.8807 135.561 45.2723 135.186 45.7182C134.908 46.1097 134.277 46.4523 134.43 47.0015C134.593 47.219 134.897 47.2462 135.158 47.1646C135.675 46.9906 136.072 46.61 136.546 46.3326C137.585 45.4572 138.586 44.5218 139.592 43.717C139.766 43.592 139.956 43.5702 140.169 43.5648C140.37 43.5865 140.5 43.7605 140.517 43.9454C140.326 44.6578 140.081 45.294 139.842 45.9901C139.837 46.0608 139.848 46.1423 139.924 46.1532L140.163 46.0879C140.723 45.7671 141.213 45.2288 141.887 45.1472C142.062 45.1798 142.263 45.2179 142.35 45.4082C142.442 45.7182 142.524 46.0118 142.491 46.3326C142.584 46.5393 142.611 46.8547 142.899 46.9036C143.829 46.9091 144.205 45.9357 144.515 45.256L145.146 44.2445C145.336 44.1901 145.233 44.0216 145.396 43.9346C145.826 43.4397 146.435 43.021 147.082 42.8579C147.452 42.7926 147.866 42.8198 148.094 43.1569C148.432 43.766 148.013 44.4947 147.561 44.9949C147.012 45.4952 146.43 45.9846 145.766 46.3326C145.576 46.5121 145.494 46.7242 145.587 46.958C145.69 47.1429 145.913 47.2734 146.136 47.2462C146.696 47.2136 147.126 46.8601 147.556 46.5502C148.464 45.7073 149.068 44.6469 149.715 43.6463C149.868 43.2059 150.292 42.7872 150.471 42.363C150.586 42.1618 150.743 41.9661 150.852 41.7757C151.086 41.4603 151.331 41.1123 151.57 40.835C151.717 40.7969 151.685 40.6392 151.782 40.5359C151.946 40.3293 152.19 40.1117 152.316 39.9105C152.691 39.5027 153.088 39.1166 153.507 38.7523L153.686 38.5076C154.589 37.8061 155.552 37.0883 156.591 36.7076C156.977 36.637 157.5 36.4738 157.842 36.762C158.142 37.1209 157.951 37.5831 157.788 37.9584C157.842 38.0943 157.701 38.1813 157.69 38.3281C157.347 38.8991 156.972 39.3831 156.569 39.8942C155.623 40.9274 154.404 41.6942 153.202 42.4446C152.653 42.8198 152.027 43.1134 151.434 43.369C151.162 43.6028 150.983 43.9291 150.885 44.2391C150.76 44.4022 150.743 44.6089 150.618 44.772C150.575 45.1526 150.314 45.4789 150.352 45.865C150.384 46.0336 150.384 46.2511 150.548 46.3816C150.896 46.6426 151.413 46.4903 151.739 46.3C152.413 45.7508 153.273 45.3266 153.899 44.7339C154.437 44.2663 155.052 43.8693 155.596 43.4397C155.775 43.3473 156.064 43.2603 156.243 43.4125C156.461 43.7007 156.145 44.0216 156.091 44.2989C155.922 44.6306 155.819 45.0004 155.585 45.3375C155.433 45.8324 154.997 46.2293 155.063 46.7405C155.182 46.9417 155.433 46.871 155.596 46.8221C156.249 46.5338 156.88 46.2293 157.407 45.7019C158.093 45.1309 158.49 44.2065 159.202 43.6572C159.496 43.4778 159.714 43.1406 160.045 43.0156C160.399 42.7382 160.802 42.537 161.237 42.4283C161.623 42.4174 162.08 42.4011 162.374 42.7002C162.684 43.0863 162.417 43.5974 162.488 44.0216C162.602 44.288 162.842 44.5164 162.771 44.8372C162.58 45.4735 161.944 45.8813 161.928 46.5665C162.015 46.7731 162.292 46.6915 162.444 46.6372L162.722 46.474C163.636 45.7889 164.381 45.0548 165.289 44.3587C165.779 44.0814 166.111 43.6137 166.639 43.3364C166.802 43.2548 167.085 43.195 167.242 43.3364C167.525 43.6409 167.199 43.9346 167.144 44.2336C167.036 44.4022 166.905 44.598 166.867 44.7665C166.649 45.1526 166.399 45.5278 166.279 45.952C166.274 46.0173 166.274 46.0771 166.334 46.1151L166.546 46.0716L168.325 45.0602C168.504 45.0602 168.711 44.9297 168.858 45.0874C169.201 45.4463 168.809 45.9194 168.814 46.3272C168.765 46.4305 168.804 46.5665 168.825 46.6807C169.179 47.0668 169.532 46.4958 169.864 46.3925C170.92 45.7399 171.834 44.9732 172.894 44.3206C173.079 44.2173 173.324 44.1466 173.509 44.2935C173.743 44.6143 173.591 45.0548 173.596 45.3973C173.667 45.8922 173.4 46.5067 173.873 46.8547C174.472 47.0287 175.005 46.7296 175.527 46.5828C176.327 46.3109 177.137 46.039 177.899 45.7073C178.35 45.5877 178.753 45.343 179.259 45.343C179.291 45.4028 179.422 45.3756 179.373 45.4789C179.346 45.6366 179.194 45.6964 179.063 45.7508C178.53 45.9139 177.997 46.1314 177.464 46.2565C177.279 46.3707 177.023 46.4033 176.844 46.5447C175.924 46.8438 175.043 47.2843 174.151 47.6214C173.803 47.7846 173.416 47.8824 173.057 48.0293L172.524 48.0129L172.16 47.7247C172.133 47.5942 172.057 47.4093 172.1 47.2625C171.98 46.8221 172.095 46.3272 172.057 45.8704C171.964 45.7889 171.817 45.7943 171.708 45.8432C170.675 46.4795 169.576 47.181 168.553 47.8172C168.238 47.9586 167.862 48.1706 167.498 48.0075C167.128 47.6921 167.373 47.2462 167.346 46.8492C167.308 46.7242 167.117 46.7622 167.019 46.7949C166.187 47.2353 165.583 48.0293 164.577 48.0619C164.381 48.0347 164.174 47.9259 164.098 47.7356C163.935 47.2136 164.31 46.5828 164.408 46.0988C164.321 46.0336 164.229 46.1097 164.142 46.126C163.538 46.5719 162.901 47.0831 162.259 47.4637C161.862 47.7737 161.34 48.0075 160.829 47.8444C160.573 47.8226 160.448 47.4039 160.143 47.5616C159.55 47.9694 158.724 48.3229 158 47.9966C157.581 47.6921 157.418 47.2027 157.336 46.7405C157.255 46.6372 157.113 46.7133 157.016 46.7296C156.221 47.2353 155.384 47.654 154.546 48.0238C154.219 48.1217 153.801 48.1978 153.491 48.0075C153.278 47.7628 153.257 47.393 153.295 47.0939C153.436 46.7296 153.567 46.2946 153.73 45.952C153.719 45.8487 153.757 45.7834 153.648 45.7182C152.669 46.1967 151.908 46.9145 150.966 47.4746C150.325 47.9368 149.574 48.4806 148.72 48.1815C148.285 48.0782 148.214 47.616 148.17 47.2408C148.209 47.1266 148.17 46.9852 148.062 46.9417C147.567 47.1211 147.186 47.4964 146.729 47.7574C146.19 48.1271 145.391 48.399 144.765 48.0293C144.439 47.8444 144.286 47.4855 143.976 47.2952C143.318 47.4257 142.905 47.9912 142.306 48.2468C142.018 48.3338 141.67 48.3827 141.409 48.2033C141.077 47.7737 141.175 47.2408 141.072 46.7568C141.137 46.6209 140.968 46.5121 140.946 46.3762H140.761C139.837 46.9526 139.157 47.7846 138.139 48.2033C137.922 48.2468 137.699 48.1924 137.563 48.0238C137.438 47.6704 137.541 47.2408 137.704 46.9199C137.851 46.6752 137.938 46.436 137.955 46.1586C137.737 46.039 137.623 46.3218 137.438 46.3653C136.769 46.8819 136.159 47.3441 135.447 47.7846C134.935 48.1108 134.342 48.399 133.679 48.3827C133.342 48.3338 133.026 48.1435 132.863 47.8498C132.618 47.306 132.792 46.6372 133.173 46.1858C133.434 45.8324 133.695 45.4137 134.087 45.1363C134.25 44.8644 134.685 44.7285 134.761 44.4022C134.647 44.1793 134.294 44.201 134.06 44.2228C133.516 44.6306 133.113 45.2886 132.346 45.3538C131.965 45.5007 131.394 45.2342 131.225 45.7345C131.024 46.0118 130.883 46.349 130.665 46.6317C130.633 46.7622 130.486 46.8329 130.442 46.9471C130.138 47.4311 129.713 47.8117 129.251 48.187C128.756 48.5948 128.016 48.6981 127.429 48.4045C126.874 48.1163 126.705 47.5507 126.656 47.0015C126.623 46.9145 126.569 46.8003 126.477 46.7677L126.281 46.8492C124.964 47.9749 123.142 49.4594 121.227 48.486C120.955 48.3175 120.634 48.0836 120.482 47.8063C119.981 46.9798 119.905 46.0499 120.117 45.12C120.139 44.7285 120.335 44.3206 120.438 43.9182C120.808 43.1189 121.249 42.3848 121.728 41.6289C121.853 41.5637 121.826 41.3842 121.94 41.2863C124.045 38.4695 126.705 36.1149 129.757 34.3639C131.008 33.7766 132.199 33.0425 133.673 32.9718C134.06 32.9827 134.408 33.0915 134.685 33.309ZM156.602 38.1759C156.591 38.6598 156.281 39.1003 155.998 39.5136C154.954 40.8404 153.572 41.7975 152.082 42.537H151.984C151.946 42.4391 152.098 42.363 152.082 42.276C152.326 41.6724 152.805 41.2211 153.202 40.6936C154.035 39.7583 154.905 38.8937 155.966 38.1867C156.134 38.0726 156.477 37.9529 156.602 38.1759ZM158.653 39.7039C158.626 39.9051 158.647 40.1117 158.582 40.3184C158.452 40.8187 158.109 41.3353 157.739 41.6833C157.696 41.6942 157.652 41.7213 157.598 41.7105C157.543 41.5854 157.576 41.4331 157.625 41.3135C157.603 41.0036 157.674 40.7045 157.641 40.4C157.685 40.0628 158.125 39.916 158.327 39.7039C158.424 39.6822 158.571 39.5571 158.653 39.7039ZM176.74 40.5087C176.392 41.2972 175.875 41.9824 175.114 42.4555L174.983 42.4283C175.043 41.9824 175.353 41.5963 175.473 41.1613C175.429 41.009 175.554 40.9002 175.598 40.7643C175.761 40.6012 175.908 40.6229 176.104 40.5087C176.31 40.487 176.637 40.177 176.74 40.5087ZM133.635 42.0748C133.766 42.4011 133.853 42.6838 133.777 43.0427C133.711 43.1515 133.565 43.1189 133.467 43.0699C133.206 42.8742 133.097 42.5914 133.032 42.3086C133.026 42.1237 133.064 41.9062 133.298 41.8736C133.445 41.8899 133.575 41.9226 133.635 42.0748ZM161.862 43.2874C161.944 43.7497 161.808 44.1249 161.569 44.5164C161.596 44.7394 161.367 44.9514 161.302 45.1581C161.079 45.5387 160.829 45.9031 160.557 46.2456C160.203 46.5284 159.861 46.9254 159.349 46.8601C159.208 46.8384 159.099 46.7351 159.028 46.6154C158.778 45.6692 159.48 44.859 160.051 44.1738C160.415 43.7986 160.889 43.3527 161.427 43.1678C161.596 43.1569 161.764 43.1624 161.862 43.2874ZM131.024 43.7932C131.095 43.9509 131.062 44.1358 131.041 44.2989C130.937 44.4076 130.85 44.3315 130.747 44.2717C130.622 44.1303 130.54 43.9237 130.562 43.766C130.605 43.4778 130.964 43.592 131.024 43.7932ZM147.159 44.0651C147.148 44.6469 146.549 45.0765 146.065 45.3321C145.924 45.3375 145.929 45.1744 145.951 45.0983C146.054 44.7339 146.386 44.375 146.636 44.1194C146.778 44.0216 147.012 43.8965 147.159 44.0651ZM130.056 44.5164C130.225 44.9242 131.002 45.2505 130.518 45.7562C130.235 46.3598 129.762 46.9743 129.186 47.3658C128.984 47.4855 128.761 47.5888 128.511 47.5453C128.239 47.4855 128.157 47.2462 128.087 47.0124C128.054 46.5067 128.277 46.0879 128.44 45.6203C128.712 45.2505 128.805 44.8046 129.186 44.5164C129.273 44.3261 129.512 44.1629 129.702 44.0542C129.953 44.1031 129.92 44.3641 130.056 44.5164Z" fill="#6B586B"/>
</svg>
