<svg width="110" height="60" viewBox="0 0 110 60" fill="none" xmlns="http://www.w3.org/2000/svg">
<path d="M71.1705 3.03191C70.9578 2.90426 70.7769 2.87234 70.6812 2.88298C71.1705 3.21277 71.4471 3.96809 71.3727 4.62766C71.3088 5.24468 70.7663 6.79787 67.4684 6.46809C66.9684 6.41489 66.4471 6.34043 65.9046 6.2234C66.7769 5.15957 67.2556 4.10638 67.2556 3.14894C67.2556 2.30851 67.0429 1.7766 66.5535 1.31915C66.0216 0.819149 65.2025 0.595745 63.8833 0.595745C62.128 0.595745 59.1067 1.42553 56.0961 2.95745C55.7982 3.10638 55.511 3.25532 55.2237 3.41489C53.5748 3.08511 51.8301 2.8617 49.8408 2.85106L49.128 1.70213L46.6918 0L47.3301 2.93617C41.6386 3.48936 39.1812 6.14894 39.1812 8.5C39.1812 11.0213 41.5854 12.8936 45.745 13.3404C45.3408 14.5 45.1067 15.7234 45.1067 16.9787C45.1067 19.5745 46.0535 21.0213 47.0216 22.0745C48.0003 23.1383 50.0535 24.4468 53.0003 24.3723C55.7876 24.3085 58.5642 23.0532 60.5535 21.3085L62.9791 24.6809L63.1386 24.5638L60.9365 20.9681C62.5003 19.4894 63.4897 17.7128 63.4897 16.0426C63.4897 13.9362 61.9365 12.8511 59.6386 12.9468C58.7025 12.9894 57.6067 13.266 56.5322 13.7766L55.6174 12.2766C57.245 11.7872 58.8727 11.1277 60.4897 10.2979C62.6599 9.18085 64.4046 7.88298 65.5854 6.57447C66.3514 6.74468 67.0535 6.85106 67.6493 6.89362C71.1812 7.15957 71.7876 5.31915 71.8301 4.57447C71.862 3.7766 71.5429 3.24468 71.1705 3.03191ZM57.7982 3.3617C60.5748 1.78723 62.3939 1.21277 63.8088 1.11702C65.0322 1.03191 65.7344 1.25532 66.2131 1.70213C66.5535 2.02128 66.7344 2.47872 66.7344 3.14894C66.7344 4.06383 66.2344 5.07447 65.362 6.09574C64.2663 5.84043 63.0535 5.48936 61.6386 5.09575C60.0642 4.65957 58.5748 4.21277 57.0429 3.82979C57.2876 3.65957 57.5429 3.5 57.7982 3.3617ZM54.5961 3.75532C53.5642 4.3617 52.5642 5.03191 51.628 5.75532L50.1067 3.29787C51.745 3.32979 53.1918 3.5 54.5961 3.75532ZM39.6918 8.5C39.6918 6.64894 41.6705 3.85106 47.628 3.3617L50.2131 6.94681C48.3301 8.67021 46.8088 10.6702 45.9259 12.8723C42.0216 12.4787 39.6918 10.8191 39.6918 8.5ZM51.5003 8.73404L54.011 12.2128C52.3088 12.617 50.5535 12.8723 48.7876 12.9362C49.4684 11.4574 50.4152 10.0319 51.5003 8.73404ZM59.5003 13.4787C61.4791 13.4787 62.3195 14.4787 62.3195 16.0426C62.3195 17.2128 61.5961 18.7234 60.4046 20.117L56.7769 14.1915C57.7663 13.7234 58.7344 13.4787 59.5003 13.4787ZM55.5216 14.3298C54.4046 15.0213 53.362 15.9574 52.5961 17.1489C51.8408 18.3298 51.5642 19.4255 51.5854 20.1596C51.6067 20.734 51.8301 20.9255 51.8301 20.9255C51.8514 20.2766 51.9897 18.9787 53.0322 17.383C53.7769 16.266 54.7663 15.3723 55.8088 14.7234L60.011 20.5532C58.3514 22.2872 55.9471 23.734 53.2876 23.9043C51.362 24.0213 49.8833 23.3511 49.0429 22.383C48.0854 21.2979 47.6067 20.1596 47.6067 17.8511C47.6067 16.3723 47.9684 14.883 48.5748 13.4362C50.4791 13.383 52.4046 13.1277 54.3195 12.6383L55.5216 14.3298ZM60.2982 9.87234C58.7237 10.6915 57.0642 11.3511 55.3514 11.8511L52.6493 7.44681C53.8727 6.17021 55.2025 5.05319 56.4897 4.17021C58.0961 4.56383 59.7025 5.04255 61.4897 5.52128C62.6812 5.84043 63.9046 6.19149 65.011 6.45745C63.8833 7.67021 62.245 8.8617 60.2982 9.87234Z" fill="#6B586B"/>
<path d="M42.2983 59.9681H41.7451L41.7345 56.3617H42.2877L42.2983 59.9681ZM49.0005 60C49.9047 59.4787 50.543 58.4894 50.543 57.617C50.543 56.8617 50.0217 56.2979 49.3196 56.2979C48.6068 56.2979 48.1494 56.8298 48.1494 57.3617C48.1494 57.9468 48.6281 58.4149 49.2345 58.4149C49.4366 58.4149 49.66 58.3511 49.8302 58.2553C49.7239 58.7128 49.309 59.2128 48.66 59.6064L49.0005 60ZM49.3515 57.9255C48.9898 57.9255 48.7026 57.6702 48.7026 57.3617C48.7026 57.0319 48.9685 56.7872 49.3302 56.7872C49.6813 56.7872 49.9685 57.0851 49.9685 57.4362C49.9685 57.5213 49.9685 57.5957 49.9366 57.7234C49.7345 57.8723 49.5217 57.9255 49.3515 57.9255ZM56.2771 56.9362C56.543 56.8191 56.7239 56.7766 56.926 56.7766C57.3302 56.7766 57.5962 56.9787 57.5962 57.3191C57.5962 57.6489 57.3409 57.8404 56.8302 57.8404V58.3191C57.3728 58.2979 57.6494 58.5638 57.66 58.9149C57.66 59.2659 57.4153 59.4894 57.043 59.4894C56.7558 59.4894 56.4792 59.4042 56.1813 59.2128V59.7766C56.4579 59.9043 56.7345 59.9787 57.0005 59.9787C57.7132 59.9787 58.2132 59.5213 58.2132 58.883C58.2132 58.5106 58.043 58.1383 57.66 58.0213C58.0111 57.8404 58.1494 57.617 58.1494 57.2128C58.1494 56.6383 57.7026 56.266 57.0111 56.2766C56.7239 56.2766 56.5005 56.3191 56.2771 56.4362V56.9362ZM65.7239 56.2766H65.4898L63.543 58.5106V58.7447H65.1707V59.9255H65.7239V58.7447H66.309V58.2766H65.7239V56.2766ZM65.16 57.2553H65.1707V58.2766H64.277L65.16 57.2553Z" fill="#6B586B"/>
<path d="M78.1492 47.6702L70.1704 34.7873C70.0428 34.5426 69.7343 34.5426 69.6066 34.7873L63.213 47.4256C62.5853 48.6064 61.5747 48.649 61.1385 48.6702C61.0853 48.6702 61.0428 48.6702 61.0109 48.6809L60.8619 48.7022V49.2447H65.8513L65.8619 48.6809H65.6492L65.2662 48.6915C64.83 48.6915 64.5002 48.649 64.2662 48.4362C64.0428 48.2234 63.947 48.0851 63.947 47.7341C63.947 47.7022 63.9577 47.6171 64.064 47.4149L65.6279 44.383C65.6492 44.383 65.6704 44.383 65.7023 44.3724L72.7555 44.3617L74.7236 47.4575C74.7662 47.5426 74.8513 47.7554 74.8513 47.8298C74.7555 48.649 73.4258 48.6915 73.1598 48.6915C73.1172 48.6915 73.0747 48.6915 73.0534 48.6915L72.8832 48.6809V49.2447H80.1172V48.6915H79.9577C79.7662 48.6702 78.596 48.4043 78.1492 47.6702ZM72.3938 43.5958H66.0002L68.8406 37.9362L72.3938 43.5958Z" fill="#6B586B"/>
<path d="M16.2237 44.5108L16.1812 44.5853C16.1705 44.5959 16.1492 44.6384 16.1173 44.7129C15.3726 46.2129 13.6705 48.7767 10.6386 49.0214C10.6386 49.0214 10.1918 49.0533 9.72371 49.0533C9.44712 49.0533 9.21307 49.0427 9.03222 49.0214C5.90456 48.6491 3.6918 46.3831 3.24499 43.0853C3.14924 42.3831 3.14924 41.9789 3.24499 41.3087C3.75563 37.7342 6.21307 35.6065 9.80882 35.6065C13.4897 35.6065 15.3195 38.5853 16.0109 39.7023C16.0641 39.7874 16.1067 39.8618 16.1492 39.9257L16.1918 40.0001L16.6173 40.0108L16.4258 36.2235C16.4258 36.0321 16.2769 35.8831 16.0748 35.8831C15.979 35.8831 15.8726 35.9257 15.8195 36.0001C15.6599 36.1597 15.5429 36.2342 15.2344 36.2342C15.0961 36.2342 14.6492 36.0853 14.128 35.9257C13.0429 35.5746 11.4046 35.0533 10.0003 34.9789C9.39392 34.947 9.00031 34.9363 8.43648 34.9895C4.34073 35.3193 -0.0422458 37.7555 0.0003074 42.3512C0.0428606 46.8725 4.36201 49.0852 8.06414 49.6172C8.38329 49.6704 8.78754 49.6916 9.26626 49.6916C10.0748 49.6916 10.8301 49.6278 10.8301 49.6278C12.2875 49.5321 13.8195 48.8831 14.7237 48.4895C15.0109 48.3725 15.3088 48.2448 15.3726 48.2342C15.5854 48.2342 15.6918 48.3406 15.8726 48.5533C15.9152 48.6065 15.9578 48.6597 16.0003 48.6916C16.0535 48.7661 16.1599 48.8512 16.2875 48.8512C16.479 48.8512 16.628 48.7023 16.628 48.5108V44.5321H16.2237V44.5108Z" fill="#6B586B"/>
<path d="M109.16 48.6703C108.277 48.6597 106.798 48.4682 106.777 47.3405C106.777 47.2342 106.777 37.2022 106.777 37.0959C106.819 36.3086 107.649 35.8405 109 35.8405H109.213V35.2874H101.553V35.8405H101.766C103.117 35.8405 103.947 36.3086 103.979 37.0959C103.979 37.2022 103.99 47.2342 103.99 47.3405C103.968 48.4788 102.479 48.6703 101.607 48.681H101.447V49.2342H109.341V48.681L109.16 48.6703Z" fill="#6B586B"/>
<path d="M98.9044 45.0746C98.3938 45.9789 96.3406 48.5533 93.7555 48.5533H90.2874H90.2449C88.8725 48.5533 87.9576 48.0533 87.9151 47.2874C87.9151 47.1916 87.9257 37.181 87.9257 37.0852C87.9683 36.298 88.7981 35.8299 90.1385 35.8299H90.3512V35.2767H82.6917V35.8299H82.9044C84.2449 35.8299 85.0746 36.298 85.1172 37.0852C85.1172 37.1916 85.1278 47.2235 85.1278 47.3299C85.1066 48.4682 83.6172 48.6597 82.7449 48.6704H82.5853V49.2235H98.1704L99.4895 44.9789H98.947L98.9044 45.0746Z" fill="#6B586B"/>
<path d="M36.1173 47.6702L28.1386 34.7873C28.0109 34.5426 27.7024 34.5426 27.5748 34.7873L21.1811 47.4256C20.5535 48.6064 19.5428 48.649 19.1173 48.6702C19.0641 48.6702 19.0216 48.6809 18.9896 48.6809L18.8407 48.6915V49.2341H23.8301V48.6702H23.6705H23.245C22.8088 48.6702 22.479 48.6277 22.2556 48.4149C22.0322 48.2022 21.9365 48.0639 21.9365 47.7128C21.9365 47.6809 21.9577 47.5958 22.0535 47.4043L23.6173 44.3724C23.6279 44.3724 23.6599 44.3617 23.6918 44.3617L30.745 44.3511L32.7131 47.4468C32.7556 47.5319 32.8301 47.7447 32.8407 47.8192C32.7556 48.6171 31.5216 48.6702 31.1492 48.6702C31.1067 48.6702 31.0748 48.6702 31.0535 48.6702L30.8833 48.6596V49.2234H38.1173V48.6702H37.9577C37.7237 48.6702 36.5641 48.4043 36.1173 47.6702ZM30.3514 43.5958H23.9684L26.8088 37.9362L30.3514 43.5958Z" fill="#6B586B"/>
<path d="M54.9365 35.8511H55.1492C56.245 35.8511 57.4258 36.1809 57.479 37.0851C57.479 37.1383 57.479 38.6596 57.479 45.6383V45.6596L44.3939 35.3192L44.3514 35.2873H40.5748V35.7979L40.6705 35.8404C42.5641 36.7341 42.9577 37.3511 42.9577 37.7021V47.3192C42.9258 48.5213 41.2769 48.6702 40.5641 48.6809H40.4046V49.2341H46.2663V48.6809H46.0641C44.6918 48.6809 43.7769 48.1809 43.7343 47.4043C43.7343 47.3192 43.7343 45.4362 43.7343 43.2447C43.7343 41.5532 43.7343 39.6277 43.7343 38.0426L57.745 49.1809L57.7875 49.2234H58.2556V37.1702C58.2769 36.0958 59.5854 35.8617 60.6705 35.8404H60.8301V35.2873L54.9471 35.2766V35.8511H54.9365Z" fill="#6B586B"/>
</svg>
