<svg width="124" height="39" viewBox="0 0 124 39" fill="none" xmlns="http://www.w3.org/2000/svg">
<path fill-rule="evenodd" clip-rule="evenodd" d="M7.01189 0.32863C10.6729 0.32863 11.6847 1.82948 12.2504 1.82948C12.4082 1.82948 12.5224 1.63371 12.7182 1.63371C12.9304 1.63371 12.9304 1.94367 12.9902 3.21069C13.0283 4.24388 13.2024 4.88555 12.8705 4.88555C12.6366 4.88555 12.5006 4.37983 12.4245 4.24388C11.2168 2.16119 9.83514 0.894168 7.32196 0.894168C3.52498 0.894168 1.69177 3.42277 1.69177 7.04438C1.69177 10.4322 3.63922 13.8199 7.37635 13.8199C10.4335 13.8199 12.3429 11.8732 12.6366 10.9759C12.6747 10.84 12.7944 10.7204 12.9086 10.7204C13.0065 10.7204 13.1045 10.84 13.0827 10.9324L12.6366 12.8792C12.6149 12.9553 11.2332 14.4181 6.85414 14.4181C2.86133 14.4181 0 11.672 0 7.64254C0 3.61309 2.89941 0.32863 7.01189 0.32863ZM14.3502 7.32171C14.3502 3.27051 17.5052 0.334066 21.498 0.334066C25.4691 0.334066 28.5263 3.19438 28.5263 7.22383C28.5263 11.6013 25.5072 14.429 21.1662 14.429C16.9449 14.4235 14.3502 11.4273 14.3502 7.32171ZM15.7754 6.75617C15.7754 10.356 18.1308 13.8417 21.9876 13.8417C24.8326 13.8417 27.1065 11.5632 27.1065 7.96338C27.1065 4.4179 24.713 0.975736 20.916 0.975736C17.6412 0.970298 15.7754 3.67834 15.7754 6.75617ZM40.2544 12.1668C41.6579 14.3093 42.6099 13.5861 42.6099 14.0538C42.6099 14.2876 41.5165 14.2876 41.3424 14.2876C39.9226 14.2876 39.161 13.2925 38.4212 12.1831L36.2616 8.77362C35.5599 7.68061 35.8537 7.74043 33.6723 7.74043C33.0467 7.74043 33.1664 8.08845 33.1664 8.28421V12.3898C33.1664 14.0646 35.19 13.461 35.19 14.1245C35.19 14.3202 35.0159 14.2822 34.8582 14.2822C34.6841 14.2822 34.2326 14.206 32.617 14.206C31.8772 14.206 31.1374 14.2822 30.3975 14.2822C30.2779 14.2822 30.2017 14.1843 30.2017 14.0701C30.2017 13.5861 31.6215 13.858 31.6215 12.3789V2.47114C31.6215 0.600524 29.946 1.39989 29.946 0.736469C29.946 0.622274 30.1038 0.502642 30.3377 0.502642C30.6859 0.502642 30.5879 0.57877 31.5834 0.57877C32.7149 0.57877 33.8246 0.502642 34.8364 0.502642C35.1465 0.502642 39.4494 0.111115 39.4494 3.86867C39.4494 5.38583 38.356 6.69092 36.996 7.2347L40.2544 12.1668ZM33.1664 6.81055C33.1664 7.18032 34.374 7.08244 35.2879 7.08244C36.1256 7.08244 37.9969 6.73442 37.9969 4.32001C37.9969 1.94367 36.1855 1.14431 34.2761 1.14431C33.5744 1.14431 33.1664 1.10624 33.1664 1.8621V6.81055ZM45.221 4.34176C45.221 0.290564 42.8655 1.42164 42.8655 0.703843C42.8655 0.58421 43.0614 0.508078 43.1593 0.508078C43.4694 0.508078 43.7631 0.58421 44.0732 0.58421C44.3669 0.58421 44.677 0.508078 44.9707 0.508078C45.1829 0.508078 45.3624 0.818037 45.4766 0.953983L54.7678 11.2913C54.8875 11.4273 54.9636 11.5034 55.0017 11.5034C55.0398 11.5034 55.0616 11.4436 55.0616 11.2913V3.15088C55.0616 0.600524 52.902 1.34007 52.902 0.698403C52.902 0.562457 52.9999 0.502642 53.1141 0.502642C53.7016 0.502642 54.2619 0.57877 54.8875 0.57877C55.5511 0.57877 56.3889 0.502642 56.8567 0.502642C56.9764 0.502642 57.0525 0.562459 57.0525 0.676654C57.0525 1.18237 55.9047 0.834351 55.9047 2.25363V13.5263C55.9047 14.0918 55.883 14.3637 55.7306 14.3637C55.5947 14.3637 55.3988 14.2658 54.9908 13.8199L46.6136 4.39614C46.5755 4.35808 46.3416 4.02637 46.2056 4.02637C46.1294 4.02637 46.0696 4.08619 46.0696 4.47227V12.4333C46.0696 14.1843 47.7831 13.5045 47.7831 14.032C47.7831 14.1299 47.7614 14.2876 47.5655 14.2876C47.0977 14.2876 46.5537 14.2115 45.5963 14.2115C44.9163 14.2115 43.9045 14.2876 43.7631 14.2876C43.5292 14.2876 43.5074 14.168 43.5074 14.0755C43.5074 13.3958 45.221 14.2495 45.221 11.5252V4.34176ZM61.9864 6.16888C61.9864 6.8323 61.9483 6.8323 62.7262 6.8323H64.8314C66.855 6.8323 66.3328 5.27708 66.7952 5.27708C66.9529 5.27708 67.0073 5.48915 67.0073 5.64685C67.0073 6.32658 66.9692 6.99 66.9692 7.61535C66.9692 8.12107 67.0073 8.62679 67.0073 9.15427C67.0073 9.32828 66.9312 9.40984 66.7952 9.40984C66.1914 9.40984 66.855 7.69692 65.2176 7.69692H62.3345C61.9266 7.69692 61.9864 8.02863 61.9864 8.32227V11.9058C61.9864 13.0532 61.8286 13.5209 63.466 13.5209C67.9647 13.5209 68.6284 11.5143 68.8786 11.5143C69.0146 11.5143 69.0364 11.7101 69.0364 11.7481C69.0364 12.4496 68.5305 13.1293 68.0626 13.6351C67.4371 14.3365 67.0128 14.2985 66.1533 14.2985C64.6737 14.2985 63.194 14.1788 61.7144 14.2223C60.9365 14.2441 60.1151 14.2985 59.3372 14.2985C59.1631 14.2985 59.0435 14.2604 59.0435 14.1027C59.0816 13.8689 59.2774 13.9069 59.8975 13.597C60.4034 13.3632 60.4415 12.8194 60.4415 11.9004V3.01493C60.4415 2.13944 60.4415 1.20412 59.3916 1.04643C59.2339 1.00836 58.8096 0.970296 58.8096 0.736469C58.8096 0.578771 58.9292 0.502642 59.4895 0.502642C63.1723 0.502642 64.1841 0.57877 65 0.57877C65.3863 0.57877 67.1814 0.502642 67.7852 0.502642C67.943 0.502642 67.981 0.698403 67.981 0.93223C67.981 3.09106 67.7091 3.24876 67.5894 3.24876C67.1216 3.24876 67.4316 2.31345 67.1216 1.86754C66.6157 1.20412 64.5921 1.32376 63.8142 1.32376C61.9429 1.32376 61.981 1.24763 61.981 2.55271L61.9864 6.16888ZM73.0673 11.8949C73.0673 13.0423 72.9095 13.51 74.5469 13.51C79.0456 13.51 79.7092 11.5034 79.9595 11.5034C80.0955 11.5034 80.1172 11.6992 80.1172 11.7372C80.1172 12.4387 79.6113 13.1185 79.1435 13.6242C78.5179 14.3257 78.0936 14.2876 77.2341 14.2876C75.7545 14.2876 74.2749 14.168 72.7953 14.2115C72.0174 14.2332 71.196 14.2876 70.4181 14.2876C70.244 14.2876 70.1243 14.2495 70.1243 14.0918C70.1624 13.858 70.3582 13.8961 70.9784 13.5861C71.4843 13.3523 71.5223 12.8085 71.5223 11.8895V2.02524C71.5223 1.0138 69.885 1.14975 69.885 0.758222C69.885 0.546145 70.021 0.502642 70.2712 0.502642C70.6792 0.502642 71.283 0.57877 72.2404 0.57877C73.3501 0.57877 73.8179 0.502642 74.1117 0.502642C74.3619 0.502642 74.4816 0.540707 74.4816 0.774534C74.4816 1.22044 73.0618 0.736467 73.0618 2.42764L73.0673 11.8949ZM83.0601 2.1775C83.0384 0.75822 81.4826 1.14431 81.4826 0.720156C81.4826 0.546145 81.5207 0.508078 81.6784 0.508078C82.3965 0.508078 83.0982 0.58421 83.8217 0.58421C84.4255 0.58421 85.0294 0.508078 85.6332 0.508078C85.9432 0.508078 86.0031 0.546145 86.0031 0.703843C86.0031 1.1715 84.5996 0.725592 84.5996 2.18294V12.6399C84.5996 13.9613 86.3349 13.5154 86.3349 14.0973C86.3349 14.2332 86.2751 14.293 85.9432 14.293C85.4972 14.293 84.6594 14.2169 83.8217 14.2169C82.6358 14.2169 82.2224 14.293 81.9504 14.293C81.6023 14.293 81.5424 14.1952 81.5424 13.9994C81.5424 13.4339 83.0601 14.0755 83.0601 12.1505V2.1775ZM97.5844 9.63823C97.3885 9.19233 97.2743 8.89868 96.7249 8.89868H92.4383C92.0684 8.89868 91.7203 8.89868 91.5245 9.30652L90.2787 12.0309C90.1917 12.2484 90.1482 12.4768 90.1428 12.7106C90.1428 14.0755 91.5245 13.4882 91.5245 13.994C91.5245 14.342 91.2525 14.2876 90.9968 14.2876C90.4528 14.2876 89.9034 14.2115 89.3594 14.2115C88.8318 14.2115 88.3095 14.2876 87.7982 14.2876C87.6785 14.2876 87.6241 14.1897 87.6241 14.0755C87.6241 13.6677 88.538 13.9994 89.0439 12.8901L93.6949 2.96055C94.8427 0.50808 94.9026 0.19812 95.1528 0.19812C95.3704 0.19812 95.5064 0.763657 95.5608 0.915917L99.6134 10.9433C99.9072 11.6611 100.136 12.4822 100.587 13.162C101.175 14.0592 102.301 13.6296 102.301 14.1136C102.301 14.2876 102.165 14.2876 102.029 14.2876C101.229 14.2876 100.429 14.2115 99.6352 14.2115C99.1075 14.2115 98.5853 14.2876 98.0576 14.2876C97.938 14.2876 97.6279 14.2876 97.6279 14.0918C97.6279 13.6242 98.7975 13.8199 98.7975 13.0804C98.7975 12.6508 98.3895 11.759 98.1936 11.2315L97.5844 9.63823ZM92.3295 7.69148C92.1936 7.96338 92.3296 8.03951 92.5852 8.03951H96.442C96.8718 8.03951 96.85 7.90356 96.7521 7.64798L94.8427 2.95511C94.7448 2.72128 94.6469 2.72128 94.5327 2.95511L92.3295 7.69148ZM105.124 4.34176C105.124 0.290564 102.769 1.42164 102.769 0.703843C102.769 0.58421 102.964 0.508078 103.062 0.508078C103.372 0.508078 103.666 0.58421 103.976 0.58421C104.27 0.58421 104.58 0.508078 104.874 0.508078C105.091 0.508078 105.265 0.818037 105.38 0.953983L114.671 11.2913C114.785 11.4273 114.861 11.5034 114.905 11.5034C114.943 11.5034 114.965 11.4436 114.965 11.2913V3.15088C114.965 0.600524 112.805 1.34007 112.805 0.698403C112.805 0.562457 112.903 0.502642 113.017 0.502642C113.599 0.502642 114.165 0.57877 114.79 0.57877C115.454 0.57877 116.292 0.502642 116.76 0.502642C116.874 0.502642 116.955 0.562459 116.955 0.676654C116.955 1.18237 115.808 0.834351 115.808 2.25363V13.5263C115.808 14.0918 115.786 14.3637 115.634 14.3637C115.498 14.3637 115.302 14.2658 114.894 13.8199L106.522 4.39614C106.484 4.35808 106.25 4.02637 106.114 4.02637C106.038 4.02637 105.978 4.08619 105.978 4.47227V12.4333C105.978 14.1843 107.692 13.5045 107.692 14.032C107.692 14.1299 107.67 14.2876 107.474 14.2876C107.006 14.2876 106.462 14.2115 105.51 14.2115C104.83 14.2115 103.813 14.2876 103.677 14.2876C103.443 14.2876 103.427 14.168 103.427 14.0755C103.427 13.3958 105.14 14.2495 105.14 11.5252L105.124 4.34176ZM120.725 2.1775C120.703 0.75822 119.148 1.14431 119.148 0.720156C119.148 0.546145 119.186 0.508078 119.344 0.508078C120.062 0.508078 120.763 0.58421 121.487 0.58421C122.091 0.58421 122.694 0.508078 123.298 0.508078C123.608 0.508078 123.668 0.546145 123.668 0.703843C123.668 1.1715 122.265 0.725592 122.265 2.18294V12.6399C122.265 13.9613 124 13.5154 124 14.0973C124 14.2332 123.94 14.293 123.608 14.293C123.162 14.293 122.325 14.2169 121.487 14.2169C120.301 14.2169 119.888 14.293 119.616 14.293C119.267 14.293 119.208 14.1952 119.208 13.9994C119.208 13.4339 120.725 14.0755 120.725 12.1505V2.1775ZM47.6852 23.309L47.9517 23.7603C48.0116 24.6141 47.6308 25.2775 47.2663 25.979C46.619 27.3221 45.6181 28.6272 44.405 29.6876C43.7957 30.2042 43.1049 30.661 42.3596 30.9709C42.0441 31.0579 41.6253 31.1177 41.3478 30.9165C41.0759 30.7153 41.0541 30.351 41.0922 30.0193C41.2499 29.2798 41.7069 28.5891 42.3107 28.0834C42.3977 28.0617 42.5337 28.0997 42.4793 28.2302C42.4358 28.5946 42.2672 28.9752 42.4086 29.3504C42.6534 29.5027 42.9254 29.2743 43.1375 29.1764C44.7205 27.9366 46.2382 26.4629 46.842 24.5814C46.8529 24.4564 46.7604 24.2932 46.619 24.2661L46.3633 24.2824C45.4168 24.6195 44.5301 25.1633 43.6706 25.6473C41.6144 27.1807 39.705 28.8393 38.0568 30.6882C37.1755 31.6561 36.414 32.5697 35.7013 33.6735C35.3532 34.2499 35.0268 34.8644 34.8038 35.5007C34.8147 35.691 34.6732 35.9031 34.7059 36.1151C34.646 36.6263 34.7875 37.2408 35.2934 37.5072C35.549 37.6432 35.8972 37.703 36.1909 37.616C37.0667 37.5072 37.8446 37.0776 38.5464 36.5665C38.9217 36.2511 39.2535 35.8922 39.6561 35.5713C40.0477 35.1146 40.4503 34.636 40.8093 34.1521C41.4838 33.331 42.1747 32.3304 43.4041 32.5316C43.8828 32.6186 44.3397 32.7872 44.5247 33.282C44.6552 33.63 44.7368 34.0052 44.7205 34.3478C44.6988 34.4511 44.726 34.5599 44.7912 34.6469C44.949 34.7611 45.2047 34.7176 45.3842 34.6904C45.8302 34.6252 46.1784 34.288 46.4667 33.9563C46.5864 33.8041 46.3905 33.6844 46.2709 33.6137C45.6507 33.3636 45.3352 32.7709 45.2862 32.1673C45.2862 31.6507 45.4331 31.1504 45.9173 30.9165C46.2056 30.7915 46.483 30.8948 46.7169 31.0688C47.1031 31.4114 47.2881 31.9226 47.3751 32.4337C47.2881 32.7165 47.4295 33.0482 47.3588 33.3473C47.5002 33.7714 48.0497 33.6192 48.4413 33.6735C48.7949 33.7225 49.192 33.8475 49.2954 34.2173C49.2845 34.8807 48.561 35.2723 48.1857 35.7182C47.9082 36.1097 47.2772 36.4523 47.4295 37.0015C47.5927 37.219 47.8973 37.2462 48.1585 37.1646C48.6752 36.9906 49.0723 36.61 49.5456 36.3326C50.5846 35.4572 51.5855 34.5218 52.5919 33.717C52.766 33.592 52.9563 33.5702 53.1685 33.5648C53.3698 33.5865 53.5003 33.7605 53.5167 33.9454C53.3263 34.6578 53.0815 35.294 52.8421 35.9901C52.8367 36.0608 52.8476 36.1423 52.9237 36.1532L53.1631 36.0879C53.7234 35.7671 54.2129 35.2288 54.8875 35.1472C55.0616 35.1798 55.2628 35.2179 55.3499 35.4082C55.4423 35.7182 55.5239 36.0118 55.4913 36.3326C55.5838 36.5393 55.611 36.8547 55.8993 36.9036C56.8295 36.9091 57.2048 35.9357 57.5149 35.256L58.1459 34.2445C58.3363 34.1901 58.2329 34.0216 58.3961 33.9346C58.8259 33.4397 59.4351 33.021 60.0825 32.8579C60.4524 32.7926 60.8658 32.8198 61.0943 33.1569C61.4315 33.766 61.0127 34.4947 60.5612 34.9949C60.0118 35.4952 59.4297 35.9846 58.766 36.3326C58.5756 36.5121 58.4941 36.7242 58.5865 36.958C58.6899 37.1429 58.9129 37.2734 59.136 37.2462C59.6963 37.2136 60.126 36.8601 60.5557 36.5502C61.4642 35.7073 62.068 34.6469 62.7153 33.6463C62.8676 33.2059 63.2919 32.7872 63.4715 32.363C63.5857 32.1618 63.7435 31.9661 63.8522 31.7757C64.0862 31.4603 64.331 31.1123 64.5703 30.835C64.7172 30.7969 64.6845 30.6392 64.7824 30.5359C64.9456 30.3293 65.1904 30.1117 65.3156 29.9105C65.6909 29.5027 66.088 29.1166 66.5069 28.7523L66.6864 28.5076C67.5894 27.8061 68.5522 27.0883 69.5912 26.7076C69.9774 26.637 70.4997 26.4738 70.8424 26.762C71.1416 27.1209 70.9512 27.5831 70.788 27.9584C70.8424 28.0943 70.7009 28.1813 70.6901 28.3281C70.3474 28.8991 69.972 29.3831 69.5695 29.8942C68.6229 30.9274 67.4044 31.6942 66.2022 32.4446C65.6528 32.8198 65.0272 33.1134 64.4343 33.369C64.1623 33.6028 63.9828 33.9291 63.8849 34.2391C63.7598 34.4022 63.7435 34.6089 63.6183 34.772C63.5748 35.1526 63.3137 35.4789 63.3518 35.865C63.3844 36.0336 63.3844 36.2511 63.5476 36.3816C63.8958 36.6426 64.4125 36.4903 64.7389 36.3C65.4135 35.7508 66.2729 35.3266 66.8985 34.7339C67.4371 34.2663 68.0518 33.8693 68.5957 33.4397C68.7753 33.3473 69.0636 33.2603 69.2431 33.4125C69.4607 33.7007 69.1452 34.0216 69.0908 34.2989C68.9221 34.6306 68.8188 35.0004 68.5849 35.3375C68.4325 35.8324 67.9974 36.2293 68.0626 36.7405C68.1823 36.9417 68.4326 36.871 68.5957 36.8221C69.2485 36.5338 69.8795 36.2293 70.4072 35.7019C71.0926 35.1309 71.4897 34.2065 72.2023 33.6572C72.4961 33.4778 72.7137 33.1406 73.0455 33.0156C73.3991 32.7382 73.8016 32.537 74.2368 32.4283C74.623 32.4174 75.08 32.4011 75.3737 32.7002C75.6838 33.0863 75.4172 33.5974 75.488 34.0216C75.6022 34.288 75.8415 34.5164 75.7708 34.8372C75.5804 35.4735 74.944 35.8813 74.9277 36.5665C75.0147 36.7731 75.2921 36.6915 75.4444 36.6372L75.7219 36.474C76.6358 35.7889 77.381 35.0548 78.2895 34.3587C78.779 34.0814 79.1109 33.6137 79.6385 33.3364C79.8017 33.2548 80.0846 33.195 80.2423 33.3364C80.5252 33.6409 80.1988 33.9346 80.1444 34.2336C80.0356 34.4022 79.9051 34.598 79.867 34.7665C79.6494 35.1526 79.3992 35.5278 79.2795 35.952C79.274 36.0173 79.274 36.0771 79.3339 36.1151L79.546 36.0716L81.3249 35.0602C81.5044 35.0602 81.7111 34.9297 81.8579 35.0874C82.2007 35.4463 81.809 35.9194 81.8144 36.3272C81.7655 36.4305 81.8036 36.5665 81.8253 36.6807C82.1789 37.0668 82.5325 36.4958 82.8643 36.3925C83.9196 35.7399 84.8335 34.9732 85.8943 34.3206C86.0792 34.2173 86.324 34.1466 86.509 34.2935C86.7429 34.6143 86.5906 35.0548 86.596 35.3973C86.6667 35.8922 86.4002 36.5067 86.8734 36.8547C87.4718 37.0287 88.0049 36.7296 88.5271 36.5828C89.3268 36.3109 90.1373 36.039 90.8989 35.7073C91.3504 35.5877 91.7529 35.343 92.2588 35.343C92.2915 35.4028 92.422 35.3756 92.3731 35.4789C92.3459 35.6366 92.1936 35.6964 92.063 35.7508C91.5299 35.9139 90.9968 36.1314 90.4637 36.2565C90.2787 36.3707 90.0231 36.4033 89.8436 36.5447C88.9242 36.8438 88.043 37.2843 87.1509 37.6214C86.8027 37.7846 86.4165 37.8824 86.0575 38.0293L85.5244 38.0129L85.1599 37.7247C85.1327 37.5942 85.0565 37.4093 85.1001 37.2625C84.9804 36.8221 85.0946 36.3272 85.0565 35.8704C84.9641 35.7889 84.8172 35.7943 84.7084 35.8432C83.6748 36.4795 82.576 37.181 81.5533 37.8172C81.2378 37.9586 80.8625 38.1706 80.498 38.0075C80.1281 37.6921 80.3729 37.2462 80.3457 36.8492C80.3076 36.7242 80.1172 36.7622 80.0193 36.7949C79.187 37.2353 78.5832 38.0293 77.5768 38.0619C77.381 38.0347 77.1743 37.9259 77.0981 37.7356C76.9349 37.2136 77.3103 36.5828 77.4082 36.0988C77.3212 36.0336 77.2287 36.1097 77.1417 36.126C76.5378 36.5719 75.9014 37.0831 75.2595 37.4637C74.8624 37.7737 74.3402 38.0075 73.8288 37.8444C73.5732 37.8226 73.448 37.4039 73.1434 37.5616C72.5505 37.9694 71.7236 38.3229 71.0001 37.9966C70.5813 37.6921 70.4181 37.2027 70.3365 36.7405C70.2549 36.6372 70.1134 36.7133 70.0155 36.7296C69.2213 37.2353 68.3836 37.654 67.5459 38.0238C67.2195 38.1217 66.8006 38.1978 66.4905 38.0075C66.2784 37.7628 66.2566 37.393 66.2947 37.0939C66.4361 36.7296 66.5667 36.2946 66.7299 35.952C66.719 35.8487 66.7571 35.7834 66.6483 35.7182C65.6691 36.1967 64.9076 36.9145 63.9665 37.4746C63.3246 37.9368 62.5739 38.4806 61.7199 38.1815C61.2847 38.0782 61.214 37.616 61.1704 37.2408C61.2085 37.1266 61.1704 36.9852 61.0616 36.9417C60.5666 37.1211 60.1858 37.4964 59.7289 37.7574C59.1903 38.1271 58.3907 38.399 57.7651 38.0293C57.4387 37.8444 57.2864 37.4855 56.9764 37.2952C56.3181 37.4257 55.9047 37.9912 55.3063 38.2468C55.018 38.3338 54.6699 38.3827 54.4088 38.2033C54.077 37.7737 54.1749 37.2408 54.0715 36.7568C54.1368 36.6209 53.9682 36.5121 53.9464 36.3762H53.7614C52.8367 36.9526 52.1567 37.7846 51.1395 38.2033C50.9219 38.2468 50.6988 38.1924 50.5628 38.0238C50.4377 37.6704 50.5411 37.2408 50.7043 36.9199C50.8512 36.6752 50.9382 36.436 50.9545 36.1586C50.7369 36.039 50.6227 36.3218 50.4377 36.3653C49.7686 36.8819 49.1594 37.3441 48.4468 37.7846C47.9354 38.1108 47.3425 38.399 46.6788 38.3827C46.3416 38.3338 46.0261 38.1435 45.8629 37.8498C45.6181 37.306 45.7921 36.6372 46.1729 36.1858C46.434 35.8324 46.6952 35.4137 47.0868 35.1363C47.25 34.8644 47.6852 34.7285 47.7614 34.4022C47.6471 34.1793 47.2935 34.201 47.0596 34.2228C46.5156 34.6306 46.1131 35.2886 45.3461 35.3538C44.9653 35.5007 44.3941 35.2342 44.2255 35.7345C44.0242 36.0118 43.8828 36.349 43.6652 36.6317C43.6326 36.7622 43.4857 36.8329 43.4422 36.9471C43.1375 37.4311 42.7132 37.8117 42.2508 38.187C41.7558 38.5948 41.016 38.6981 40.4285 38.4045C39.8737 38.1163 39.705 37.5507 39.6561 37.0015C39.6234 36.9145 39.569 36.8003 39.4766 36.7677L39.2807 36.8492C37.9643 37.9749 36.142 39.4594 34.2272 38.486C33.9552 38.3175 33.6342 38.0836 33.4819 37.8063C32.9814 36.9798 32.9053 36.0499 33.1174 35.12C33.1392 34.7285 33.335 34.3206 33.4384 33.9182C33.8083 33.1189 34.2489 32.3848 34.7276 31.6289C34.8527 31.5637 34.8255 31.3842 34.9398 31.2863C37.045 28.4695 39.705 26.1149 42.7567 24.3639C44.0079 23.7766 45.1992 23.0425 46.6734 22.9718C47.0596 22.9827 47.4078 23.0915 47.6852 23.309ZM69.6021 28.1759C69.5912 28.6598 69.2812 29.1003 68.9983 29.5136C67.9538 30.8404 66.5721 31.7975 65.0816 32.537H64.9837C64.9456 32.4391 65.098 32.363 65.0816 32.276C65.3264 31.6724 65.8051 31.2211 66.2022 30.6936C67.0345 29.7583 67.9049 28.8937 68.9656 28.1867C69.1343 28.0726 69.477 27.9529 69.6021 28.1759ZM71.6529 29.7039C71.6257 29.9051 71.6475 30.1117 71.5822 30.3184C71.4516 30.8187 71.1089 31.3353 70.739 31.6833C70.6955 31.6942 70.652 31.7213 70.5976 31.7105C70.5432 31.5854 70.5758 31.4331 70.6248 31.3135C70.603 31.0036 70.6737 30.7045 70.6411 30.4C70.6846 30.0628 71.1252 29.916 71.3265 29.7039C71.4244 29.6822 71.5713 29.5571 71.6529 29.7039ZM89.7402 30.5087C89.3921 31.2972 88.8753 31.9824 88.1137 32.4555L87.9832 32.4283C88.043 31.9824 88.3531 31.5963 88.4727 31.1613C88.4292 31.009 88.5543 30.9002 88.5978 30.7643C88.761 30.6012 88.9079 30.6229 89.1038 30.5087C89.3105 30.487 89.6368 30.177 89.7402 30.5087ZM46.6353 32.0748C46.7659 32.4011 46.8529 32.6838 46.7768 33.0427C46.7115 33.1515 46.5646 33.1189 46.4667 33.0699C46.2056 32.8742 46.0968 32.5914 46.0315 32.3086C46.0261 32.1237 46.0641 31.9062 46.298 31.8736C46.4449 31.8899 46.5755 31.9226 46.6353 32.0748ZM74.8624 33.2874C74.944 33.7497 74.808 34.1249 74.5686 34.5164C74.5958 34.7394 74.3674 34.9514 74.3021 35.1581C74.079 35.5387 73.8288 35.9031 73.5568 36.2456C73.2032 36.5284 72.8605 36.9254 72.3492 36.8601C72.2078 36.8384 72.099 36.7351 72.0283 36.6154C71.778 35.6692 72.4798 34.859 73.0509 34.1738C73.4154 33.7986 73.8887 33.3527 74.4272 33.1678C74.5958 33.1569 74.7645 33.1624 74.8624 33.2874ZM44.0242 33.7932C44.0949 33.9509 44.0623 34.1358 44.0405 34.2989C43.9372 34.4076 43.8501 34.3315 43.7468 34.2717C43.6217 34.1303 43.5401 33.9237 43.5618 33.766C43.6054 33.4778 43.9644 33.592 44.0242 33.7932ZM60.1586 34.0651C60.1477 34.6469 59.5494 35.0765 59.0652 35.3321C58.9238 35.3375 58.9292 35.1744 58.951 35.0983C59.0544 34.7339 59.3862 34.375 59.6364 34.1194C59.7778 34.0216 60.0118 33.8965 60.1586 34.0651ZM43.0559 34.5164C43.2246 34.9242 44.0025 35.2505 43.5183 35.7562C43.2354 36.3598 42.7622 36.9743 42.1856 37.3658C41.9843 37.4855 41.7613 37.5888 41.511 37.5453C41.239 37.4855 41.1574 37.2462 41.0867 37.0124C41.0541 36.5067 41.2771 36.0879 41.4403 35.6203C41.7123 35.2505 41.8048 34.8046 42.1856 34.5164C42.2726 34.3261 42.512 34.1629 42.7023 34.0542C42.9526 34.1031 42.9199 34.3641 43.0559 34.5164Z" fill="#6B586B"/>
</svg>
