<svg width="287" height="16" viewBox="0 0 287 16" fill="none" xmlns="http://www.w3.org/2000/svg">
<path d="M10.6041 0.150024H0.342267H0.0421512V0.449017V0.618183V0.917175H0.342267H1.61355V14.1307H0.300116H0V14.4291V14.6011V14.9018H0.300116H5.42008H5.71851V14.6011V14.4095V14.1116H5.42008H4.16847V7.74847H4.99632H5.31835C6.69641 7.74847 7.61025 8.73088 7.70074 10.3118L7.71872 10.5917H8.00085H8.1599H8.46058V10.2944V4.18248V3.88349H8.1599H8.00085H7.70074V4.18248V4.28983C7.70074 5.04012 7.39837 5.76905 6.87289 6.28667C6.44014 6.71493 5.90341 6.94704 5.365 6.94029H4.93843H4.16847V0.917175H6.59019H6.81107C8.64829 0.917175 10.0078 2.31154 10.123 4.305L10.1382 4.58882H10.4209H10.6041H10.902V4.28983V0.449017V0.150024H10.6041Z" fill="#6B586B"/>
<path d="M30.9179 14.1313H29.2358L24.3496 0.20064L24.2794 0H24.0652H23.7826H23.5684L23.4999 0.202888L18.7907 14.1313H17.5144H17.2143V14.4292V14.6012V14.9018H17.5144H20.7201H21.0202V14.6012V14.4292V14.1313H20.7201H19.6427L20.8966 10.4023H25.3056L26.6044 14.1313H25.4978H25.2V14.4292V14.6012V14.9018H25.4978H30.9179H31.2163V14.6012V14.4292V14.1313H30.9179ZM21.1596 9.58967L23.0604 3.92174L25.0364 9.58967H21.1596Z" fill="#6B586B"/>
<path d="M46.7508 7.16959C48.4419 6.68345 49.4002 5.63641 49.4002 4.16C49.4002 1.74951 47.4 0.128662 44.4241 0.128662H44.2426H39.4272H39.1271V0.428216V0.617616V0.91717H39.4272H40.5777V14.1307H39.4053H39.1052V14.4286V14.6011V14.9012H39.4053H44.002H44.2426C49.1681 14.9012 49.9082 12.5734 49.9082 11.1858C49.9082 9.35527 48.705 7.87155 46.7508 7.16959ZM43.132 0.894689H44.0593H44.2049C45.733 0.894689 46.2298 1.31676 46.508 1.94791C46.7109 2.4318 46.8655 3.32147 46.8655 4.01219C46.8655 4.58095 46.7705 5.13734 46.5828 5.6263C46.3001 6.40132 45.9359 6.74752 44.5056 6.74752H44.3443H43.132V0.894689ZM46.7199 13.3692C46.358 13.8952 45.5785 14.1307 44.2049 14.1307H44.002H43.132V7.53827H44.3443H44.5253C45.0816 7.53827 45.5189 7.58492 45.8348 7.67484C46.7975 7.97327 47.3713 9.08831 47.3713 10.6535C47.3713 11.7287 47.1173 12.7959 46.7199 13.3692Z" fill="#6B586B"/>
<path d="M66.2965 0.170898H61.2164H60.9163V0.469891V0.659852V0.958844H61.2164H62.5299V14.1308H61.1945H60.8961V14.4292V14.6006V14.9013H61.1945H66.2965H66.5949V14.6006V14.409V14.1111H66.2965H65.005V0.93805H66.2965H66.5949V0.639057V0.469891V0.170898H66.2965Z" fill="#6B586B"/>
<path d="M89.819 14.1313H88.1364L83.2485 0.20064L83.1755 0H82.9681H82.6854H82.4713L82.4004 0.202888L77.6936 14.1313H76.415H76.1171V14.4292V14.6012V14.9018H76.415H79.623H79.9208V14.6012V14.4292V14.1313H79.623H78.5433L79.7933 10.4023H84.2039L85.5067 14.1313H84.3984H84.0983V14.4292V14.6012V14.9018H84.3984H89.819H90.1192V14.6012V14.4292V14.1313H89.819ZM80.0557 9.58967L81.9632 3.92174L83.9347 9.58967H80.0557Z" fill="#6B586B"/>
<path d="M111.427 0.105591H108.364H108.067V0.404583V0.595668V0.894661H108.364H109.395V9.80092L103.56 0.248905L103.474 0.105591H103.304H99.5149H99.2154V0.404583V0.595668V0.894661H99.5149H100.625V14.1312H99.5149H99.2154V14.4286V14.6011V14.9018H99.5149H102.518H102.818V14.6011V14.4094V14.111H102.518H101.427V1.65675L109.663 15.0957L110.214 14.9411V0.894661H111.427H111.726V0.595668V0.404583V0.105591H111.427Z" fill="#6B586B"/>
<path d="M134.933 14.1313H133.249L128.361 0.20064L128.29 0H128.08H127.798H127.581L127.515 0.202888L122.806 14.1313H121.527H121.23V14.4292V14.6012V14.9018H121.527H124.735H125.034V14.6012V14.4292V14.1313H124.735H123.656L124.906 10.4023H129.319L130.619 14.1313H129.509H129.208V14.4292V14.6012V14.9018H129.509H134.933H135.232V14.6012V14.4292V14.1313H134.933ZM125.168 9.58967L127.076 3.92174L129.047 9.58967H125.168Z" fill="#6B586B"/>
<path d="M171.055 0.150024H160.793H160.494V0.449017V0.618183V0.917175H160.793H162.068V14.1307H160.754H160.455V14.4291V14.6011V14.9018H160.754H165.874H166.172V14.6011V14.4095V14.1116H165.874H164.621V7.74847H165.45H165.772C167.15 7.74847 168.064 8.73088 168.153 10.3118L168.171 10.5917H168.452H168.615H168.916V10.2944V4.18248V3.88349H168.615H168.452H168.153V4.18248V4.28983C168.153 5.04012 167.854 5.76905 167.326 6.28667C166.89 6.71493 166.355 6.94704 165.817 6.94029H165.389H164.62V0.917175H167.043H167.266C169.098 0.917175 170.462 2.31154 170.573 4.305L170.59 4.58882H170.873H171.054H171.355V4.28983V0.449017V0.150024H171.055Z" fill="#6B586B"/>
<path d="M187.323 0.170898H182.243H181.943V0.469891V0.659852V0.958844H182.243H183.555V14.1308H182.22H181.92V14.4292V14.6006V14.9013H182.22H187.323H187.62V14.6006V14.409V14.1111H187.323H186.031V0.93805H187.323H187.62V0.639057V0.469891V0.170898H187.323Z" fill="#6B586B"/>
<path d="M210.203 9.72006H210.039H209.77L209.74 9.98252C209.625 10.9762 209.569 11.206 209.278 11.8726C208.666 13.2102 207.231 14.1105 205.725 14.1105H205.544H203.001L203.02 0.958796H204.595H204.923L204.892 0.631141L204.875 0.44118L204.849 0.170288H204.577H198.875H198.573V0.469842V0.659242V0.958796H198.875H200.387V14.1308H198.67H198.371V14.4286V14.6012V14.9013H198.67H210.203H210.5V14.6012V10.0179V9.72006H210.203Z" fill="#6B586B"/>
<path d="M226.068 0.170898H220.983H220.685V0.469891V0.659852V0.958844H220.983H222.299V14.1308H220.964H220.663V14.4292V14.6006V14.9013H220.964H226.068H226.365V14.6006V14.409V14.1111H226.068H224.774V0.93805H226.068H226.365V0.639057V0.469891V0.170898H226.068Z" fill="#6B586B"/>
<path d="M242.856 8.53416H243.034C247.898 8.53416 248.919 6.52496 248.919 4.83948C248.919 4.13864 248.724 3.43949 248.354 2.81903C247.236 1.00765 245.28 0.128662 242.371 0.128662H242.169H238.018H237.718V0.428216V0.617616V0.91717H238.018H239.192V14.1307H238.061H237.761V14.4291V14.6017V14.9012H238.061H242.875H243.175V14.6011V14.4083V14.111H242.875H241.74V8.5336H242.856V8.53416ZM241.726 7.72149V0.91717H242.31H242.49C243.462 0.91717 244.302 1.115 244.915 1.48986C245.736 1.96926 246.307 3.22312 246.307 4.54329C246.307 6.59577 245.237 7.72149 243.298 7.72149H243.136H241.726Z" fill="#6B586B"/>
<path d="M264.643 8.53416H264.828C269.686 8.53416 270.709 6.52496 270.709 4.83948C270.709 4.13752 270.514 3.43612 270.142 2.81903C269.025 1.00765 267.068 0.128662 264.16 0.128662H263.957H259.804H259.506V0.428216V0.617616V0.91717H259.804H260.98V14.1307H259.849H259.548V14.4291V14.6017V14.9012H259.849H264.664H264.962V14.6011V14.4083V14.111H264.664H263.533V8.5336H264.643V8.53416ZM263.515 7.72149V0.91717H264.103H264.282C265.253 0.91717 266.091 1.115 266.707 1.48986C267.525 1.96814 268.094 3.22312 268.094 4.54329C268.094 6.59577 267.028 7.72149 265.087 7.72149H264.929H263.515Z" fill="#6B586B"/>
<path d="M286.699 0.170898H281.616H281.319V0.469891V0.659852V0.958844H281.616H282.932V14.1308H281.599H281.299V14.4292V14.6006V14.9013H281.599H286.699H287V14.6006V14.409V14.1111H286.699H285.407V0.93805H286.699H287V0.639057V0.469891V0.170898H286.699Z" fill="#6B586B"/>
</svg>
