<svg width="93" height="44" viewBox="0 0 93 44" fill="none" xmlns="http://www.w3.org/2000/svg">
<path d="M71.3605 1.09177C68.924 0.295235 66.347 -0.0796065 63.7231 0.0141038C60.1152 0.201524 58.0536 1.09177 57.3976 1.7946C56.648 2.7317 55.992 3.76252 55.5703 4.88704C55.4766 5.16817 55.5234 5.35559 55.7577 5.30874C56.9759 5.07446 58.241 4.93389 59.5061 4.88704C60.5838 4.74647 61.6146 4.74647 62.6923 4.84018C62.8797 4.88704 62.9265 4.88704 62.9265 5.07446C62.9734 11.1656 57.3039 31.7819 51.3065 35.3429C46.293 37.4045 40.9983 38.5759 35.61 38.8102H35.5163C31.5804 38.9039 27.6915 38.6227 23.8493 37.8731C16.2588 36.4674 12.0887 32.2504 10.8236 30.2825C15.5091 26.5341 26.8949 28.2678 31.9084 32.9064C31.9553 32.9533 32.049 32.9533 32.0959 32.9064C32.2833 32.8127 32.6113 32.5784 32.7518 32.5316C32.7987 32.4847 32.7987 32.4379 32.7987 32.391C28.816 26.5341 15.2749 25.4564 11.1047 28.0335C11.1047 28.0335 8.90255 29.0643 8.29344 32.7659C8.24658 33.0001 8.24658 33.1875 8.24658 33.4218C8.24658 39.7473 23.9431 48.2749 42.1697 41.5278C46.1524 40.0753 49.4323 38.529 52.103 36.5611C62.13 29.0643 66.3938 15.9917 67.7526 5.07446C67.7526 4.93389 67.8463 4.93389 67.94 4.93389L70.1422 5.26188C70.3765 5.26188 70.4234 5.07446 70.5639 4.84018C70.7514 4.46534 71.173 3.43453 71.829 1.88831C71.829 1.46661 71.829 1.23234 71.3605 1.09177Z" fill="#E5E4E0"/>
<path d="M10.9172 19.5527H13.4943L12.1823 16.1323L10.9172 19.5527ZM14.0097 20.9115H10.4018L9.6053 23.0669H8.05908L11.3389 14.6329H12.9789L16.2587 23.0669H14.7125L14.0097 20.9115Z" fill="#6B586B"/>
<path d="M17.1958 18.8031C17.1021 16.4603 18.9294 14.4924 21.2722 14.3987C21.319 14.3987 21.4127 14.3987 21.4596 14.3987C23.6149 14.3987 24.88 15.6638 25.2549 17.1631L23.8961 17.5848C23.6618 16.4603 22.631 15.6638 21.4596 15.7106C20.0539 15.7106 18.6951 16.7414 18.6951 18.7562C18.6951 20.7241 20.0539 21.7549 21.5065 21.7549C22.6778 21.8018 23.7086 21.0053 23.9898 19.8807L25.3017 20.3024C24.8332 22.0361 23.2401 23.2075 21.4596 23.1137C19.1637 23.2075 17.2426 21.3801 17.1489 19.0842C17.1958 19.0373 17.1958 18.9436 17.1958 18.8031Z" fill="#6B586B"/>
<path d="M31.0182 21.8487C32.4239 21.8487 33.8764 20.8178 33.8764 18.8031C33.8764 16.7883 32.4707 15.7575 31.0182 15.7575C29.6126 15.7575 28.2069 16.7883 28.2069 18.8031C28.2069 20.8178 29.6126 21.8487 31.0182 21.8487ZM31.0182 14.3987C33.361 14.3518 35.282 16.226 35.3289 18.5688C35.3289 18.6625 35.3289 18.7094 35.3289 18.8031C35.3758 21.1927 33.5015 23.1606 31.1119 23.2075C28.7223 23.2543 26.7544 21.3801 26.7076 18.9905C26.7076 18.9436 26.7076 18.8499 26.7076 18.8031C26.6138 16.4603 28.4412 14.4924 30.7839 14.3987C30.8777 14.3987 30.9714 14.3987 31.0182 14.3987Z" fill="#6B586B"/>
<path d="M40.2952 21.8018C41.1386 21.8018 41.7009 21.3332 41.7009 20.5835C41.7009 19.9275 41.1854 19.3653 40.5295 19.3184C40.4826 19.3184 40.3889 19.3184 40.3421 19.3184H38.8895V21.7549L40.2952 21.8018ZM40.1546 18.1471C40.998 18.1471 41.4666 17.6785 41.4666 16.9757C41.4666 16.2728 40.9512 15.8043 40.1078 15.8043H38.8427V18.1939L40.1546 18.1471ZM40.3421 14.5861C41.982 14.5861 42.9191 15.5232 42.9191 16.8351C42.9191 17.6316 42.4505 18.3813 41.654 18.6625C42.5442 18.8967 43.2002 19.7401 43.2002 20.6772C43.2002 22.036 42.1694 23.02 40.5763 23.02H37.4839V14.5861H40.3421Z" fill="#6B586B"/>
<path d="M48.3076 18.8031C48.2139 16.4603 50.0413 14.4924 52.384 14.3987C52.4309 14.3987 52.5246 14.3987 52.5715 14.3987C54.7268 14.3987 55.9919 15.6638 56.3667 17.1631L55.0079 17.5848C54.7737 16.4603 53.7428 15.6638 52.5715 15.7106C51.1658 15.7106 49.807 16.7414 49.807 18.7562C49.807 20.7241 51.1658 21.7549 52.6183 21.7549C53.7897 21.8018 54.8205 21.0053 55.1485 19.8807L56.4604 20.3024C55.9919 22.0361 54.3988 23.2075 52.6183 23.1137C50.3224 23.2075 48.4014 21.3801 48.3076 19.0842C48.3076 19.0842 48.3076 18.9436 48.3076 18.8031Z" fill="#6B586B"/>
<path d="M62.13 21.8487C63.5357 21.8487 64.9882 20.8178 64.9882 18.8031C64.9882 16.7883 63.5826 15.7575 62.13 15.7575C60.7244 15.7575 59.3187 16.7883 59.3187 18.8031C59.3187 20.8178 60.6775 21.8487 62.13 21.8487ZM62.13 14.3987C64.4728 14.3518 66.3939 16.226 66.4407 18.5688C66.4407 18.6625 66.4407 18.7094 66.4407 18.8031C66.4876 21.1927 64.6134 23.1606 62.2238 23.2075C59.8341 23.2543 57.8662 21.3801 57.8194 18.9905C57.8194 18.9436 57.8194 18.8499 57.8194 18.8031C57.7257 16.4603 59.553 14.4924 61.8958 14.3987C61.9895 14.3987 62.0363 14.3987 62.13 14.3987Z" fill="#6B586B"/>
<path d="M73.8908 23.02V19.4121H69.9081V23.02H68.5024V14.5861H69.9081V18.0533H73.8908V14.5861H75.3433V23.02H73.8908Z" fill="#6B586B"/>
<path d="M77.9668 23.02V14.5861H83.1677V15.898H79.3725V18.1471H82.7929V19.459H79.3725V21.708H83.1677V23.02H77.9668Z" fill="#6B586B"/>
<path d="M79.0446 11.5874C79.5131 11.5874 79.8411 11.9622 79.8411 12.3839C79.8411 12.8056 79.4663 13.1805 79.0446 13.1805C78.6229 13.1805 78.2949 12.8525 78.248 12.4308C78.248 12.4308 78.248 12.4308 78.248 12.3839C78.248 11.9622 78.576 11.5874 79.0446 11.5874Z" fill="#6B586B"/>
<path d="M82.2307 11.5874C82.6524 11.5874 83.0272 11.9622 83.0272 12.3839C83.0272 12.8056 82.6993 13.1805 82.2776 13.1805C81.8559 13.1805 81.481 12.8525 81.481 12.4308V12.3839C81.4342 11.9622 81.809 11.5874 82.2307 11.5874Z" fill="#6B586B"/>
<path d="M91.0865 23.02L86.9164 16.6008V23.02H85.5107V14.5861H87.3381L91.1802 20.5835V14.5861H92.5859V23.02H91.0865Z" fill="#6B586B"/>
<path d="M1.40565 19.5527H0V20.0681C0 22.0829 1.31194 23.1606 3.04558 23.2074H3.70156C5.48205 23.2074 6.84085 22.1297 6.84085 20.0681V14.5861H5.4352V20.0213C5.4352 20.8178 5.10721 21.5206 4.40438 21.7549C4.0764 21.8486 3.74841 21.8955 3.37357 21.8486C2.99873 21.8955 2.62389 21.8018 2.2959 21.6612C1.59308 21.3801 1.40565 20.5367 1.40565 19.9744V19.5527Z" fill="#6B586B"/>
</svg>
