<svg width="156" height="44" viewBox="0 0 156 44" fill="none" xmlns="http://www.w3.org/2000/svg">
<path d="M19.6131 25.5293V9.14694L12.5491 19.8677H12.4088L5.4175 9.25083V25.5293H0V0.431152H5.9525L12.5491 11.0428L19.1508 0.431152H25.1034V25.5293H19.6131Z" fill="#6B586B"/>
<path d="M46.2279 25.5292L43.9321 19.904H33.3153L31.0194 25.5292H25.389L36.1513 0.249268H41.2415L51.9986 25.5292H46.2279ZM38.6237 6.8874L35.289 15.0266H41.9583L38.6237 6.8874Z" fill="#6B586B"/>
<path d="M67.2435 25.5293L61.6131 16.9278L55.9462 25.5293H49.6717L58.4187 12.7673L50.0301 0.431152H56.4864L61.7533 8.57039L67.0617 0.431152H73.3363L64.9269 12.6946L73.6739 25.5293H67.2435Z" fill="#6B586B"/>
<path d="M93.5312 26.0331L89.1889 21.5506C86.8203 24.3139 84.0622 25.8877 80.6912 25.8877C76.2814 25.8877 72.9831 23.0569 72.9831 18.8964C72.9831 15.489 75.3828 13.0166 79.4706 11.5103C77.5695 9.39626 76.6761 7.87437 76.6761 5.73957C76.6761 2.47245 79.2732 0.026001 82.9507 0.026001C86.2126 0.026001 88.7214 2.46206 88.7214 5.51103C88.7214 8.70543 86.3892 10.7052 82.5559 12.0401L89.1525 18.8185C90.4548 16.9083 91.5484 14.864 92.4144 12.7205L94.1025 13.401C93.1053 15.7437 91.8566 17.9712 90.3783 20.0443L95.0063 24.8125L93.5312 26.0331ZM80.5821 12.6582C76.6034 14.0191 74.8686 16.3512 74.8686 18.8237C74.8686 21.909 77.3046 24.2775 80.7484 24.2775C83.5428 24.2775 85.9425 22.7712 88.0202 20.33L80.5821 12.6582ZM82.878 1.55828C80.3328 1.55828 78.5408 3.35026 78.5408 5.64608C78.5408 7.25627 79.2213 8.47689 81.4444 10.8402C85.0283 9.69233 86.8567 7.97306 86.8567 5.53181C86.8666 5.00683 86.7704 4.48527 86.5739 3.99836C86.3774 3.51146 86.0846 3.06924 85.7131 2.6982C85.3415 2.32717 84.8989 2.03496 84.4118 1.83908C83.9246 1.64321 83.4029 1.5477 82.878 1.55828Z" fill="#6B586B"/>
<path d="M115.227 25.5293V9.14694L108.163 19.8677H108.038L101.026 9.25083V25.5293H95.6088V0.431152H101.561L108.163 11.0428L114.76 0.431152H120.712V25.5293H115.227Z" fill="#6B586B"/>
<path d="M135.344 25.9708C127.6 25.9708 122.063 20.1897 122.063 13.0529V12.9854C122.063 5.84862 127.693 0 135.438 0C143.182 0 148.74 5.7759 148.74 12.9075V12.9854C148.719 20.117 143.094 25.9708 135.344 25.9708ZM142.948 12.9854C142.948 8.68463 139.79 5.09547 135.344 5.09547C130.898 5.09547 127.818 8.61191 127.818 12.9127V12.9854C127.818 17.2913 130.971 20.8753 135.417 20.8753C139.863 20.8753 142.948 17.3589 142.948 13.0841V12.9854Z" fill="#6B586B"/>
<path d="M150.303 25.5293V0.431152H155.825V25.5293H150.303Z" fill="#6B586B"/>
<path d="M57.541 43.7919V37.1642H61.3899C61.7561 37.1338 62.1247 37.1794 62.4724 37.2983C62.8201 37.4172 63.1395 37.6067 63.4104 37.855C63.5796 38.0288 63.7126 38.2344 63.8018 38.46C63.891 38.6856 63.9345 38.9266 63.9298 39.1691C63.9325 39.4141 63.885 39.6571 63.7903 39.8831C63.6956 40.109 63.5558 40.3133 63.3792 40.4832C63.1075 40.7338 62.7866 40.925 62.437 41.0448C62.0874 41.1646 61.7166 41.2104 61.3483 41.1792H58.5539V43.7763L57.541 43.7919ZM58.5798 38.0783V40.2651H61.3639C61.591 40.2921 61.8213 40.271 62.0397 40.2029C62.2581 40.1349 62.4597 40.0216 62.6313 39.8703C62.725 39.7781 62.7994 39.6681 62.8502 39.5468C62.9011 39.4256 62.9273 39.2954 62.9274 39.1639C62.9291 38.9157 62.8362 38.6761 62.6676 38.4939C62.4978 38.3389 62.297 38.2218 62.0785 38.1502C61.8601 38.0785 61.6289 38.054 61.4003 38.0783H58.5798Z" fill="#6B586B"/>
<path d="M68.3968 37.1641H69.3525L72.6352 43.7918H71.5133L70.5835 41.9063H67.0931L66.1737 43.7918H65.1089L68.3968 37.1641ZM67.4878 41.096H70.1888L68.8747 38.3795H68.8123L67.4878 41.096Z" fill="#6B586B"/>
<path d="M75.1284 43.7918V37.1641H79.0085C79.385 37.1285 79.7648 37.1731 80.1229 37.2949C80.481 37.4166 80.8093 37.6128 81.0861 37.8705C81.4184 38.2213 81.6042 38.6858 81.6055 39.169C81.5949 39.6191 81.4278 40.0514 81.133 40.3917C80.8382 40.732 80.4341 40.959 79.9901 41.0337L81.699 43.8022H80.5096L78.9202 41.2051H76.1517V43.8022L75.1284 43.7918ZM76.1672 38.0782V40.265H79.2474C79.4078 40.2815 79.5699 40.266 79.7243 40.2194C79.8788 40.1729 80.0224 40.0962 80.147 39.9938C80.2716 39.8914 80.3747 39.7654 80.4503 39.6229C80.5259 39.4804 80.5725 39.3244 80.5875 39.1638C80.5819 38.9141 80.4838 38.6753 80.3122 38.4938C80.1399 38.3344 79.9349 38.2147 79.7115 38.1429C79.4881 38.0712 79.2517 38.0491 79.0188 38.0782H76.1672Z" fill="#6B586B"/>
<path d="M84.6076 43.7918V37.1641H85.6465V43.7918H84.6076Z" fill="#6B586B"/>
<path d="M94.2012 38.6445C93.4348 38.0935 92.5057 37.8155 91.5626 37.855C90.664 37.855 89.7966 38.1303 89.7966 38.8938C89.7966 39.6574 90.9289 39.7093 92.0509 39.782C93.3078 39.8495 95.3024 39.969 95.3024 41.787C95.3024 43.3452 93.8428 43.9997 92.1496 43.9997C90.763 44.0148 89.4205 43.513 88.3838 42.5921L89.0071 41.8753C89.8692 42.6693 90.9982 43.1105 92.1703 43.1115C93.3182 43.1115 94.248 42.7427 94.248 41.9324C94.248 41.0078 93.2559 40.8572 92.0353 40.7689C90.477 40.665 88.7526 40.556 88.7526 38.9925C88.7526 37.4291 90.3108 36.9616 91.5834 36.9616C92.739 36.944 93.8727 37.2772 94.8349 37.9173L94.2012 38.6445Z" fill="#6B586B"/>
</svg>
