<svg width="97" height="64" viewBox="0 0 97 64" fill="none" xmlns="http://www.w3.org/2000/svg">
<path fill-rule="evenodd" clip-rule="evenodd" d="M26.1612 55.3302H13.6458V48.98H26.1612V55.3302ZM15.0021 54.0766H24.7227V50.2541H15.0021V54.0766ZM37.2998 52.8024H28.7095V55.3302H27.3121V48.98H39.8275V52.8024H38.8822L39.8275 55.3302H38.2451L37.2998 52.8024ZM28.7095 51.5488H38.4301V50.2541H28.7095V51.5488ZM53.4939 50.2541V49.0005H40.9784V55.3507H53.4939V54.0971H42.3553V52.823H53.4939V51.5694H42.3553V50.2952H53.4939V50.2541ZM80.8059 50.2541V49.0005H68.2905V55.3507H80.8059V54.0971H69.6674V50.2747H80.8059V50.2541ZM67.1602 50.2541V49.0005H54.6447V52.8024H65.7627V54.0766H54.6241V55.3302H67.1396V51.5283H56.0011V50.2541H67.1602ZM97 49.0005H95.6231V55.3507H97V49.0005ZM93.0953 49.0005V51.5488H83.3542V49.0005H81.9773V55.3507H83.3542V52.8024H93.0953V55.3507H94.4722V49.0005H93.0953ZM10.6248 49.0005L6.24746 53.3779L1.87013 49.0005H0.0411042H0V55.3507H1.39746V50.4802L6.26801 55.3507L11.118 50.5007V55.3507H12.536V49.0005H12.4949H10.6248Z" fill="#6B586B"/>
<path fill-rule="evenodd" clip-rule="evenodd" d="M60.1318 20.5787C58.8576 23.4147 58.5905 27.5043 58.5905 27.5043H60.1318V35.9713C57.2547 37.2865 52.0758 37.677 49.3426 35.9302C49.4453 35.7041 49.5686 35.4575 49.692 35.1698C50.3085 33.9162 50.7606 32.7448 51.0689 31.635C51.521 30.1554 51.8703 28.5524 51.8703 27.0316C51.8703 21.7912 48.7261 19.4278 48.5 19.284C54.2337 15.667 57.7273 5.74097 58.5699 0.377197C58.8371 0.377197 59.4742 0.377197 60.1112 0.377197V20.5787H60.1318ZM36.8682 20.5787C38.1424 23.4147 38.4095 27.5043 38.4095 27.5043H36.8682V35.9713C39.7453 37.2865 44.9242 37.677 47.6574 35.9302C47.5547 35.7041 47.4314 35.4575 47.3081 35.1698C46.6915 33.9162 46.2394 32.7448 45.9311 31.635C45.479 30.1554 45.1297 28.5524 45.1297 27.0316C45.1297 21.7912 48.2739 19.4278 48.5 19.284C42.7663 15.667 39.2727 5.74097 38.4301 0.377197C38.1629 0.377197 37.5259 0.377197 36.8888 0.377197V20.5787H36.8682Z" fill="#6B586B"/>
<path d="M32.0276 58.6692L32.0427 59.0341C32.282 58.7503 32.6046 58.6084 33.0107 58.6084C33.467 58.6084 33.7776 58.7848 33.9425 59.1375C34.051 58.9794 34.1917 58.8517 34.3646 58.7544C34.5395 58.657 34.7456 58.6084 34.9828 58.6084C35.6985 58.6084 36.0623 58.9906 36.0744 59.7549V61.9596H35.5165V59.7883C35.5165 59.5531 35.4633 59.3778 35.3567 59.2622C35.2502 59.1446 35.0713 59.0858 34.82 59.0858C34.6129 59.0858 34.441 59.1487 34.3043 59.2744C34.1676 59.3981 34.0882 59.5653 34.0661 59.7762V61.9596H33.5052V59.8035C33.5052 59.3251 33.273 59.0858 32.8087 59.0858C32.4428 59.0858 32.1925 59.243 32.0578 59.5572V61.9596H31.4999V58.6692H32.0276Z" fill="#6B586B"/>
<path d="M38.9331 61.9596C38.9009 61.8948 38.8748 61.7792 38.8547 61.613C38.5953 61.8846 38.2858 62.0205 37.9259 62.0205C37.6043 62.0205 37.3399 61.9292 37.1328 61.7468C36.9278 61.5623 36.8253 61.3291 36.8253 61.0473C36.8253 60.7047 36.9539 60.4391 37.2112 60.2506C37.4706 60.06 37.8344 59.9647 38.3028 59.9647H38.8456V59.7062C38.8456 59.5096 38.7873 59.3535 38.6707 59.2379C38.5541 59.1203 38.3822 59.0615 38.1551 59.0615C37.9561 59.0615 37.7892 59.1122 37.6545 59.2136C37.5198 59.3149 37.4525 59.4376 37.4525 59.5815H36.8916C36.8916 59.4173 36.9489 59.2592 37.0635 59.1071C37.1801 58.953 37.3369 58.8314 37.5339 58.7422C37.7329 58.653 37.951 58.6084 38.1883 58.6084C38.5642 58.6084 38.8587 58.7037 39.0718 58.8943C39.2849 59.0828 39.3954 59.3433 39.4035 59.6758V61.1902C39.4035 61.4923 39.4417 61.7326 39.5181 61.911V61.9596H38.9331ZM38.0073 61.5308C38.1822 61.5308 38.3481 61.4852 38.5049 61.394C38.6617 61.3028 38.7753 61.1842 38.8456 61.0382V60.3631H38.4084C37.7249 60.3631 37.3831 60.5648 37.3831 60.9682C37.3831 61.1446 37.4414 61.2825 37.558 61.3818C37.6746 61.4812 37.8244 61.5308 38.0073 61.5308Z" fill="#6B586B"/>
<path d="M40.1423 60.2871C40.1423 59.7822 40.2609 59.3768 40.4981 59.0706C40.7353 58.7625 41.0459 58.6084 41.4299 58.6084C41.8118 58.6084 42.1144 58.7402 42.3375 59.0037V57.2886H42.8954V61.9596H42.3828L42.3556 61.6069C42.1325 61.8826 41.8219 62.0205 41.4239 62.0205C41.0459 62.0205 40.7373 61.8643 40.4981 61.5521C40.2609 61.2399 40.1423 60.8324 40.1423 60.3296V60.2871ZM40.7001 60.3509C40.7001 60.724 40.7765 61.0159 40.9293 61.2267C41.0821 61.4376 41.2932 61.543 41.5626 61.543C41.9164 61.543 42.1747 61.3828 42.3375 61.0625V59.5511C42.1707 59.2409 41.9144 59.0858 41.5686 59.0858C41.2952 59.0858 41.0821 59.1923 40.9293 59.4051C40.7765 59.618 40.7001 59.9333 40.7001 60.3509Z" fill="#6B586B"/>
<path d="M45.1178 62.0205C44.6755 62.0205 44.3157 61.8745 44.0383 61.5825C43.7608 61.2886 43.6221 60.8963 43.6221 60.4057V60.3023C43.6221 59.9759 43.6834 59.6849 43.8061 59.4295C43.9307 59.172 44.1036 58.9713 44.3247 58.8273C44.5479 58.6814 44.7891 58.6084 45.0484 58.6084C45.4726 58.6084 45.8023 58.7493 46.0375 59.0311C46.2727 59.3129 46.3903 59.7163 46.3903 60.2414V60.4756H44.18C44.188 60.8 44.2815 61.0625 44.4604 61.2632C44.6414 61.4619 44.8705 61.5613 45.148 61.5613C45.345 61.5613 45.5118 61.5207 45.6485 61.4396C45.7852 61.3585 45.9048 61.2511 46.0074 61.1173L46.3481 61.3849C46.0747 61.8086 45.6646 62.0205 45.1178 62.0205ZM45.0484 59.0706C44.8233 59.0706 44.6343 59.1538 44.4815 59.32C44.3288 59.4842 44.2343 59.7153 44.1981 60.0134H45.8325V59.9708C45.8164 59.6849 45.74 59.4639 45.6033 59.3078C45.4666 59.1497 45.2816 59.0706 45.0484 59.0706Z" fill="#6B586B"/>
<path d="M49.1766 61.9596H48.6188V58.6692H49.1766V61.9596ZM48.5735 57.7964C48.5735 57.7052 48.6007 57.6282 48.655 57.5653C48.7112 57.5025 48.7937 57.471 48.9022 57.471C49.0108 57.471 49.0932 57.5025 49.1495 57.5653C49.2058 57.6282 49.2339 57.7052 49.2339 57.7964C49.2339 57.8877 49.2058 57.9637 49.1495 58.0245C49.0932 58.0853 49.0108 58.1157 48.9022 58.1157C48.7937 58.1157 48.7112 58.0853 48.655 58.0245C48.6007 57.9637 48.5735 57.8877 48.5735 57.7964Z" fill="#6B586B"/>
<path d="M50.5999 58.6692L50.618 59.0828C50.8673 58.7665 51.193 58.6084 51.595 58.6084C52.2846 58.6084 52.6324 59.0007 52.6384 59.7853V61.9596H52.0805V59.7822C52.0785 59.545 52.0242 59.3697 51.9177 59.2561C51.8132 59.1426 51.6493 59.0858 51.4262 59.0858C51.2452 59.0858 51.0864 59.1345 50.9497 59.2318C50.813 59.3291 50.7065 59.4568 50.6301 59.615V61.9596H50.0722V58.6692H50.5999Z" fill="#6B586B"/>
<path d="M55.7202 61.9596H55.1412V57.5319H55.7202V61.9596Z" fill="#6B586B"/>
<path d="M57.4511 57.8725V58.6692H58.0602V59.1041H57.4511V61.1446C57.4511 61.2764 57.4782 61.3758 57.5325 61.4427C57.5868 61.5075 57.6793 61.54 57.8099 61.54C57.8743 61.54 57.9627 61.5278 58.0753 61.5035V61.9596C57.9285 62.0002 57.7858 62.0205 57.6471 62.0205C57.3978 62.0205 57.2098 61.9444 57.0832 61.7924C56.9565 61.6403 56.8932 61.4244 56.8932 61.1446V59.1041H56.2992V58.6692H56.8932V57.8725H57.4511Z" fill="#6B586B"/>
<path d="M60.7289 61.9596C60.6967 61.8948 60.6706 61.7792 60.6505 61.613C60.3912 61.8846 60.0816 62.0205 59.7217 62.0205C59.4001 62.0205 59.1357 61.9292 58.9287 61.7468C58.7236 61.5623 58.6211 61.3291 58.6211 61.0473C58.6211 60.7047 58.7497 60.4391 59.0071 60.2506C59.2664 60.06 59.6303 59.9647 60.0987 59.9647H60.6414V59.7062C60.6414 59.5096 60.5831 59.3535 60.4666 59.2379C60.35 59.1203 60.1781 59.0615 59.9509 59.0615C59.7519 59.0615 59.585 59.1122 59.4503 59.2136C59.3156 59.3149 59.2483 59.4376 59.2483 59.5815H58.6874C58.6874 59.4173 58.7447 59.2592 58.8593 59.1071C58.9759 58.953 59.1327 58.8314 59.3297 58.7422C59.5287 58.653 59.7469 58.6084 59.9841 58.6084C60.36 58.6084 60.6545 58.7037 60.8676 58.8943C61.0807 59.0828 61.1913 59.3433 61.1993 59.6758V61.1902C61.1993 61.4923 61.2375 61.7326 61.3139 61.911V61.9596H60.7289ZM59.8031 61.5308C59.978 61.5308 60.1439 61.4852 60.3007 61.394C60.4575 61.3028 60.5711 61.1842 60.6414 61.0382V60.3631H60.2042C59.5207 60.3631 59.1789 60.5648 59.1789 60.9682C59.1789 61.1446 59.2372 61.2825 59.3538 61.3818C59.4704 61.4812 59.6202 61.5308 59.8031 61.5308Z" fill="#6B586B"/>
<path d="M62.6799 61.9596H62.122V57.2886H62.6799V61.9596Z" fill="#6B586B"/>
<path d="M64.643 61.1355L65.4029 58.6692H65.9999L64.6882 62.4675C64.4852 63.0149 64.1625 63.2886 63.7202 63.2886L63.6147 63.2795L63.4066 63.2399V62.7838L63.5574 62.7959C63.7464 62.7959 63.8931 62.7574 63.9977 62.6804C64.1042 62.6033 64.1917 62.4624 64.26 62.2577L64.3836 61.9231L63.2197 58.6692H63.8288L64.643 61.1355Z" fill="#6B586B"/>
</svg>
