<svg width="139" height="44" viewBox="0 0 139 44" fill="none" xmlns="http://www.w3.org/2000/svg">
<path d="M2.19695 21.8538H0V21.53H6.89148V21.8307H4.90266L10.5222 38.9437L15.3324 21.8538H13.7598V21.5532H17.7375V21.8538H15.6793L9.52782 43.8001L2.19695 21.8538Z" fill="#6B586B"/>
<path d="M13.3898 42.7595H15.3092L21.4144 21.5532H21.7844L28.1209 42.7595H30.5491V43.0139H23.6114V42.7595H25.5771L23.6345 36.2612H17.4368L15.5867 42.7595H17.4831V43.0139H13.3898V42.7595ZM23.5651 35.9606L20.4894 25.6234L17.5062 35.9606H23.5651Z" fill="#6B586B"/>
<path d="M31.1504 42.7827H33.7636V21.8539H31.4048V21.5532H38.7819V21.8539H36.3769L36.3537 42.7595H40.262C42.3896 42.7595 44.3552 41.2795 45.2109 39.0826C45.604 38.0188 45.6734 37.6256 45.8353 36.0762H46.0434V43.0371H31.1273V42.7827H31.1504Z" fill="#6B586B"/>
<path d="M47.4772 42.7827H49.6742V21.8076H47.616V21.5532H61.4914V26.9184H61.3295V26.7796C61.3064 25.1608 60.4276 23.2414 59.2945 22.432C58.6238 21.9232 58.0457 21.7614 57.0513 21.7614H52.2642V31.8211H53.8368C55.7794 31.8442 57.1669 30.0404 57.3519 27.3578H57.56V36.8162H57.375V36.6775C57.3519 33.8793 55.895 32.1217 53.5593 32.1217H52.2642V42.7595H56.4269C59.5026 42.7827 62.0002 40.1463 62.3471 36.4231H62.4858V43.0371H47.4772V42.7827Z" fill="#6B586B"/>
<path d="M63.9427 42.7827H65.7697V21.877H63.9427V21.5995H68.8454L77.1244 37.4175V21.877H75.4131V21.5995H79.3676V21.877H77.4019V43.5921L66.0472 21.877V42.7596H67.851V43.0371H63.9659V42.7827H63.9427Z" fill="#6B586B"/>
<path d="M85.496 42.7827H87.4385V21.7845H86.3516C84.8022 21.7845 82.0734 24.1433 81.5415 27.6353H81.3565V21.5532H96.0645V27.6816H95.9026C95.6251 24.4902 93.6594 21.8307 91.578 21.8307H89.9824V42.7827H91.9943V43.0371H85.496V42.7827Z" fill="#6B586B"/>
<path d="M97.7758 42.7827H99.8802V21.8539H97.7989V21.5532H104.367V21.8076H102.308V42.7364H104.367V43.0139H97.7758V42.7827Z" fill="#6B586B"/>
<path d="M106.378 42.7827H108.205V21.877H106.378V21.5995H111.281L119.56 37.4175V21.877H117.826V21.5995H121.803V21.877H119.838V43.5921L108.46 21.877V42.7596H110.264V43.0371H106.378V42.7827Z" fill="#6B586B"/>
<path d="M122.728 32.9774C122.728 26.8953 126.521 21.5532 130.822 21.5532C135.078 21.5532 138.755 26.8721 138.755 33.0005C138.755 38.7357 135.008 43.6152 130.591 43.6152C126.359 43.6152 122.728 38.7125 122.728 32.9774ZM135.656 37.6488C135.956 35.9375 136.095 34.203 136.095 32.4455C136.095 28.3753 135.286 24.8833 133.921 23.2877C133.112 22.3626 131.956 21.8307 130.73 21.8539C128.371 21.8539 126.822 23.4727 126.059 26.6871C125.596 28.6297 125.388 30.6416 125.388 32.6536C125.388 37.0937 126.174 40.5857 127.492 42.112C128.186 42.8983 129.273 43.3146 130.522 43.3146C133.389 43.3377 134.916 41.6495 135.656 37.6488Z" fill="#6B586B"/>
<path d="M0 21.2526H1.96569V0.277512H0V0H5.78144C10.6379 0 13.3898 2.03507 13.3898 5.64269C13.3898 8.23278 11.8173 9.64345 8.46403 10.1985C9.7822 10.5222 10.1985 10.4297 11.1697 11.1698C12.5804 12.2567 13.0661 13.6211 13.0661 15.6561V15.9568L13.1586 18.0612V18.4081C13.1586 20.3969 13.5748 21.322 14.4999 21.322H16.0724V21.5763H14.2917C13.0429 21.5763 11.6323 20.8363 11.0772 19.7725C10.7304 18.94 10.5454 18.0612 10.5454 17.1593L10.5222 14.1298V13.9217C10.4991 11.0079 9.57407 10.2447 7.21524 10.2447H4.74078V21.2526H6.93773V21.5532H0V21.2526ZM7.23837 9.94408H7.51587C9.55094 9.94408 10.7304 8.14027 10.7304 4.99517C10.7304 1.87319 9.22718 0.208134 6.38271 0.208134H4.67141V9.92095H7.23837V9.94408Z" fill="#6B586B"/>
<path d="M16.3499 21.2988H18.5006V0.254385H16.4655V0H30.1329V5.3883H29.971V5.24955C29.9479 3.63075 29.0691 1.71131 27.959 0.901907C27.2884 0.39314 26.7103 0.231258 25.739 0.231258H20.9982V10.3372H22.5476C24.4439 10.3603 25.8315 8.55653 26.0165 5.85082H26.2246V15.3324H26.0396V15.1705C26.0165 12.3492 24.5827 10.5916 22.2932 10.5916H20.9982V21.2757H25.1146C28.144 21.2988 30.5954 18.6625 30.9423 14.9161H31.081V21.5763H16.3499V21.2988Z" fill="#6B586B"/>
<path d="M31.4048 21.2988H33.7405V0.254385H31.4048V0H38.5507C43.6615 0 47.1534 4.37077 47.1534 10.7766C47.1534 15.3324 45.1878 19.2175 42.2508 20.6051C40.8632 21.2526 39.3369 21.5763 37.8106 21.5532H31.4048V21.2988ZM37.9725 21.2988H38.1575C41.3951 21.2988 43.1296 19.495 43.9852 15.2399C44.2859 13.6673 44.4477 12.0717 44.4477 10.4528C44.4477 5.61956 43.2683 2.12757 41.2101 0.925031C40.3313 0.43939 39.3601 0.185008 38.3657 0.208134H36.3768V21.2757H37.9725V21.2988Z" fill="#6B586B"/>
</svg>
