<svg width="185" height="15" viewBox="0 0 185 15" fill="none" xmlns="http://www.w3.org/2000/svg">
<path d="M70.5001 0.360406V1.32445H66.4893V14.6956H64.853V1.32445H60.7978V0.360406H70.5001ZM10.1601 0.360406V1.32393H14.2168V14.6961H15.8521V1.32393H19.8623V0.360406H10.1601ZM59.5441 14.6961H57.7513L54.0449 8.36832H51.6572V14.6961H50.0183V0.360406H54.2914C58.1477 0.360406 58.4484 3.40319 58.4484 4.33586C58.4484 6.46952 56.9922 7.68151 55.6832 8.10259L59.5441 14.6961ZM54.3103 7.40009C55.9047 7.40009 56.7395 5.51855 56.7395 4.51057C56.7395 2.57672 55.8152 1.32864 54.384 1.32864L51.6572 1.32288V7.40061H54.3103V7.40009ZM31.4147 0.360406V9.67499C31.4147 12.4976 30.1887 13.9277 27.7723 13.9277C24.7263 13.9277 24.49 10.7044 24.49 9.71474V0.360406H22.8557V9.86748C22.8557 10.5109 22.9519 11.7579 23.602 12.8763C24.424 14.286 25.8291 15 27.781 15C29.8726 15 32.3656 14.1113 32.3656 9.86748V0.360406H31.4147ZM47.2183 14.6961H45.4863L43.3902 9.81518H37.4746L35.5733 14.6961H34.5682L40.2285 0.0957246H40.8582L47.2183 14.6961ZM42.9718 8.84276L40.2868 2.5966L37.8541 8.84276H42.9718ZM4.55958 6.43604C2.4358 5.85123 1.40204 4.96931 1.40204 3.73692C1.40204 1.98197 2.56214 0.931615 4.50382 0.931615C6.26341 0.931615 7.52018 2.37376 7.8363 2.81577V1.13353C7.26341 0.68315 6.08745 0 4.52019 0C1.4225 0 0.0286444 2.29896 0.0286444 3.93151C0.0286444 5.93493 1.28849 7.2824 3.88234 8.04976C6.27671 8.76116 7.34423 9.69068 7.34423 11.0669C7.34423 12.7873 6.03016 13.9899 4.14577 13.9899C3.18669 13.9899 1.63069 13.6567 0 11.8128V13.4459C0.782095 14.2169 2.47928 14.9691 4.14884 14.9691C6.67057 14.9691 8.80253 13.131 8.80253 10.9534C8.80305 10.1243 8.80305 7.60148 4.55958 6.43604ZM107.813 1.3187V0.360406H100.235V14.6961H107.813V13.7137H101.87L101.868 7.55492H107.224V6.58042H101.868V1.3187H107.813ZM111.929 14.6961H113.56V0.360406H111.929V14.6961ZM117.326 0.360406V1.32445H121.38V14.6956H123.015V1.32445H127.027V0.360406H117.326ZM139.43 0.360406H130.277V1.32393H136.944L128.725 14.6961H139.11V13.7169H131.221L139.43 0.360406ZM155.469 0.0899707L149.893 12.3908L143.357 0.0899707H142.678V14.6956H143.63V4.00631L149.356 14.6982H149.849L154.65 4.14964V14.6961H156.275V0.0899707H155.469ZM171.959 14.6961H170.226L168.131 9.81518H162.214L160.314 14.6961H159.31L164.968 0.0957246H165.598L171.959 14.6961ZM167.713 8.84276L165.03 2.5966L162.595 8.84276H167.713ZM184.041 0.360406V11.9143L175.663 0.0952016H175.01V14.6956H175.968V3.23058L184.249 14.9095H185V0.360406H184.041ZM96.1118 0.359883L93.0621 11.5121L89.2238 0.0957246H88.5041L85.3808 11.5701L81.6121 0.359883H79.9036L84.7716 14.9205H85.4351L88.5854 3.33153L92.4862 14.9205H93.1496L97.0698 0.359883H96.1118Z" fill="#6B586B"/>
</svg>
